M48
; DRILL file {KiCad 8.0.6} date 2025-02-17T14:59:26-0500
; FORMAT={-:-/ absolute / inch / decimal}
; #@! TF.CreationDate,2025-02-17T14:59:26-05:00
; #@! TF.GenerationSoftware,Kicad,Pcbnew,8.0.6
; #@! TF.FileFunction,Plated,1,2,PTH
FMAT,2
INCH
; #@! TA.AperFunction,Plated,PTH,ComponentDrill
T1C0.0276
; #@! TA.AperFunction,Plated,PTH,ComponentDrill
T2C0.0315
; #@! TA.AperFunction,Plated,PTH,ComponentDrill
T3C0.0430
; #@! TA.AperFunction,Plated,PTH,ComponentDrill
T4C0.0433
; #@! TA.AperFunction,Plated,PTH,ComponentDrill
T5C0.0472
; #@! TA.AperFunction,Plated,PTH,ComponentDrill
T6C0.0600
%
G90
G05
T1
X2.9679Y-2.8817
X2.9679Y-3.0817
X3.2438Y-2.8821
X3.2438Y-3.0821
T2
X2.6769Y-5.4566
X2.9769Y-5.4566
X3.4269Y-5.1406
X3.4269Y-5.8906
X3.7269Y-5.1406
X3.7269Y-5.8906
X4.1769Y-2.2912
X4.1769Y-3.0412
X4.1769Y-3.7912
X4.1769Y-4.5412
X4.1769Y-5.2912
X4.4769Y-2.2912
X4.4769Y-3.0412
X4.4769Y-3.7912
X4.4769Y-4.5412
X4.4769Y-5.2912
X4.9269Y-2.1967
X4.9269Y-2.9467
X4.9269Y-3.6967
X4.9269Y-4.4467
X4.9269Y-5.1967
X5.2269Y-2.1967
X5.2269Y-2.9467
X5.2269Y-3.6967
X5.2269Y-4.4467
X5.2269Y-5.1967
X5.6769Y-2.0786
X5.6769Y-2.8286
X5.6769Y-3.5786
X5.6769Y-4.3286
X5.6769Y-5.0786
X5.9769Y-2.0786
X5.9769Y-2.8286
X5.9769Y-3.5786
X5.9769Y-4.3286
X5.9769Y-5.0786
X6.4269Y-2.1387
X6.4269Y-2.8887
X6.4269Y-3.6387
X6.4269Y-4.3887
X6.7269Y-2.1387
X6.7269Y-2.8887
X6.7269Y-3.6387
X6.7269Y-4.3887
X7.1769Y-2.3168
X7.1769Y-3.0668
X7.1769Y-3.8168
X7.1769Y-4.5668
X7.4769Y-2.3168
X7.4769Y-3.0668
X7.4769Y-3.8168
X7.4769Y-4.5668
X7.9269Y-3.2584
X7.9269Y-4.0084
X7.9269Y-4.7584
X7.9278Y-2.5091
X8.2269Y-3.2584
X8.2269Y-4.0084
X8.2269Y-4.7584
X8.2278Y-2.5091
T3
X3.0873Y-1.5435
X3.0873Y-1.6435
X3.0873Y-1.7435
X3.0873Y-1.8435
X3.0873Y-1.9435
X3.0873Y-2.0435
X3.0873Y-2.1435
X3.0873Y-2.2435
X3.0873Y-2.3435
X3.0873Y-2.4435
X3.0873Y-2.5435
X3.0873Y-2.6435
X3.6873Y-1.5435
X3.6873Y-1.6435
X3.6873Y-1.7435
X3.6873Y-1.8435
X3.6873Y-1.9435
X3.6873Y-2.0435
X3.6873Y-2.1435
X3.6873Y-2.2435
X3.6873Y-2.3435
X3.6873Y-2.4435
X3.6873Y-2.5435
X3.6873Y-2.6435
T4
X2.9873Y-3.6495
X2.9873Y-3.9054
X3.1645Y-3.6495
X3.1645Y-3.9054
T5
X2.8194Y-4.8995
X3.0162Y-4.9822
X3.5694Y-4.5835
X3.5694Y-5.3335
X3.7662Y-4.6662
X3.7662Y-5.4162
X4.3194Y-1.7341
X4.3194Y-2.4841
X4.3194Y-3.2341
X4.3194Y-3.9841
X4.3194Y-4.7341
X4.5162Y-1.8168
X4.5162Y-2.5668
X4.5162Y-3.3168
X4.5162Y-4.0668
X4.5162Y-4.8168
X5.0694Y-1.6396
X5.0694Y-2.3896
X5.0694Y-3.1396
X5.0694Y-3.8896
X5.0694Y-4.6396
X5.2662Y-1.7223
X5.2662Y-2.4723
X5.2662Y-3.2223
X5.2662Y-3.9723
X5.2662Y-4.7223
X5.8194Y-1.5215
X5.8194Y-2.2715
X5.8194Y-3.0215
X5.8194Y-3.7715
X5.8194Y-4.5215
X6.0162Y-1.6042
X6.0162Y-2.3542
X6.0162Y-3.1042
X6.0162Y-3.8542
X6.0162Y-4.6042
X6.5694Y-1.5816
X6.5694Y-2.3316
X6.5694Y-3.0816
X6.5694Y-3.8316
X6.7662Y-1.6643
X6.7662Y-2.4143
X6.7662Y-3.1643
X6.7662Y-3.9143
X7.3194Y-1.7597
X7.3194Y-2.5097
X7.3194Y-3.2597
X7.3194Y-4.0097
X7.5162Y-1.8424
X7.5162Y-2.5924
X7.5162Y-3.3424
X7.5162Y-4.0924
X8.0694Y-2.7013
X8.0694Y-3.4513
X8.0694Y-4.2013
X8.0704Y-1.952
X8.2662Y-2.784
X8.2662Y-3.534
X8.2662Y-4.284
X8.2672Y-2.0347
T6
X2.6694Y-5.0318
X2.9194Y-4.9318
X3.4194Y-4.7158
X3.4194Y-5.4658
X3.6694Y-4.6158
X3.6694Y-5.3658
X4.1694Y-1.8664
X4.1694Y-2.6164
X4.1694Y-3.3664
X4.1694Y-4.1164
X4.1694Y-4.8664
X4.4194Y-1.7664
X4.4194Y-2.5164
X4.4194Y-3.2664
X4.4194Y-4.0164
X4.4194Y-4.7664
X4.9194Y-1.7719
X4.9194Y-2.5219
X4.9194Y-3.2719
X4.9194Y-4.0219
X4.9194Y-4.7719
X5.1694Y-1.6719
X5.1694Y-2.4219
X5.1694Y-3.1719
X5.1694Y-3.9219
X5.1694Y-4.6719
X5.6694Y-1.6538
X5.6694Y-2.4038
X5.6694Y-3.1538
X5.6694Y-3.9038
X5.6694Y-4.6538
X5.9194Y-1.5538
X5.9194Y-2.3038
X5.9194Y-3.0538
X5.9194Y-3.8038
X5.9194Y-4.5538
X6.4194Y-1.7139
X6.4194Y-2.4639
X6.4194Y-3.2139
X6.4194Y-3.9639
X6.6694Y-1.6139
X6.6694Y-2.3639
X6.6694Y-3.1139
X6.6694Y-3.8639
X7.1694Y-1.892
X7.1694Y-2.642
X7.1694Y-3.392
X7.1694Y-4.142
X7.4194Y-1.792
X7.4194Y-2.542
X7.4194Y-3.292
X7.4194Y-4.042
X7.9194Y-2.8336
X7.9194Y-3.5836
X7.9194Y-4.3336
X7.9204Y-2.0843
X8.1694Y-2.7336
X8.1694Y-3.4836
X8.1694Y-4.2336
X8.1704Y-1.9843
T1
G00X2.9582Y-3.2413
M15
G01X2.9897Y-3.2413
M16
G05
G00X3.0763Y-3.2413
M15
G01X3.1078Y-3.2413
M16
G05
G00X3.2338Y-3.2413
M15
G01X3.2653Y-3.2413
M16
G05
G00X3.2732Y-3.4146
M15
G01X3.3047Y-3.4146
M16
G05
M30
