%TF.GenerationSoftware,KiCad,Pcbnew,8.0.6*%
%TF.CreationDate,2025-02-17T14:59:27-05:00*%
%TF.ProjectId,KeyBoard_2nd_half,4b657942-6f61-4726-945f-326e645f6861,rev?*%
%TF.SameCoordinates,Original*%
%TF.FileFunction,Drillmap*%
%TF.FilePolarity,Positive*%
%FSLAX45Y45*%
G04 Gerber Fmt 4.5, Leading zero omitted, Abs format (unit mm)*
G04 Created by KiCad (PCBNEW 8.0.6) date 2025-02-17 14:59:27*
%MOMM*%
%LPD*%
G01*
G04 APERTURE LIST*
%ADD10C,0.050000*%
%ADD11C,0.200000*%
%ADD12C,0.100000*%
%ADD13C,0.109220*%
%ADD14C,0.110000*%
%ADD15C,0.120000*%
%ADD16C,0.152400*%
G04 APERTURE END LIST*
D10*
X19548840Y-12524230D02*
X21148840Y-12524230D01*
X7442044Y-3622619D02*
G75*
G02*
X7241643Y-3622619I-100200J0D01*
G01*
X7241643Y-3622619D02*
G75*
G02*
X7442044Y-3622619I100200J0D01*
G01*
X7003715Y-11775730D02*
G75*
G02*
X6808543Y-11979651I-199405J-4510D01*
G01*
X8225027Y-15286043D02*
X10029840Y-15263230D01*
X7992725Y-14132778D02*
G75*
G02*
X8073768Y-14208647I5025J-75852D01*
G01*
X10300598Y-13890973D02*
X15771129Y-13148941D01*
X17152840Y-3311230D02*
G75*
G02*
X17326871Y-3340891I18000J-419770D01*
G01*
X17409840Y-11900230D02*
X19548840Y-12524230D01*
X15865691Y-11901071D02*
G75*
G02*
X15973090Y-11775730I114479J10591D01*
G01*
X8225027Y-15286043D02*
G75*
G02*
X8072027Y-15133043I3J153003D01*
G01*
X15865691Y-11901071D02*
X15891840Y-13028230D01*
X7003710Y-3547610D02*
G75*
G02*
X7241840Y-3309485I238149J-24D01*
G01*
X8073762Y-14208647D02*
X8072027Y-15133043D01*
X21530620Y-12267230D02*
G75*
G02*
X21441840Y-12378232I-113770J-10D01*
G01*
X17635785Y-11535323D02*
G75*
G02*
X17435385Y-11535323I-100200J0D01*
G01*
X17435385Y-11535323D02*
G75*
G02*
X17635785Y-11535323I100200J0D01*
G01*
X10163697Y-15144519D02*
G75*
G02*
X10029840Y-15263229I-119557J-11D01*
G01*
X6808543Y-11979656D02*
X6607840Y-11975230D01*
X8115785Y-11985323D02*
G75*
G02*
X7915385Y-11985323I-100200J0D01*
G01*
X7915385Y-11985323D02*
G75*
G02*
X8115785Y-11985323I100200J0D01*
G01*
X6607840Y-11975230D02*
X6208372Y-11975155D01*
X21530620Y-12267230D02*
X21534840Y-4588230D01*
X7003710Y-3547610D02*
X7003715Y-11775730D01*
X10141177Y-14071336D02*
X10163697Y-15144519D01*
X21389840Y-4426350D02*
X17326870Y-3340892D01*
X6124407Y-12076360D02*
G75*
G02*
X6208373Y-11975160I96713J5190D01*
G01*
X6221105Y-14144503D02*
X7992725Y-14132778D01*
X15973090Y-11775730D02*
X17409840Y-11900230D01*
X10141177Y-14071336D02*
G75*
G02*
X10300597Y-13890983I156153J22606D01*
G01*
X21389840Y-4426350D02*
G75*
G02*
X21534840Y-4588230I0J-145880D01*
G01*
X17152840Y-3311230D02*
X7241840Y-3309485D01*
X6221105Y-14144503D02*
G75*
G02*
X6123273Y-14042100I-3225J94853D01*
G01*
X21441840Y-12378230D02*
X21148840Y-12524230D01*
X15891840Y-13028230D02*
G75*
G02*
X15771129Y-13148940I-120700J-10D01*
G01*
X13945785Y-8460323D02*
G75*
G02*
X13745385Y-8460323I-100200J0D01*
G01*
X13745385Y-8460323D02*
G75*
G02*
X13945785Y-8460323I100200J0D01*
G01*
X6124407Y-12076360D02*
X6123273Y-14042100D01*
X19760785Y-4485323D02*
G75*
G02*
X19560385Y-4485323I-100200J0D01*
G01*
X19560385Y-4485323D02*
G75*
G02*
X19760785Y-4485323I100200J0D01*
G01*
D11*
D12*
X7503345Y-7284619D02*
X7573345Y-7354619D01*
X7573345Y-7284619D02*
X7503345Y-7354619D01*
X7503345Y-7792619D02*
X7573345Y-7862619D01*
X7573345Y-7792619D02*
X7503345Y-7862619D01*
X7518845Y-8198004D02*
X7588845Y-8268004D01*
X7588845Y-8198004D02*
X7518845Y-8268004D01*
X7513845Y-8268004D02*
X7593845Y-8268004D01*
X7593845Y-8198004D02*
G75*
G02*
X7593845Y-8268004I0J-35000D01*
G01*
X7593845Y-8198004D02*
X7513845Y-8198004D01*
X7513845Y-8198004D02*
G75*
G03*
X7513845Y-8268004I0J-35000D01*
G01*
X7818845Y-8198004D02*
X7888845Y-8268004D01*
X7888845Y-8198004D02*
X7818845Y-8268004D01*
X7813845Y-8268004D02*
X7893845Y-8268004D01*
X7893845Y-8198004D02*
G75*
G02*
X7893845Y-8268004I0J-35000D01*
G01*
X7893845Y-8198004D02*
X7813845Y-8198004D01*
X7813845Y-8198004D02*
G75*
G03*
X7813845Y-8268004I0J-35000D01*
G01*
X8204345Y-7285619D02*
X8274345Y-7355619D01*
X8274345Y-7285619D02*
X8204345Y-7355619D01*
X8204345Y-7793619D02*
X8274345Y-7863619D01*
X8274345Y-7793619D02*
X8204345Y-7863619D01*
X8218845Y-8198004D02*
X8288845Y-8268004D01*
X8288845Y-8198004D02*
X8218845Y-8268004D01*
X8213845Y-8268004D02*
X8293845Y-8268004D01*
X8293845Y-8198004D02*
G75*
G02*
X8293845Y-8268004I0J-35000D01*
G01*
X8293845Y-8198004D02*
X8213845Y-8198004D01*
X8213845Y-8198004D02*
G75*
G03*
X8213845Y-8268004I0J-35000D01*
G01*
X8318845Y-8638004D02*
X8388845Y-8708004D01*
X8388845Y-8638004D02*
X8318845Y-8708004D01*
X8313845Y-8708004D02*
X8393845Y-8708004D01*
X8393845Y-8638004D02*
G75*
G02*
X8393845Y-8708004I0J-35000D01*
G01*
X8393845Y-8638004D02*
X8313845Y-8638004D01*
X8313845Y-8638004D02*
G75*
G03*
X8313845Y-8708004I0J-35000D01*
G01*
X6839210Y-13859698D02*
G75*
G02*
X6759210Y-13859698I-40000J0D01*
G01*
X6759210Y-13859698D02*
G75*
G02*
X6839210Y-13859698I40000J0D01*
G01*
X7601210Y-13859698D02*
G75*
G02*
X7521210Y-13859698I-40000J0D01*
G01*
X7521210Y-13859698D02*
G75*
G02*
X7601210Y-13859698I40000J0D01*
G01*
X8744210Y-13057198D02*
G75*
G02*
X8664210Y-13057198I-40000J0D01*
G01*
X8664210Y-13057198D02*
G75*
G02*
X8744210Y-13057198I40000J0D01*
G01*
X8744210Y-14962198D02*
G75*
G02*
X8664210Y-14962198I-40000J0D01*
G01*
X8664210Y-14962198D02*
G75*
G02*
X8744210Y-14962198I40000J0D01*
G01*
X9506210Y-13057198D02*
G75*
G02*
X9426210Y-13057198I-40000J0D01*
G01*
X9426210Y-13057198D02*
G75*
G02*
X9506210Y-13057198I40000J0D01*
G01*
X9506210Y-14962198D02*
G75*
G02*
X9426210Y-14962198I-40000J0D01*
G01*
X9426210Y-14962198D02*
G75*
G02*
X9506210Y-14962198I40000J0D01*
G01*
X10649210Y-5819698D02*
G75*
G02*
X10569210Y-5819698I-40000J0D01*
G01*
X10569210Y-5819698D02*
G75*
G02*
X10649210Y-5819698I40000J0D01*
G01*
X10649210Y-7724698D02*
G75*
G02*
X10569210Y-7724698I-40000J0D01*
G01*
X10569210Y-7724698D02*
G75*
G02*
X10649210Y-7724698I40000J0D01*
G01*
X10649210Y-9629698D02*
G75*
G02*
X10569210Y-9629698I-40000J0D01*
G01*
X10569210Y-9629698D02*
G75*
G02*
X10649210Y-9629698I40000J0D01*
G01*
X10649210Y-11534698D02*
G75*
G02*
X10569210Y-11534698I-40000J0D01*
G01*
X10569210Y-11534698D02*
G75*
G02*
X10649210Y-11534698I40000J0D01*
G01*
X10649210Y-13439698D02*
G75*
G02*
X10569210Y-13439698I-40000J0D01*
G01*
X10569210Y-13439698D02*
G75*
G02*
X10649210Y-13439698I40000J0D01*
G01*
X11411210Y-5819698D02*
G75*
G02*
X11331210Y-5819698I-40000J0D01*
G01*
X11331210Y-5819698D02*
G75*
G02*
X11411210Y-5819698I40000J0D01*
G01*
X11411210Y-7724698D02*
G75*
G02*
X11331210Y-7724698I-40000J0D01*
G01*
X11331210Y-7724698D02*
G75*
G02*
X11411210Y-7724698I40000J0D01*
G01*
X11411210Y-9629698D02*
G75*
G02*
X11331210Y-9629698I-40000J0D01*
G01*
X11331210Y-9629698D02*
G75*
G02*
X11411210Y-9629698I40000J0D01*
G01*
X11411210Y-11534698D02*
G75*
G02*
X11331210Y-11534698I-40000J0D01*
G01*
X11331210Y-11534698D02*
G75*
G02*
X11411210Y-11534698I40000J0D01*
G01*
X11411210Y-13439698D02*
G75*
G02*
X11331210Y-13439698I-40000J0D01*
G01*
X11331210Y-13439698D02*
G75*
G02*
X11411210Y-13439698I40000J0D01*
G01*
X12554210Y-5579698D02*
G75*
G02*
X12474210Y-5579698I-40000J0D01*
G01*
X12474210Y-5579698D02*
G75*
G02*
X12554210Y-5579698I40000J0D01*
G01*
X12554210Y-7484698D02*
G75*
G02*
X12474210Y-7484698I-40000J0D01*
G01*
X12474210Y-7484698D02*
G75*
G02*
X12554210Y-7484698I40000J0D01*
G01*
X12554210Y-9389698D02*
G75*
G02*
X12474210Y-9389698I-40000J0D01*
G01*
X12474210Y-9389698D02*
G75*
G02*
X12554210Y-9389698I40000J0D01*
G01*
X12554210Y-11294698D02*
G75*
G02*
X12474210Y-11294698I-40000J0D01*
G01*
X12474210Y-11294698D02*
G75*
G02*
X12554210Y-11294698I40000J0D01*
G01*
X12554210Y-13199698D02*
G75*
G02*
X12474210Y-13199698I-40000J0D01*
G01*
X12474210Y-13199698D02*
G75*
G02*
X12554210Y-13199698I40000J0D01*
G01*
X13316210Y-5579698D02*
G75*
G02*
X13236210Y-5579698I-40000J0D01*
G01*
X13236210Y-5579698D02*
G75*
G02*
X13316210Y-5579698I40000J0D01*
G01*
X13316210Y-7484698D02*
G75*
G02*
X13236210Y-7484698I-40000J0D01*
G01*
X13236210Y-7484698D02*
G75*
G02*
X13316210Y-7484698I40000J0D01*
G01*
X13316210Y-9389698D02*
G75*
G02*
X13236210Y-9389698I-40000J0D01*
G01*
X13236210Y-9389698D02*
G75*
G02*
X13316210Y-9389698I40000J0D01*
G01*
X13316210Y-11294698D02*
G75*
G02*
X13236210Y-11294698I-40000J0D01*
G01*
X13236210Y-11294698D02*
G75*
G02*
X13316210Y-11294698I40000J0D01*
G01*
X13316210Y-13199698D02*
G75*
G02*
X13236210Y-13199698I-40000J0D01*
G01*
X13236210Y-13199698D02*
G75*
G02*
X13316210Y-13199698I40000J0D01*
G01*
X14459210Y-5279698D02*
G75*
G02*
X14379210Y-5279698I-40000J0D01*
G01*
X14379210Y-5279698D02*
G75*
G02*
X14459210Y-5279698I40000J0D01*
G01*
X14459210Y-7184698D02*
G75*
G02*
X14379210Y-7184698I-40000J0D01*
G01*
X14379210Y-7184698D02*
G75*
G02*
X14459210Y-7184698I40000J0D01*
G01*
X14459210Y-9089698D02*
G75*
G02*
X14379210Y-9089698I-40000J0D01*
G01*
X14379210Y-9089698D02*
G75*
G02*
X14459210Y-9089698I40000J0D01*
G01*
X14459210Y-10994698D02*
G75*
G02*
X14379210Y-10994698I-40000J0D01*
G01*
X14379210Y-10994698D02*
G75*
G02*
X14459210Y-10994698I40000J0D01*
G01*
X14459210Y-12899698D02*
G75*
G02*
X14379210Y-12899698I-40000J0D01*
G01*
X14379210Y-12899698D02*
G75*
G02*
X14459210Y-12899698I40000J0D01*
G01*
X15221210Y-5279698D02*
G75*
G02*
X15141210Y-5279698I-40000J0D01*
G01*
X15141210Y-5279698D02*
G75*
G02*
X15221210Y-5279698I40000J0D01*
G01*
X15221210Y-7184698D02*
G75*
G02*
X15141210Y-7184698I-40000J0D01*
G01*
X15141210Y-7184698D02*
G75*
G02*
X15221210Y-7184698I40000J0D01*
G01*
X15221210Y-9089698D02*
G75*
G02*
X15141210Y-9089698I-40000J0D01*
G01*
X15141210Y-9089698D02*
G75*
G02*
X15221210Y-9089698I40000J0D01*
G01*
X15221210Y-10994698D02*
G75*
G02*
X15141210Y-10994698I-40000J0D01*
G01*
X15141210Y-10994698D02*
G75*
G02*
X15221210Y-10994698I40000J0D01*
G01*
X15221210Y-12899698D02*
G75*
G02*
X15141210Y-12899698I-40000J0D01*
G01*
X15141210Y-12899698D02*
G75*
G02*
X15221210Y-12899698I40000J0D01*
G01*
X16364210Y-5432198D02*
G75*
G02*
X16284210Y-5432198I-40000J0D01*
G01*
X16284210Y-5432198D02*
G75*
G02*
X16364210Y-5432198I40000J0D01*
G01*
X16364210Y-7337198D02*
G75*
G02*
X16284210Y-7337198I-40000J0D01*
G01*
X16284210Y-7337198D02*
G75*
G02*
X16364210Y-7337198I40000J0D01*
G01*
X16364210Y-9242198D02*
G75*
G02*
X16284210Y-9242198I-40000J0D01*
G01*
X16284210Y-9242198D02*
G75*
G02*
X16364210Y-9242198I40000J0D01*
G01*
X16364210Y-11147198D02*
G75*
G02*
X16284210Y-11147198I-40000J0D01*
G01*
X16284210Y-11147198D02*
G75*
G02*
X16364210Y-11147198I40000J0D01*
G01*
X17126210Y-5432198D02*
G75*
G02*
X17046210Y-5432198I-40000J0D01*
G01*
X17046210Y-5432198D02*
G75*
G02*
X17126210Y-5432198I40000J0D01*
G01*
X17126210Y-7337198D02*
G75*
G02*
X17046210Y-7337198I-40000J0D01*
G01*
X17046210Y-7337198D02*
G75*
G02*
X17126210Y-7337198I40000J0D01*
G01*
X17126210Y-9242198D02*
G75*
G02*
X17046210Y-9242198I-40000J0D01*
G01*
X17046210Y-9242198D02*
G75*
G02*
X17126210Y-9242198I40000J0D01*
G01*
X17126210Y-11147198D02*
G75*
G02*
X17046210Y-11147198I-40000J0D01*
G01*
X17046210Y-11147198D02*
G75*
G02*
X17126210Y-11147198I40000J0D01*
G01*
X18269210Y-5884698D02*
G75*
G02*
X18189210Y-5884698I-40000J0D01*
G01*
X18189210Y-5884698D02*
G75*
G02*
X18269210Y-5884698I40000J0D01*
G01*
X18269210Y-7789698D02*
G75*
G02*
X18189210Y-7789698I-40000J0D01*
G01*
X18189210Y-7789698D02*
G75*
G02*
X18269210Y-7789698I40000J0D01*
G01*
X18269210Y-9694698D02*
G75*
G02*
X18189210Y-9694698I-40000J0D01*
G01*
X18189210Y-9694698D02*
G75*
G02*
X18269210Y-9694698I40000J0D01*
G01*
X18269210Y-11599698D02*
G75*
G02*
X18189210Y-11599698I-40000J0D01*
G01*
X18189210Y-11599698D02*
G75*
G02*
X18269210Y-11599698I40000J0D01*
G01*
X19031210Y-5884698D02*
G75*
G02*
X18951210Y-5884698I-40000J0D01*
G01*
X18951210Y-5884698D02*
G75*
G02*
X19031210Y-5884698I40000J0D01*
G01*
X19031210Y-7789698D02*
G75*
G02*
X18951210Y-7789698I-40000J0D01*
G01*
X18951210Y-7789698D02*
G75*
G02*
X19031210Y-7789698I40000J0D01*
G01*
X19031210Y-9694698D02*
G75*
G02*
X18951210Y-9694698I-40000J0D01*
G01*
X18951210Y-9694698D02*
G75*
G02*
X19031210Y-9694698I40000J0D01*
G01*
X19031210Y-11599698D02*
G75*
G02*
X18951210Y-11599698I-40000J0D01*
G01*
X18951210Y-11599698D02*
G75*
G02*
X19031210Y-11599698I40000J0D01*
G01*
X20174210Y-8276279D02*
G75*
G02*
X20094210Y-8276279I-40000J0D01*
G01*
X20094210Y-8276279D02*
G75*
G02*
X20174210Y-8276279I40000J0D01*
G01*
X20174210Y-10181279D02*
G75*
G02*
X20094210Y-10181279I-40000J0D01*
G01*
X20094210Y-10181279D02*
G75*
G02*
X20174210Y-10181279I40000J0D01*
G01*
X20174210Y-12086279D02*
G75*
G02*
X20094210Y-12086279I-40000J0D01*
G01*
X20094210Y-12086279D02*
G75*
G02*
X20174210Y-12086279I40000J0D01*
G01*
X20176710Y-6373116D02*
G75*
G02*
X20096710Y-6373116I-40000J0D01*
G01*
X20096710Y-6373116D02*
G75*
G02*
X20176710Y-6373116I40000J0D01*
G01*
X20936210Y-8276279D02*
G75*
G02*
X20856210Y-8276279I-40000J0D01*
G01*
X20856210Y-8276279D02*
G75*
G02*
X20936210Y-8276279I40000J0D01*
G01*
X20936210Y-10181279D02*
G75*
G02*
X20856210Y-10181279I-40000J0D01*
G01*
X20856210Y-10181279D02*
G75*
G02*
X20936210Y-10181279I40000J0D01*
G01*
X20936210Y-12086279D02*
G75*
G02*
X20856210Y-12086279I-40000J0D01*
G01*
X20856210Y-12086279D02*
G75*
G02*
X20936210Y-12086279I40000J0D01*
G01*
X20938710Y-6373116D02*
G75*
G02*
X20858710Y-6373116I-40000J0D01*
G01*
X20858710Y-6373116D02*
G75*
G02*
X20938710Y-6373116I40000J0D01*
G01*
D13*
X7841710Y-3866000D02*
X7841710Y-3975220D01*
X7787100Y-3920610D02*
X7896320Y-3920610D01*
X7841710Y-4120000D02*
X7841710Y-4229220D01*
X7787100Y-4174610D02*
X7896320Y-4174610D01*
X7841710Y-4374000D02*
X7841710Y-4483220D01*
X7787100Y-4428610D02*
X7896320Y-4428610D01*
X7841710Y-4628000D02*
X7841710Y-4737220D01*
X7787100Y-4682610D02*
X7896320Y-4682610D01*
X7841710Y-4882000D02*
X7841710Y-4991220D01*
X7787100Y-4936610D02*
X7896320Y-4936610D01*
X7841710Y-5136000D02*
X7841710Y-5245220D01*
X7787100Y-5190610D02*
X7896320Y-5190610D01*
X7841710Y-5390000D02*
X7841710Y-5499220D01*
X7787100Y-5444610D02*
X7896320Y-5444610D01*
X7841710Y-5644000D02*
X7841710Y-5753220D01*
X7787100Y-5698610D02*
X7896320Y-5698610D01*
X7841710Y-5898000D02*
X7841710Y-6007220D01*
X7787100Y-5952610D02*
X7896320Y-5952610D01*
X7841710Y-6152000D02*
X7841710Y-6261220D01*
X7787100Y-6206610D02*
X7896320Y-6206610D01*
X7841710Y-6406000D02*
X7841710Y-6515220D01*
X7787100Y-6460610D02*
X7896320Y-6460610D01*
X7841710Y-6660000D02*
X7841710Y-6769220D01*
X7787100Y-6714610D02*
X7896320Y-6714610D01*
X9365710Y-3866000D02*
X9365710Y-3975220D01*
X9311100Y-3920610D02*
X9420320Y-3920610D01*
X9365710Y-4120000D02*
X9365710Y-4229220D01*
X9311100Y-4174610D02*
X9420320Y-4174610D01*
X9365710Y-4374000D02*
X9365710Y-4483220D01*
X9311100Y-4428610D02*
X9420320Y-4428610D01*
X9365710Y-4628000D02*
X9365710Y-4737220D01*
X9311100Y-4682610D02*
X9420320Y-4682610D01*
X9365710Y-4882000D02*
X9365710Y-4991220D01*
X9311100Y-4936610D02*
X9420320Y-4936610D01*
X9365710Y-5136000D02*
X9365710Y-5245220D01*
X9311100Y-5190610D02*
X9420320Y-5190610D01*
X9365710Y-5390000D02*
X9365710Y-5499220D01*
X9311100Y-5444610D02*
X9420320Y-5444610D01*
X9365710Y-5644000D02*
X9365710Y-5753220D01*
X9311100Y-5698610D02*
X9420320Y-5698610D01*
X9365710Y-5898000D02*
X9365710Y-6007220D01*
X9311100Y-5952610D02*
X9420320Y-5952610D01*
X9365710Y-6152000D02*
X9365710Y-6261220D01*
X9311100Y-6206610D02*
X9420320Y-6206610D01*
X9365710Y-6406000D02*
X9365710Y-6515220D01*
X9311100Y-6460610D02*
X9420320Y-6460610D01*
X9365710Y-6660000D02*
X9365710Y-6769220D01*
X9311100Y-6714610D02*
X9420320Y-6714610D01*
D14*
X7626736Y-9308510D02*
X7626736Y-9230728D01*
X7548954Y-9230728D01*
X7548954Y-9308510D01*
X7626736Y-9308510D01*
X7626736Y-9958510D02*
X7626736Y-9880728D01*
X7548954Y-9880728D01*
X7548954Y-9958510D01*
X7626736Y-9958510D01*
X8076736Y-9308510D02*
X8076736Y-9230728D01*
X7998954Y-9230728D01*
X7998954Y-9308510D01*
X8076736Y-9308510D01*
X8076736Y-9958510D02*
X8076736Y-9880728D01*
X7998954Y-9880728D01*
X7998954Y-9958510D01*
X8076736Y-9958510D01*
D15*
X7161210Y-12504698D02*
X7221210Y-12444698D01*
X7161210Y-12384698D01*
X7101210Y-12444698D01*
X7161210Y-12504698D01*
X7661210Y-12714698D02*
X7721210Y-12654698D01*
X7661210Y-12594698D01*
X7601210Y-12654698D01*
X7661210Y-12714698D01*
X9066210Y-11702198D02*
X9126210Y-11642198D01*
X9066210Y-11582198D01*
X9006210Y-11642198D01*
X9066210Y-11702198D01*
X9066210Y-13607198D02*
X9126210Y-13547198D01*
X9066210Y-13487198D01*
X9006210Y-13547198D01*
X9066210Y-13607198D01*
X9566210Y-11912198D02*
X9626210Y-11852198D01*
X9566210Y-11792198D01*
X9506210Y-11852198D01*
X9566210Y-11912198D01*
X9566210Y-13817198D02*
X9626210Y-13757198D01*
X9566210Y-13697198D01*
X9506210Y-13757198D01*
X9566210Y-13817198D01*
X10971210Y-4464698D02*
X11031210Y-4404698D01*
X10971210Y-4344698D01*
X10911210Y-4404698D01*
X10971210Y-4464698D01*
X10971210Y-6369698D02*
X11031210Y-6309698D01*
X10971210Y-6249698D01*
X10911210Y-6309698D01*
X10971210Y-6369698D01*
X10971210Y-8274698D02*
X11031210Y-8214698D01*
X10971210Y-8154698D01*
X10911210Y-8214698D01*
X10971210Y-8274698D01*
X10971210Y-10179698D02*
X11031210Y-10119698D01*
X10971210Y-10059698D01*
X10911210Y-10119698D01*
X10971210Y-10179698D01*
X10971210Y-12084698D02*
X11031210Y-12024698D01*
X10971210Y-11964698D01*
X10911210Y-12024698D01*
X10971210Y-12084698D01*
X11471210Y-4674698D02*
X11531210Y-4614698D01*
X11471210Y-4554698D01*
X11411210Y-4614698D01*
X11471210Y-4674698D01*
X11471210Y-6579698D02*
X11531210Y-6519698D01*
X11471210Y-6459698D01*
X11411210Y-6519698D01*
X11471210Y-6579698D01*
X11471210Y-8484698D02*
X11531210Y-8424698D01*
X11471210Y-8364698D01*
X11411210Y-8424698D01*
X11471210Y-8484698D01*
X11471210Y-10389698D02*
X11531210Y-10329698D01*
X11471210Y-10269698D01*
X11411210Y-10329698D01*
X11471210Y-10389698D01*
X11471210Y-12294698D02*
X11531210Y-12234698D01*
X11471210Y-12174698D01*
X11411210Y-12234698D01*
X11471210Y-12294698D01*
X12876210Y-4224698D02*
X12936210Y-4164698D01*
X12876210Y-4104698D01*
X12816210Y-4164698D01*
X12876210Y-4224698D01*
X12876210Y-6129698D02*
X12936210Y-6069698D01*
X12876210Y-6009698D01*
X12816210Y-6069698D01*
X12876210Y-6129698D01*
X12876210Y-8034698D02*
X12936210Y-7974698D01*
X12876210Y-7914698D01*
X12816210Y-7974698D01*
X12876210Y-8034698D01*
X12876210Y-9939698D02*
X12936210Y-9879698D01*
X12876210Y-9819698D01*
X12816210Y-9879698D01*
X12876210Y-9939698D01*
X12876210Y-11844698D02*
X12936210Y-11784698D01*
X12876210Y-11724698D01*
X12816210Y-11784698D01*
X12876210Y-11844698D01*
X13376210Y-4434698D02*
X13436210Y-4374698D01*
X13376210Y-4314698D01*
X13316210Y-4374698D01*
X13376210Y-4434698D01*
X13376210Y-6339698D02*
X13436210Y-6279698D01*
X13376210Y-6219698D01*
X13316210Y-6279698D01*
X13376210Y-6339698D01*
X13376210Y-8244698D02*
X13436210Y-8184698D01*
X13376210Y-8124698D01*
X13316210Y-8184698D01*
X13376210Y-8244698D01*
X13376210Y-10149698D02*
X13436210Y-10089698D01*
X13376210Y-10029698D01*
X13316210Y-10089698D01*
X13376210Y-10149698D01*
X13376210Y-12054698D02*
X13436210Y-11994698D01*
X13376210Y-11934698D01*
X13316210Y-11994698D01*
X13376210Y-12054698D01*
X14781210Y-3924698D02*
X14841210Y-3864698D01*
X14781210Y-3804698D01*
X14721210Y-3864698D01*
X14781210Y-3924698D01*
X14781210Y-5829698D02*
X14841210Y-5769698D01*
X14781210Y-5709698D01*
X14721210Y-5769698D01*
X14781210Y-5829698D01*
X14781210Y-7734698D02*
X14841210Y-7674698D01*
X14781210Y-7614698D01*
X14721210Y-7674698D01*
X14781210Y-7734698D01*
X14781210Y-9639698D02*
X14841210Y-9579698D01*
X14781210Y-9519698D01*
X14721210Y-9579698D01*
X14781210Y-9639698D01*
X14781210Y-11544698D02*
X14841210Y-11484698D01*
X14781210Y-11424698D01*
X14721210Y-11484698D01*
X14781210Y-11544698D01*
X15281210Y-4134698D02*
X15341210Y-4074698D01*
X15281210Y-4014698D01*
X15221210Y-4074698D01*
X15281210Y-4134698D01*
X15281210Y-6039698D02*
X15341210Y-5979698D01*
X15281210Y-5919698D01*
X15221210Y-5979698D01*
X15281210Y-6039698D01*
X15281210Y-7944698D02*
X15341210Y-7884698D01*
X15281210Y-7824698D01*
X15221210Y-7884698D01*
X15281210Y-7944698D01*
X15281210Y-9849698D02*
X15341210Y-9789698D01*
X15281210Y-9729698D01*
X15221210Y-9789698D01*
X15281210Y-9849698D01*
X15281210Y-11754698D02*
X15341210Y-11694698D01*
X15281210Y-11634698D01*
X15221210Y-11694698D01*
X15281210Y-11754698D01*
X16686210Y-4077198D02*
X16746210Y-4017198D01*
X16686210Y-3957198D01*
X16626210Y-4017198D01*
X16686210Y-4077198D01*
X16686210Y-5982198D02*
X16746210Y-5922198D01*
X16686210Y-5862198D01*
X16626210Y-5922198D01*
X16686210Y-5982198D01*
X16686210Y-7887198D02*
X16746210Y-7827198D01*
X16686210Y-7767198D01*
X16626210Y-7827198D01*
X16686210Y-7887198D01*
X16686210Y-9792198D02*
X16746210Y-9732198D01*
X16686210Y-9672198D01*
X16626210Y-9732198D01*
X16686210Y-9792198D01*
X17186210Y-4287198D02*
X17246210Y-4227198D01*
X17186210Y-4167198D01*
X17126210Y-4227198D01*
X17186210Y-4287198D01*
X17186210Y-6192198D02*
X17246210Y-6132198D01*
X17186210Y-6072198D01*
X17126210Y-6132198D01*
X17186210Y-6192198D01*
X17186210Y-8097198D02*
X17246210Y-8037198D01*
X17186210Y-7977198D01*
X17126210Y-8037198D01*
X17186210Y-8097198D01*
X17186210Y-10002198D02*
X17246210Y-9942198D01*
X17186210Y-9882198D01*
X17126210Y-9942198D01*
X17186210Y-10002198D01*
X18591210Y-4529698D02*
X18651210Y-4469698D01*
X18591210Y-4409698D01*
X18531210Y-4469698D01*
X18591210Y-4529698D01*
X18591210Y-6434698D02*
X18651210Y-6374698D01*
X18591210Y-6314698D01*
X18531210Y-6374698D01*
X18591210Y-6434698D01*
X18591210Y-8339698D02*
X18651210Y-8279698D01*
X18591210Y-8219698D01*
X18531210Y-8279698D01*
X18591210Y-8339698D01*
X18591210Y-10244698D02*
X18651210Y-10184698D01*
X18591210Y-10124698D01*
X18531210Y-10184698D01*
X18591210Y-10244698D01*
X19091210Y-4739698D02*
X19151210Y-4679698D01*
X19091210Y-4619698D01*
X19031210Y-4679698D01*
X19091210Y-4739698D01*
X19091210Y-6644698D02*
X19151210Y-6584698D01*
X19091210Y-6524698D01*
X19031210Y-6584698D01*
X19091210Y-6644698D01*
X19091210Y-8549698D02*
X19151210Y-8489698D01*
X19091210Y-8429698D01*
X19031210Y-8489698D01*
X19091210Y-8549698D01*
X19091210Y-10454698D02*
X19151210Y-10394698D01*
X19091210Y-10334698D01*
X19031210Y-10394698D01*
X19091210Y-10454698D01*
X20496210Y-6921279D02*
X20556210Y-6861279D01*
X20496210Y-6801279D01*
X20436210Y-6861279D01*
X20496210Y-6921279D01*
X20496210Y-8826279D02*
X20556210Y-8766279D01*
X20496210Y-8706279D01*
X20436210Y-8766279D01*
X20496210Y-8826279D01*
X20496210Y-10731279D02*
X20556210Y-10671279D01*
X20496210Y-10611279D01*
X20436210Y-10671279D01*
X20496210Y-10731279D01*
X20498710Y-5018116D02*
X20558710Y-4958116D01*
X20498710Y-4898116D01*
X20438710Y-4958116D01*
X20498710Y-5018116D01*
X20996210Y-7131279D02*
X21056210Y-7071279D01*
X20996210Y-7011279D01*
X20936210Y-7071279D01*
X20996210Y-7131279D01*
X20996210Y-9036279D02*
X21056210Y-8976279D01*
X20996210Y-8916279D01*
X20936210Y-8976279D01*
X20996210Y-9036279D01*
X20996210Y-10941279D02*
X21056210Y-10881279D01*
X20996210Y-10821279D01*
X20936210Y-10881279D01*
X20996210Y-10941279D01*
X20998710Y-5228116D02*
X21058710Y-5168116D01*
X20998710Y-5108116D01*
X20938710Y-5168116D01*
X20998710Y-5228116D01*
D16*
X6704010Y-12704498D02*
X6856410Y-12856898D01*
X6856410Y-12704498D02*
X6704010Y-12856898D01*
X6856410Y-12780698D02*
G75*
G02*
X6704010Y-12780698I-76200J0D01*
G01*
X6704010Y-12780698D02*
G75*
G02*
X6856410Y-12780698I76200J0D01*
G01*
X7339010Y-12450498D02*
X7491410Y-12602898D01*
X7491410Y-12450498D02*
X7339010Y-12602898D01*
X7491410Y-12526698D02*
G75*
G02*
X7339010Y-12526698I-76200J0D01*
G01*
X7339010Y-12526698D02*
G75*
G02*
X7491410Y-12526698I76200J0D01*
G01*
X8609010Y-11901998D02*
X8761410Y-12054398D01*
X8761410Y-11901998D02*
X8609010Y-12054398D01*
X8761410Y-11978198D02*
G75*
G02*
X8609010Y-11978198I-76200J0D01*
G01*
X8609010Y-11978198D02*
G75*
G02*
X8761410Y-11978198I76200J0D01*
G01*
X8609010Y-13806998D02*
X8761410Y-13959398D01*
X8761410Y-13806998D02*
X8609010Y-13959398D01*
X8761410Y-13883198D02*
G75*
G02*
X8609010Y-13883198I-76200J0D01*
G01*
X8609010Y-13883198D02*
G75*
G02*
X8761410Y-13883198I76200J0D01*
G01*
X9244010Y-11647998D02*
X9396410Y-11800398D01*
X9396410Y-11647998D02*
X9244010Y-11800398D01*
X9396410Y-11724198D02*
G75*
G02*
X9244010Y-11724198I-76200J0D01*
G01*
X9244010Y-11724198D02*
G75*
G02*
X9396410Y-11724198I76200J0D01*
G01*
X9244010Y-13552998D02*
X9396410Y-13705398D01*
X9396410Y-13552998D02*
X9244010Y-13705398D01*
X9396410Y-13629198D02*
G75*
G02*
X9244010Y-13629198I-76200J0D01*
G01*
X9244010Y-13629198D02*
G75*
G02*
X9396410Y-13629198I76200J0D01*
G01*
X10514010Y-4664498D02*
X10666410Y-4816898D01*
X10666410Y-4664498D02*
X10514010Y-4816898D01*
X10666410Y-4740698D02*
G75*
G02*
X10514010Y-4740698I-76200J0D01*
G01*
X10514010Y-4740698D02*
G75*
G02*
X10666410Y-4740698I76200J0D01*
G01*
X10514010Y-6569498D02*
X10666410Y-6721898D01*
X10666410Y-6569498D02*
X10514010Y-6721898D01*
X10666410Y-6645698D02*
G75*
G02*
X10514010Y-6645698I-76200J0D01*
G01*
X10514010Y-6645698D02*
G75*
G02*
X10666410Y-6645698I76200J0D01*
G01*
X10514010Y-8474498D02*
X10666410Y-8626898D01*
X10666410Y-8474498D02*
X10514010Y-8626898D01*
X10666410Y-8550698D02*
G75*
G02*
X10514010Y-8550698I-76200J0D01*
G01*
X10514010Y-8550698D02*
G75*
G02*
X10666410Y-8550698I76200J0D01*
G01*
X10514010Y-10379498D02*
X10666410Y-10531898D01*
X10666410Y-10379498D02*
X10514010Y-10531898D01*
X10666410Y-10455698D02*
G75*
G02*
X10514010Y-10455698I-76200J0D01*
G01*
X10514010Y-10455698D02*
G75*
G02*
X10666410Y-10455698I76200J0D01*
G01*
X10514010Y-12284498D02*
X10666410Y-12436898D01*
X10666410Y-12284498D02*
X10514010Y-12436898D01*
X10666410Y-12360698D02*
G75*
G02*
X10514010Y-12360698I-76200J0D01*
G01*
X10514010Y-12360698D02*
G75*
G02*
X10666410Y-12360698I76200J0D01*
G01*
X11149010Y-4410498D02*
X11301410Y-4562898D01*
X11301410Y-4410498D02*
X11149010Y-4562898D01*
X11301410Y-4486698D02*
G75*
G02*
X11149010Y-4486698I-76200J0D01*
G01*
X11149010Y-4486698D02*
G75*
G02*
X11301410Y-4486698I76200J0D01*
G01*
X11149010Y-6315498D02*
X11301410Y-6467898D01*
X11301410Y-6315498D02*
X11149010Y-6467898D01*
X11301410Y-6391698D02*
G75*
G02*
X11149010Y-6391698I-76200J0D01*
G01*
X11149010Y-6391698D02*
G75*
G02*
X11301410Y-6391698I76200J0D01*
G01*
X11149010Y-8220498D02*
X11301410Y-8372898D01*
X11301410Y-8220498D02*
X11149010Y-8372898D01*
X11301410Y-8296698D02*
G75*
G02*
X11149010Y-8296698I-76200J0D01*
G01*
X11149010Y-8296698D02*
G75*
G02*
X11301410Y-8296698I76200J0D01*
G01*
X11149010Y-10125498D02*
X11301410Y-10277898D01*
X11301410Y-10125498D02*
X11149010Y-10277898D01*
X11301410Y-10201698D02*
G75*
G02*
X11149010Y-10201698I-76200J0D01*
G01*
X11149010Y-10201698D02*
G75*
G02*
X11301410Y-10201698I76200J0D01*
G01*
X11149010Y-12030498D02*
X11301410Y-12182898D01*
X11301410Y-12030498D02*
X11149010Y-12182898D01*
X11301410Y-12106698D02*
G75*
G02*
X11149010Y-12106698I-76200J0D01*
G01*
X11149010Y-12106698D02*
G75*
G02*
X11301410Y-12106698I76200J0D01*
G01*
X12419010Y-4424498D02*
X12571410Y-4576898D01*
X12571410Y-4424498D02*
X12419010Y-4576898D01*
X12571410Y-4500698D02*
G75*
G02*
X12419010Y-4500698I-76200J0D01*
G01*
X12419010Y-4500698D02*
G75*
G02*
X12571410Y-4500698I76200J0D01*
G01*
X12419010Y-6329498D02*
X12571410Y-6481898D01*
X12571410Y-6329498D02*
X12419010Y-6481898D01*
X12571410Y-6405698D02*
G75*
G02*
X12419010Y-6405698I-76200J0D01*
G01*
X12419010Y-6405698D02*
G75*
G02*
X12571410Y-6405698I76200J0D01*
G01*
X12419010Y-8234498D02*
X12571410Y-8386898D01*
X12571410Y-8234498D02*
X12419010Y-8386898D01*
X12571410Y-8310698D02*
G75*
G02*
X12419010Y-8310698I-76200J0D01*
G01*
X12419010Y-8310698D02*
G75*
G02*
X12571410Y-8310698I76200J0D01*
G01*
X12419010Y-10139498D02*
X12571410Y-10291898D01*
X12571410Y-10139498D02*
X12419010Y-10291898D01*
X12571410Y-10215698D02*
G75*
G02*
X12419010Y-10215698I-76200J0D01*
G01*
X12419010Y-10215698D02*
G75*
G02*
X12571410Y-10215698I76200J0D01*
G01*
X12419010Y-12044498D02*
X12571410Y-12196898D01*
X12571410Y-12044498D02*
X12419010Y-12196898D01*
X12571410Y-12120698D02*
G75*
G02*
X12419010Y-12120698I-76200J0D01*
G01*
X12419010Y-12120698D02*
G75*
G02*
X12571410Y-12120698I76200J0D01*
G01*
X13054010Y-4170498D02*
X13206410Y-4322898D01*
X13206410Y-4170498D02*
X13054010Y-4322898D01*
X13206410Y-4246698D02*
G75*
G02*
X13054010Y-4246698I-76200J0D01*
G01*
X13054010Y-4246698D02*
G75*
G02*
X13206410Y-4246698I76200J0D01*
G01*
X13054010Y-6075498D02*
X13206410Y-6227898D01*
X13206410Y-6075498D02*
X13054010Y-6227898D01*
X13206410Y-6151698D02*
G75*
G02*
X13054010Y-6151698I-76200J0D01*
G01*
X13054010Y-6151698D02*
G75*
G02*
X13206410Y-6151698I76200J0D01*
G01*
X13054010Y-7980498D02*
X13206410Y-8132898D01*
X13206410Y-7980498D02*
X13054010Y-8132898D01*
X13206410Y-8056698D02*
G75*
G02*
X13054010Y-8056698I-76200J0D01*
G01*
X13054010Y-8056698D02*
G75*
G02*
X13206410Y-8056698I76200J0D01*
G01*
X13054010Y-9885498D02*
X13206410Y-10037898D01*
X13206410Y-9885498D02*
X13054010Y-10037898D01*
X13206410Y-9961698D02*
G75*
G02*
X13054010Y-9961698I-76200J0D01*
G01*
X13054010Y-9961698D02*
G75*
G02*
X13206410Y-9961698I76200J0D01*
G01*
X13054010Y-11790498D02*
X13206410Y-11942898D01*
X13206410Y-11790498D02*
X13054010Y-11942898D01*
X13206410Y-11866698D02*
G75*
G02*
X13054010Y-11866698I-76200J0D01*
G01*
X13054010Y-11866698D02*
G75*
G02*
X13206410Y-11866698I76200J0D01*
G01*
X14324010Y-4124498D02*
X14476410Y-4276898D01*
X14476410Y-4124498D02*
X14324010Y-4276898D01*
X14476410Y-4200698D02*
G75*
G02*
X14324010Y-4200698I-76200J0D01*
G01*
X14324010Y-4200698D02*
G75*
G02*
X14476410Y-4200698I76200J0D01*
G01*
X14324010Y-6029498D02*
X14476410Y-6181898D01*
X14476410Y-6029498D02*
X14324010Y-6181898D01*
X14476410Y-6105698D02*
G75*
G02*
X14324010Y-6105698I-76200J0D01*
G01*
X14324010Y-6105698D02*
G75*
G02*
X14476410Y-6105698I76200J0D01*
G01*
X14324010Y-7934498D02*
X14476410Y-8086898D01*
X14476410Y-7934498D02*
X14324010Y-8086898D01*
X14476410Y-8010698D02*
G75*
G02*
X14324010Y-8010698I-76200J0D01*
G01*
X14324010Y-8010698D02*
G75*
G02*
X14476410Y-8010698I76200J0D01*
G01*
X14324010Y-9839498D02*
X14476410Y-9991898D01*
X14476410Y-9839498D02*
X14324010Y-9991898D01*
X14476410Y-9915698D02*
G75*
G02*
X14324010Y-9915698I-76200J0D01*
G01*
X14324010Y-9915698D02*
G75*
G02*
X14476410Y-9915698I76200J0D01*
G01*
X14324010Y-11744498D02*
X14476410Y-11896898D01*
X14476410Y-11744498D02*
X14324010Y-11896898D01*
X14476410Y-11820698D02*
G75*
G02*
X14324010Y-11820698I-76200J0D01*
G01*
X14324010Y-11820698D02*
G75*
G02*
X14476410Y-11820698I76200J0D01*
G01*
X14959010Y-3870498D02*
X15111410Y-4022898D01*
X15111410Y-3870498D02*
X14959010Y-4022898D01*
X15111410Y-3946698D02*
G75*
G02*
X14959010Y-3946698I-76200J0D01*
G01*
X14959010Y-3946698D02*
G75*
G02*
X15111410Y-3946698I76200J0D01*
G01*
X14959010Y-5775498D02*
X15111410Y-5927898D01*
X15111410Y-5775498D02*
X14959010Y-5927898D01*
X15111410Y-5851698D02*
G75*
G02*
X14959010Y-5851698I-76200J0D01*
G01*
X14959010Y-5851698D02*
G75*
G02*
X15111410Y-5851698I76200J0D01*
G01*
X14959010Y-7680498D02*
X15111410Y-7832898D01*
X15111410Y-7680498D02*
X14959010Y-7832898D01*
X15111410Y-7756698D02*
G75*
G02*
X14959010Y-7756698I-76200J0D01*
G01*
X14959010Y-7756698D02*
G75*
G02*
X15111410Y-7756698I76200J0D01*
G01*
X14959010Y-9585498D02*
X15111410Y-9737898D01*
X15111410Y-9585498D02*
X14959010Y-9737898D01*
X15111410Y-9661698D02*
G75*
G02*
X14959010Y-9661698I-76200J0D01*
G01*
X14959010Y-9661698D02*
G75*
G02*
X15111410Y-9661698I76200J0D01*
G01*
X14959010Y-11490498D02*
X15111410Y-11642898D01*
X15111410Y-11490498D02*
X14959010Y-11642898D01*
X15111410Y-11566698D02*
G75*
G02*
X14959010Y-11566698I-76200J0D01*
G01*
X14959010Y-11566698D02*
G75*
G02*
X15111410Y-11566698I76200J0D01*
G01*
X16229010Y-4276998D02*
X16381410Y-4429398D01*
X16381410Y-4276998D02*
X16229010Y-4429398D01*
X16381410Y-4353198D02*
G75*
G02*
X16229010Y-4353198I-76200J0D01*
G01*
X16229010Y-4353198D02*
G75*
G02*
X16381410Y-4353198I76200J0D01*
G01*
X16229010Y-6181998D02*
X16381410Y-6334398D01*
X16381410Y-6181998D02*
X16229010Y-6334398D01*
X16381410Y-6258198D02*
G75*
G02*
X16229010Y-6258198I-76200J0D01*
G01*
X16229010Y-6258198D02*
G75*
G02*
X16381410Y-6258198I76200J0D01*
G01*
X16229010Y-8086998D02*
X16381410Y-8239398D01*
X16381410Y-8086998D02*
X16229010Y-8239398D01*
X16381410Y-8163198D02*
G75*
G02*
X16229010Y-8163198I-76200J0D01*
G01*
X16229010Y-8163198D02*
G75*
G02*
X16381410Y-8163198I76200J0D01*
G01*
X16229010Y-9991998D02*
X16381410Y-10144398D01*
X16381410Y-9991998D02*
X16229010Y-10144398D01*
X16381410Y-10068198D02*
G75*
G02*
X16229010Y-10068198I-76200J0D01*
G01*
X16229010Y-10068198D02*
G75*
G02*
X16381410Y-10068198I76200J0D01*
G01*
X16864010Y-4022998D02*
X17016410Y-4175398D01*
X17016410Y-4022998D02*
X16864010Y-4175398D01*
X17016410Y-4099198D02*
G75*
G02*
X16864010Y-4099198I-76200J0D01*
G01*
X16864010Y-4099198D02*
G75*
G02*
X17016410Y-4099198I76200J0D01*
G01*
X16864010Y-5927998D02*
X17016410Y-6080398D01*
X17016410Y-5927998D02*
X16864010Y-6080398D01*
X17016410Y-6004198D02*
G75*
G02*
X16864010Y-6004198I-76200J0D01*
G01*
X16864010Y-6004198D02*
G75*
G02*
X17016410Y-6004198I76200J0D01*
G01*
X16864010Y-7832998D02*
X17016410Y-7985398D01*
X17016410Y-7832998D02*
X16864010Y-7985398D01*
X17016410Y-7909198D02*
G75*
G02*
X16864010Y-7909198I-76200J0D01*
G01*
X16864010Y-7909198D02*
G75*
G02*
X17016410Y-7909198I76200J0D01*
G01*
X16864010Y-9737998D02*
X17016410Y-9890398D01*
X17016410Y-9737998D02*
X16864010Y-9890398D01*
X17016410Y-9814198D02*
G75*
G02*
X16864010Y-9814198I-76200J0D01*
G01*
X16864010Y-9814198D02*
G75*
G02*
X17016410Y-9814198I76200J0D01*
G01*
X18134010Y-4729498D02*
X18286410Y-4881898D01*
X18286410Y-4729498D02*
X18134010Y-4881898D01*
X18286410Y-4805698D02*
G75*
G02*
X18134010Y-4805698I-76200J0D01*
G01*
X18134010Y-4805698D02*
G75*
G02*
X18286410Y-4805698I76200J0D01*
G01*
X18134010Y-6634498D02*
X18286410Y-6786898D01*
X18286410Y-6634498D02*
X18134010Y-6786898D01*
X18286410Y-6710698D02*
G75*
G02*
X18134010Y-6710698I-76200J0D01*
G01*
X18134010Y-6710698D02*
G75*
G02*
X18286410Y-6710698I76200J0D01*
G01*
X18134010Y-8539498D02*
X18286410Y-8691898D01*
X18286410Y-8539498D02*
X18134010Y-8691898D01*
X18286410Y-8615698D02*
G75*
G02*
X18134010Y-8615698I-76200J0D01*
G01*
X18134010Y-8615698D02*
G75*
G02*
X18286410Y-8615698I76200J0D01*
G01*
X18134010Y-10444498D02*
X18286410Y-10596898D01*
X18286410Y-10444498D02*
X18134010Y-10596898D01*
X18286410Y-10520698D02*
G75*
G02*
X18134010Y-10520698I-76200J0D01*
G01*
X18134010Y-10520698D02*
G75*
G02*
X18286410Y-10520698I76200J0D01*
G01*
X18769010Y-4475498D02*
X18921410Y-4627898D01*
X18921410Y-4475498D02*
X18769010Y-4627898D01*
X18921410Y-4551698D02*
G75*
G02*
X18769010Y-4551698I-76200J0D01*
G01*
X18769010Y-4551698D02*
G75*
G02*
X18921410Y-4551698I76200J0D01*
G01*
X18769010Y-6380498D02*
X18921410Y-6532898D01*
X18921410Y-6380498D02*
X18769010Y-6532898D01*
X18921410Y-6456698D02*
G75*
G02*
X18769010Y-6456698I-76200J0D01*
G01*
X18769010Y-6456698D02*
G75*
G02*
X18921410Y-6456698I76200J0D01*
G01*
X18769010Y-8285498D02*
X18921410Y-8437898D01*
X18921410Y-8285498D02*
X18769010Y-8437898D01*
X18921410Y-8361698D02*
G75*
G02*
X18769010Y-8361698I-76200J0D01*
G01*
X18769010Y-8361698D02*
G75*
G02*
X18921410Y-8361698I76200J0D01*
G01*
X18769010Y-10190498D02*
X18921410Y-10342898D01*
X18921410Y-10190498D02*
X18769010Y-10342898D01*
X18921410Y-10266698D02*
G75*
G02*
X18769010Y-10266698I-76200J0D01*
G01*
X18769010Y-10266698D02*
G75*
G02*
X18921410Y-10266698I76200J0D01*
G01*
X20039010Y-7121079D02*
X20191410Y-7273479D01*
X20191410Y-7121079D02*
X20039010Y-7273479D01*
X20191410Y-7197279D02*
G75*
G02*
X20039010Y-7197279I-76200J0D01*
G01*
X20039010Y-7197279D02*
G75*
G02*
X20191410Y-7197279I76200J0D01*
G01*
X20039010Y-9026079D02*
X20191410Y-9178479D01*
X20191410Y-9026079D02*
X20039010Y-9178479D01*
X20191410Y-9102279D02*
G75*
G02*
X20039010Y-9102279I-76200J0D01*
G01*
X20039010Y-9102279D02*
G75*
G02*
X20191410Y-9102279I76200J0D01*
G01*
X20039010Y-10931079D02*
X20191410Y-11083479D01*
X20191410Y-10931079D02*
X20039010Y-11083479D01*
X20191410Y-11007279D02*
G75*
G02*
X20039010Y-11007279I-76200J0D01*
G01*
X20039010Y-11007279D02*
G75*
G02*
X20191410Y-11007279I76200J0D01*
G01*
X20041510Y-5217916D02*
X20193910Y-5370316D01*
X20193910Y-5217916D02*
X20041510Y-5370316D01*
X20193910Y-5294116D02*
G75*
G02*
X20041510Y-5294116I-76200J0D01*
G01*
X20041510Y-5294116D02*
G75*
G02*
X20193910Y-5294116I76200J0D01*
G01*
X20674010Y-6867079D02*
X20826410Y-7019479D01*
X20826410Y-6867079D02*
X20674010Y-7019479D01*
X20826410Y-6943279D02*
G75*
G02*
X20674010Y-6943279I-76200J0D01*
G01*
X20674010Y-6943279D02*
G75*
G02*
X20826410Y-6943279I76200J0D01*
G01*
X20674010Y-8772079D02*
X20826410Y-8924479D01*
X20826410Y-8772079D02*
X20674010Y-8924479D01*
X20826410Y-8848279D02*
G75*
G02*
X20674010Y-8848279I-76200J0D01*
G01*
X20674010Y-8848279D02*
G75*
G02*
X20826410Y-8848279I76200J0D01*
G01*
X20674010Y-10677079D02*
X20826410Y-10829479D01*
X20826410Y-10677079D02*
X20674010Y-10829479D01*
X20826410Y-10753279D02*
G75*
G02*
X20674010Y-10753279I-76200J0D01*
G01*
X20674010Y-10753279D02*
G75*
G02*
X20826410Y-10753279I76200J0D01*
G01*
X20676510Y-4963916D02*
X20828910Y-5116316D01*
X20828910Y-4963916D02*
X20676510Y-5116316D01*
X20828910Y-5040116D02*
G75*
G02*
X20676510Y-5040116I-76200J0D01*
G01*
X20676510Y-5040116D02*
G75*
G02*
X20828910Y-5040116I76200J0D01*
G01*
D11*
X6381249Y-15600027D02*
X6381249Y-15400027D01*
X6381249Y-15400027D02*
X6428868Y-15400027D01*
X6428868Y-15400027D02*
X6457440Y-15409550D01*
X6457440Y-15409550D02*
X6476487Y-15428598D01*
X6476487Y-15428598D02*
X6486011Y-15447646D01*
X6486011Y-15447646D02*
X6495535Y-15485741D01*
X6495535Y-15485741D02*
X6495535Y-15514312D01*
X6495535Y-15514312D02*
X6486011Y-15552407D01*
X6486011Y-15552407D02*
X6476487Y-15571455D01*
X6476487Y-15571455D02*
X6457440Y-15590503D01*
X6457440Y-15590503D02*
X6428868Y-15600027D01*
X6428868Y-15600027D02*
X6381249Y-15600027D01*
X6581249Y-15600027D02*
X6581249Y-15466693D01*
X6581249Y-15504788D02*
X6590773Y-15485741D01*
X6590773Y-15485741D02*
X6600297Y-15476217D01*
X6600297Y-15476217D02*
X6619344Y-15466693D01*
X6619344Y-15466693D02*
X6638392Y-15466693D01*
X6705059Y-15600027D02*
X6705059Y-15466693D01*
X6705059Y-15400027D02*
X6695535Y-15409550D01*
X6695535Y-15409550D02*
X6705059Y-15419074D01*
X6705059Y-15419074D02*
X6714583Y-15409550D01*
X6714583Y-15409550D02*
X6705059Y-15400027D01*
X6705059Y-15400027D02*
X6705059Y-15419074D01*
X6828868Y-15600027D02*
X6809821Y-15590503D01*
X6809821Y-15590503D02*
X6800297Y-15571455D01*
X6800297Y-15571455D02*
X6800297Y-15400027D01*
X6933630Y-15600027D02*
X6914583Y-15590503D01*
X6914583Y-15590503D02*
X6905059Y-15571455D01*
X6905059Y-15571455D02*
X6905059Y-15400027D01*
X7162202Y-15600027D02*
X7162202Y-15400027D01*
X7162202Y-15400027D02*
X7228868Y-15542884D01*
X7228868Y-15542884D02*
X7295535Y-15400027D01*
X7295535Y-15400027D02*
X7295535Y-15600027D01*
X7476487Y-15600027D02*
X7476487Y-15495265D01*
X7476487Y-15495265D02*
X7466964Y-15476217D01*
X7466964Y-15476217D02*
X7447916Y-15466693D01*
X7447916Y-15466693D02*
X7409821Y-15466693D01*
X7409821Y-15466693D02*
X7390773Y-15476217D01*
X7476487Y-15590503D02*
X7457440Y-15600027D01*
X7457440Y-15600027D02*
X7409821Y-15600027D01*
X7409821Y-15600027D02*
X7390773Y-15590503D01*
X7390773Y-15590503D02*
X7381249Y-15571455D01*
X7381249Y-15571455D02*
X7381249Y-15552407D01*
X7381249Y-15552407D02*
X7390773Y-15533360D01*
X7390773Y-15533360D02*
X7409821Y-15523836D01*
X7409821Y-15523836D02*
X7457440Y-15523836D01*
X7457440Y-15523836D02*
X7476487Y-15514312D01*
X7571725Y-15466693D02*
X7571725Y-15666693D01*
X7571725Y-15476217D02*
X7590773Y-15466693D01*
X7590773Y-15466693D02*
X7628868Y-15466693D01*
X7628868Y-15466693D02*
X7647916Y-15476217D01*
X7647916Y-15476217D02*
X7657440Y-15485741D01*
X7657440Y-15485741D02*
X7666964Y-15504788D01*
X7666964Y-15504788D02*
X7666964Y-15561931D01*
X7666964Y-15561931D02*
X7657440Y-15580979D01*
X7657440Y-15580979D02*
X7647916Y-15590503D01*
X7647916Y-15590503D02*
X7628868Y-15600027D01*
X7628868Y-15600027D02*
X7590773Y-15600027D01*
X7590773Y-15600027D02*
X7571725Y-15590503D01*
X7752678Y-15580979D02*
X7762202Y-15590503D01*
X7762202Y-15590503D02*
X7752678Y-15600027D01*
X7752678Y-15600027D02*
X7743154Y-15590503D01*
X7743154Y-15590503D02*
X7752678Y-15580979D01*
X7752678Y-15580979D02*
X7752678Y-15600027D01*
X7752678Y-15476217D02*
X7762202Y-15485741D01*
X7762202Y-15485741D02*
X7752678Y-15495265D01*
X7752678Y-15495265D02*
X7743154Y-15485741D01*
X7743154Y-15485741D02*
X7752678Y-15476217D01*
X7752678Y-15476217D02*
X7752678Y-15495265D01*
D12*
X6050472Y-15893543D02*
X6120472Y-15963543D01*
X6120472Y-15893543D02*
X6050472Y-15963543D01*
D11*
X6419344Y-15820027D02*
X6438392Y-15820027D01*
X6438392Y-15820027D02*
X6457440Y-15829550D01*
X6457440Y-15829550D02*
X6466964Y-15839074D01*
X6466964Y-15839074D02*
X6476487Y-15858122D01*
X6476487Y-15858122D02*
X6486011Y-15896217D01*
X6486011Y-15896217D02*
X6486011Y-15943836D01*
X6486011Y-15943836D02*
X6476487Y-15981931D01*
X6476487Y-15981931D02*
X6466964Y-16000979D01*
X6466964Y-16000979D02*
X6457440Y-16010503D01*
X6457440Y-16010503D02*
X6438392Y-16020027D01*
X6438392Y-16020027D02*
X6419344Y-16020027D01*
X6419344Y-16020027D02*
X6400297Y-16010503D01*
X6400297Y-16010503D02*
X6390773Y-16000979D01*
X6390773Y-16000979D02*
X6381249Y-15981931D01*
X6381249Y-15981931D02*
X6371725Y-15943836D01*
X6371725Y-15943836D02*
X6371725Y-15896217D01*
X6371725Y-15896217D02*
X6381249Y-15858122D01*
X6381249Y-15858122D02*
X6390773Y-15839074D01*
X6390773Y-15839074D02*
X6400297Y-15829550D01*
X6400297Y-15829550D02*
X6419344Y-15820027D01*
X6571725Y-16000979D02*
X6581249Y-16010503D01*
X6581249Y-16010503D02*
X6571725Y-16020027D01*
X6571725Y-16020027D02*
X6562202Y-16010503D01*
X6562202Y-16010503D02*
X6571725Y-16000979D01*
X6571725Y-16000979D02*
X6571725Y-16020027D01*
X6647916Y-15820027D02*
X6781249Y-15820027D01*
X6781249Y-15820027D02*
X6695535Y-16020027D01*
X6895535Y-15820027D02*
X6914583Y-15820027D01*
X6914583Y-15820027D02*
X6933630Y-15829550D01*
X6933630Y-15829550D02*
X6943154Y-15839074D01*
X6943154Y-15839074D02*
X6952678Y-15858122D01*
X6952678Y-15858122D02*
X6962202Y-15896217D01*
X6962202Y-15896217D02*
X6962202Y-15943836D01*
X6962202Y-15943836D02*
X6952678Y-15981931D01*
X6952678Y-15981931D02*
X6943154Y-16000979D01*
X6943154Y-16000979D02*
X6933630Y-16010503D01*
X6933630Y-16010503D02*
X6914583Y-16020027D01*
X6914583Y-16020027D02*
X6895535Y-16020027D01*
X6895535Y-16020027D02*
X6876487Y-16010503D01*
X6876487Y-16010503D02*
X6866964Y-16000979D01*
X6866964Y-16000979D02*
X6857440Y-15981931D01*
X6857440Y-15981931D02*
X6847916Y-15943836D01*
X6847916Y-15943836D02*
X6847916Y-15896217D01*
X6847916Y-15896217D02*
X6857440Y-15858122D01*
X6857440Y-15858122D02*
X6866964Y-15839074D01*
X6866964Y-15839074D02*
X6876487Y-15829550D01*
X6876487Y-15829550D02*
X6895535Y-15820027D01*
X7086011Y-15820027D02*
X7105059Y-15820027D01*
X7105059Y-15820027D02*
X7124106Y-15829550D01*
X7124106Y-15829550D02*
X7133630Y-15839074D01*
X7133630Y-15839074D02*
X7143154Y-15858122D01*
X7143154Y-15858122D02*
X7152678Y-15896217D01*
X7152678Y-15896217D02*
X7152678Y-15943836D01*
X7152678Y-15943836D02*
X7143154Y-15981931D01*
X7143154Y-15981931D02*
X7133630Y-16000979D01*
X7133630Y-16000979D02*
X7124106Y-16010503D01*
X7124106Y-16010503D02*
X7105059Y-16020027D01*
X7105059Y-16020027D02*
X7086011Y-16020027D01*
X7086011Y-16020027D02*
X7066964Y-16010503D01*
X7066964Y-16010503D02*
X7057440Y-16000979D01*
X7057440Y-16000979D02*
X7047916Y-15981931D01*
X7047916Y-15981931D02*
X7038392Y-15943836D01*
X7038392Y-15943836D02*
X7038392Y-15896217D01*
X7038392Y-15896217D02*
X7047916Y-15858122D01*
X7047916Y-15858122D02*
X7057440Y-15839074D01*
X7057440Y-15839074D02*
X7066964Y-15829550D01*
X7066964Y-15829550D02*
X7086011Y-15820027D01*
X7238392Y-16020027D02*
X7238392Y-15886693D01*
X7238392Y-15905741D02*
X7247916Y-15896217D01*
X7247916Y-15896217D02*
X7266964Y-15886693D01*
X7266964Y-15886693D02*
X7295535Y-15886693D01*
X7295535Y-15886693D02*
X7314583Y-15896217D01*
X7314583Y-15896217D02*
X7324106Y-15915265D01*
X7324106Y-15915265D02*
X7324106Y-16020027D01*
X7324106Y-15915265D02*
X7333630Y-15896217D01*
X7333630Y-15896217D02*
X7352678Y-15886693D01*
X7352678Y-15886693D02*
X7381249Y-15886693D01*
X7381249Y-15886693D02*
X7400297Y-15896217D01*
X7400297Y-15896217D02*
X7409821Y-15915265D01*
X7409821Y-15915265D02*
X7409821Y-16020027D01*
X7505059Y-16020027D02*
X7505059Y-15886693D01*
X7505059Y-15905741D02*
X7514583Y-15896217D01*
X7514583Y-15896217D02*
X7533630Y-15886693D01*
X7533630Y-15886693D02*
X7562202Y-15886693D01*
X7562202Y-15886693D02*
X7581249Y-15896217D01*
X7581249Y-15896217D02*
X7590773Y-15915265D01*
X7590773Y-15915265D02*
X7590773Y-16020027D01*
X7590773Y-15915265D02*
X7600297Y-15896217D01*
X7600297Y-15896217D02*
X7619345Y-15886693D01*
X7619345Y-15886693D02*
X7647916Y-15886693D01*
X7647916Y-15886693D02*
X7666964Y-15896217D01*
X7666964Y-15896217D02*
X7676487Y-15915265D01*
X7676487Y-15915265D02*
X7676487Y-16020027D01*
X8066964Y-15810503D02*
X7895535Y-16067646D01*
X8324107Y-15820027D02*
X8343154Y-15820027D01*
X8343154Y-15820027D02*
X8362202Y-15829550D01*
X8362202Y-15829550D02*
X8371726Y-15839074D01*
X8371726Y-15839074D02*
X8381249Y-15858122D01*
X8381249Y-15858122D02*
X8390773Y-15896217D01*
X8390773Y-15896217D02*
X8390773Y-15943836D01*
X8390773Y-15943836D02*
X8381249Y-15981931D01*
X8381249Y-15981931D02*
X8371726Y-16000979D01*
X8371726Y-16000979D02*
X8362202Y-16010503D01*
X8362202Y-16010503D02*
X8343154Y-16020027D01*
X8343154Y-16020027D02*
X8324107Y-16020027D01*
X8324107Y-16020027D02*
X8305059Y-16010503D01*
X8305059Y-16010503D02*
X8295535Y-16000979D01*
X8295535Y-16000979D02*
X8286011Y-15981931D01*
X8286011Y-15981931D02*
X8276488Y-15943836D01*
X8276488Y-15943836D02*
X8276488Y-15896217D01*
X8276488Y-15896217D02*
X8286011Y-15858122D01*
X8286011Y-15858122D02*
X8295535Y-15839074D01*
X8295535Y-15839074D02*
X8305059Y-15829550D01*
X8305059Y-15829550D02*
X8324107Y-15820027D01*
X8476488Y-16000979D02*
X8486011Y-16010503D01*
X8486011Y-16010503D02*
X8476488Y-16020027D01*
X8476488Y-16020027D02*
X8466964Y-16010503D01*
X8466964Y-16010503D02*
X8476488Y-16000979D01*
X8476488Y-16000979D02*
X8476488Y-16020027D01*
X8609821Y-15820027D02*
X8628869Y-15820027D01*
X8628869Y-15820027D02*
X8647916Y-15829550D01*
X8647916Y-15829550D02*
X8657440Y-15839074D01*
X8657440Y-15839074D02*
X8666964Y-15858122D01*
X8666964Y-15858122D02*
X8676488Y-15896217D01*
X8676488Y-15896217D02*
X8676488Y-15943836D01*
X8676488Y-15943836D02*
X8666964Y-15981931D01*
X8666964Y-15981931D02*
X8657440Y-16000979D01*
X8657440Y-16000979D02*
X8647916Y-16010503D01*
X8647916Y-16010503D02*
X8628869Y-16020027D01*
X8628869Y-16020027D02*
X8609821Y-16020027D01*
X8609821Y-16020027D02*
X8590773Y-16010503D01*
X8590773Y-16010503D02*
X8581250Y-16000979D01*
X8581250Y-16000979D02*
X8571726Y-15981931D01*
X8571726Y-15981931D02*
X8562202Y-15943836D01*
X8562202Y-15943836D02*
X8562202Y-15896217D01*
X8562202Y-15896217D02*
X8571726Y-15858122D01*
X8571726Y-15858122D02*
X8581250Y-15839074D01*
X8581250Y-15839074D02*
X8590773Y-15829550D01*
X8590773Y-15829550D02*
X8609821Y-15820027D01*
X8752678Y-15839074D02*
X8762202Y-15829550D01*
X8762202Y-15829550D02*
X8781250Y-15820027D01*
X8781250Y-15820027D02*
X8828869Y-15820027D01*
X8828869Y-15820027D02*
X8847916Y-15829550D01*
X8847916Y-15829550D02*
X8857440Y-15839074D01*
X8857440Y-15839074D02*
X8866964Y-15858122D01*
X8866964Y-15858122D02*
X8866964Y-15877169D01*
X8866964Y-15877169D02*
X8857440Y-15905741D01*
X8857440Y-15905741D02*
X8743154Y-16020027D01*
X8743154Y-16020027D02*
X8866964Y-16020027D01*
X8933631Y-15820027D02*
X9066964Y-15820027D01*
X9066964Y-15820027D02*
X8981250Y-16020027D01*
X9228869Y-15820027D02*
X9190773Y-15820027D01*
X9190773Y-15820027D02*
X9171726Y-15829550D01*
X9171726Y-15829550D02*
X9162202Y-15839074D01*
X9162202Y-15839074D02*
X9143154Y-15867646D01*
X9143154Y-15867646D02*
X9133631Y-15905741D01*
X9133631Y-15905741D02*
X9133631Y-15981931D01*
X9133631Y-15981931D02*
X9143154Y-16000979D01*
X9143154Y-16000979D02*
X9152678Y-16010503D01*
X9152678Y-16010503D02*
X9171726Y-16020027D01*
X9171726Y-16020027D02*
X9209821Y-16020027D01*
X9209821Y-16020027D02*
X9228869Y-16010503D01*
X9228869Y-16010503D02*
X9238392Y-16000979D01*
X9238392Y-16000979D02*
X9247916Y-15981931D01*
X9247916Y-15981931D02*
X9247916Y-15934312D01*
X9247916Y-15934312D02*
X9238392Y-15915265D01*
X9238392Y-15915265D02*
X9228869Y-15905741D01*
X9228869Y-15905741D02*
X9209821Y-15896217D01*
X9209821Y-15896217D02*
X9171726Y-15896217D01*
X9171726Y-15896217D02*
X9152678Y-15905741D01*
X9152678Y-15905741D02*
X9143154Y-15915265D01*
X9143154Y-15915265D02*
X9133631Y-15934312D01*
X9324107Y-15820027D02*
X9324107Y-15858122D01*
X9400297Y-15820027D02*
X9400297Y-15858122D01*
X9695535Y-16096217D02*
X9686012Y-16086693D01*
X9686012Y-16086693D02*
X9666964Y-16058122D01*
X9666964Y-16058122D02*
X9657440Y-16039074D01*
X9657440Y-16039074D02*
X9647916Y-16010503D01*
X9647916Y-16010503D02*
X9638393Y-15962884D01*
X9638393Y-15962884D02*
X9638393Y-15924788D01*
X9638393Y-15924788D02*
X9647916Y-15877169D01*
X9647916Y-15877169D02*
X9657440Y-15848598D01*
X9657440Y-15848598D02*
X9666964Y-15829550D01*
X9666964Y-15829550D02*
X9686012Y-15800979D01*
X9686012Y-15800979D02*
X9695535Y-15791455D01*
X9857440Y-15886693D02*
X9857440Y-16020027D01*
X9809821Y-15810503D02*
X9762202Y-15953360D01*
X9762202Y-15953360D02*
X9886012Y-15953360D01*
X10114583Y-16020027D02*
X10114583Y-15820027D01*
X10200297Y-16020027D02*
X10200297Y-15915265D01*
X10200297Y-15915265D02*
X10190774Y-15896217D01*
X10190774Y-15896217D02*
X10171726Y-15886693D01*
X10171726Y-15886693D02*
X10143154Y-15886693D01*
X10143154Y-15886693D02*
X10124107Y-15896217D01*
X10124107Y-15896217D02*
X10114583Y-15905741D01*
X10324107Y-16020027D02*
X10305059Y-16010503D01*
X10305059Y-16010503D02*
X10295535Y-16000979D01*
X10295535Y-16000979D02*
X10286012Y-15981931D01*
X10286012Y-15981931D02*
X10286012Y-15924788D01*
X10286012Y-15924788D02*
X10295535Y-15905741D01*
X10295535Y-15905741D02*
X10305059Y-15896217D01*
X10305059Y-15896217D02*
X10324107Y-15886693D01*
X10324107Y-15886693D02*
X10352678Y-15886693D01*
X10352678Y-15886693D02*
X10371726Y-15896217D01*
X10371726Y-15896217D02*
X10381250Y-15905741D01*
X10381250Y-15905741D02*
X10390774Y-15924788D01*
X10390774Y-15924788D02*
X10390774Y-15981931D01*
X10390774Y-15981931D02*
X10381250Y-16000979D01*
X10381250Y-16000979D02*
X10371726Y-16010503D01*
X10371726Y-16010503D02*
X10352678Y-16020027D01*
X10352678Y-16020027D02*
X10324107Y-16020027D01*
X10505059Y-16020027D02*
X10486012Y-16010503D01*
X10486012Y-16010503D02*
X10476488Y-15991455D01*
X10476488Y-15991455D02*
X10476488Y-15820027D01*
X10657440Y-16010503D02*
X10638393Y-16020027D01*
X10638393Y-16020027D02*
X10600297Y-16020027D01*
X10600297Y-16020027D02*
X10581250Y-16010503D01*
X10581250Y-16010503D02*
X10571726Y-15991455D01*
X10571726Y-15991455D02*
X10571726Y-15915265D01*
X10571726Y-15915265D02*
X10581250Y-15896217D01*
X10581250Y-15896217D02*
X10600297Y-15886693D01*
X10600297Y-15886693D02*
X10638393Y-15886693D01*
X10638393Y-15886693D02*
X10657440Y-15896217D01*
X10657440Y-15896217D02*
X10666964Y-15915265D01*
X10666964Y-15915265D02*
X10666964Y-15934312D01*
X10666964Y-15934312D02*
X10571726Y-15953360D01*
X10743155Y-16010503D02*
X10762202Y-16020027D01*
X10762202Y-16020027D02*
X10800297Y-16020027D01*
X10800297Y-16020027D02*
X10819345Y-16010503D01*
X10819345Y-16010503D02*
X10828869Y-15991455D01*
X10828869Y-15991455D02*
X10828869Y-15981931D01*
X10828869Y-15981931D02*
X10819345Y-15962884D01*
X10819345Y-15962884D02*
X10800297Y-15953360D01*
X10800297Y-15953360D02*
X10771726Y-15953360D01*
X10771726Y-15953360D02*
X10752678Y-15943836D01*
X10752678Y-15943836D02*
X10743155Y-15924788D01*
X10743155Y-15924788D02*
X10743155Y-15915265D01*
X10743155Y-15915265D02*
X10752678Y-15896217D01*
X10752678Y-15896217D02*
X10771726Y-15886693D01*
X10771726Y-15886693D02*
X10800297Y-15886693D01*
X10800297Y-15886693D02*
X10819345Y-15896217D01*
X11066964Y-15943836D02*
X11219345Y-15943836D01*
X11143155Y-16020027D02*
X11143155Y-15867646D01*
X11552678Y-15886693D02*
X11552678Y-16020027D01*
X11505059Y-15810503D02*
X11457440Y-15953360D01*
X11457440Y-15953360D02*
X11581250Y-15953360D01*
X11800297Y-16010503D02*
X11819345Y-16020027D01*
X11819345Y-16020027D02*
X11857440Y-16020027D01*
X11857440Y-16020027D02*
X11876488Y-16010503D01*
X11876488Y-16010503D02*
X11886012Y-15991455D01*
X11886012Y-15991455D02*
X11886012Y-15981931D01*
X11886012Y-15981931D02*
X11876488Y-15962884D01*
X11876488Y-15962884D02*
X11857440Y-15953360D01*
X11857440Y-15953360D02*
X11828869Y-15953360D01*
X11828869Y-15953360D02*
X11809821Y-15943836D01*
X11809821Y-15943836D02*
X11800297Y-15924788D01*
X11800297Y-15924788D02*
X11800297Y-15915265D01*
X11800297Y-15915265D02*
X11809821Y-15896217D01*
X11809821Y-15896217D02*
X11828869Y-15886693D01*
X11828869Y-15886693D02*
X11857440Y-15886693D01*
X11857440Y-15886693D02*
X11876488Y-15896217D01*
X12000297Y-16020027D02*
X11981250Y-16010503D01*
X11981250Y-16010503D02*
X11971726Y-15991455D01*
X11971726Y-15991455D02*
X11971726Y-15820027D01*
X12105059Y-16020027D02*
X12086012Y-16010503D01*
X12086012Y-16010503D02*
X12076488Y-16000979D01*
X12076488Y-16000979D02*
X12066964Y-15981931D01*
X12066964Y-15981931D02*
X12066964Y-15924788D01*
X12066964Y-15924788D02*
X12076488Y-15905741D01*
X12076488Y-15905741D02*
X12086012Y-15896217D01*
X12086012Y-15896217D02*
X12105059Y-15886693D01*
X12105059Y-15886693D02*
X12133631Y-15886693D01*
X12133631Y-15886693D02*
X12152678Y-15896217D01*
X12152678Y-15896217D02*
X12162202Y-15905741D01*
X12162202Y-15905741D02*
X12171726Y-15924788D01*
X12171726Y-15924788D02*
X12171726Y-15981931D01*
X12171726Y-15981931D02*
X12162202Y-16000979D01*
X12162202Y-16000979D02*
X12152678Y-16010503D01*
X12152678Y-16010503D02*
X12133631Y-16020027D01*
X12133631Y-16020027D02*
X12105059Y-16020027D01*
X12228869Y-15886693D02*
X12305059Y-15886693D01*
X12257440Y-15820027D02*
X12257440Y-15991455D01*
X12257440Y-15991455D02*
X12266964Y-16010503D01*
X12266964Y-16010503D02*
X12286012Y-16020027D01*
X12286012Y-16020027D02*
X12305059Y-16020027D01*
X12362202Y-16010503D02*
X12381250Y-16020027D01*
X12381250Y-16020027D02*
X12419345Y-16020027D01*
X12419345Y-16020027D02*
X12438393Y-16010503D01*
X12438393Y-16010503D02*
X12447917Y-15991455D01*
X12447917Y-15991455D02*
X12447917Y-15981931D01*
X12447917Y-15981931D02*
X12438393Y-15962884D01*
X12438393Y-15962884D02*
X12419345Y-15953360D01*
X12419345Y-15953360D02*
X12390774Y-15953360D01*
X12390774Y-15953360D02*
X12371726Y-15943836D01*
X12371726Y-15943836D02*
X12362202Y-15924788D01*
X12362202Y-15924788D02*
X12362202Y-15915265D01*
X12362202Y-15915265D02*
X12371726Y-15896217D01*
X12371726Y-15896217D02*
X12390774Y-15886693D01*
X12390774Y-15886693D02*
X12419345Y-15886693D01*
X12419345Y-15886693D02*
X12438393Y-15896217D01*
X12514583Y-16096217D02*
X12524107Y-16086693D01*
X12524107Y-16086693D02*
X12543155Y-16058122D01*
X12543155Y-16058122D02*
X12552678Y-16039074D01*
X12552678Y-16039074D02*
X12562202Y-16010503D01*
X12562202Y-16010503D02*
X12571726Y-15962884D01*
X12571726Y-15962884D02*
X12571726Y-15924788D01*
X12571726Y-15924788D02*
X12562202Y-15877169D01*
X12562202Y-15877169D02*
X12552678Y-15848598D01*
X12552678Y-15848598D02*
X12543155Y-15829550D01*
X12543155Y-15829550D02*
X12524107Y-15800979D01*
X12524107Y-15800979D02*
X12514583Y-15791455D01*
D12*
X6120472Y-16192543D02*
G75*
G02*
X6040472Y-16192543I-40000J0D01*
G01*
X6040472Y-16192543D02*
G75*
G02*
X6120472Y-16192543I40000J0D01*
G01*
D11*
X6419344Y-16084027D02*
X6438392Y-16084027D01*
X6438392Y-16084027D02*
X6457440Y-16093550D01*
X6457440Y-16093550D02*
X6466964Y-16103074D01*
X6466964Y-16103074D02*
X6476487Y-16122122D01*
X6476487Y-16122122D02*
X6486011Y-16160217D01*
X6486011Y-16160217D02*
X6486011Y-16207836D01*
X6486011Y-16207836D02*
X6476487Y-16245931D01*
X6476487Y-16245931D02*
X6466964Y-16264979D01*
X6466964Y-16264979D02*
X6457440Y-16274503D01*
X6457440Y-16274503D02*
X6438392Y-16284027D01*
X6438392Y-16284027D02*
X6419344Y-16284027D01*
X6419344Y-16284027D02*
X6400297Y-16274503D01*
X6400297Y-16274503D02*
X6390773Y-16264979D01*
X6390773Y-16264979D02*
X6381249Y-16245931D01*
X6381249Y-16245931D02*
X6371725Y-16207836D01*
X6371725Y-16207836D02*
X6371725Y-16160217D01*
X6371725Y-16160217D02*
X6381249Y-16122122D01*
X6381249Y-16122122D02*
X6390773Y-16103074D01*
X6390773Y-16103074D02*
X6400297Y-16093550D01*
X6400297Y-16093550D02*
X6419344Y-16084027D01*
X6571725Y-16264979D02*
X6581249Y-16274503D01*
X6581249Y-16274503D02*
X6571725Y-16284027D01*
X6571725Y-16284027D02*
X6562202Y-16274503D01*
X6562202Y-16274503D02*
X6571725Y-16264979D01*
X6571725Y-16264979D02*
X6571725Y-16284027D01*
X6695535Y-16169741D02*
X6676487Y-16160217D01*
X6676487Y-16160217D02*
X6666964Y-16150693D01*
X6666964Y-16150693D02*
X6657440Y-16131646D01*
X6657440Y-16131646D02*
X6657440Y-16122122D01*
X6657440Y-16122122D02*
X6666964Y-16103074D01*
X6666964Y-16103074D02*
X6676487Y-16093550D01*
X6676487Y-16093550D02*
X6695535Y-16084027D01*
X6695535Y-16084027D02*
X6733630Y-16084027D01*
X6733630Y-16084027D02*
X6752678Y-16093550D01*
X6752678Y-16093550D02*
X6762202Y-16103074D01*
X6762202Y-16103074D02*
X6771725Y-16122122D01*
X6771725Y-16122122D02*
X6771725Y-16131646D01*
X6771725Y-16131646D02*
X6762202Y-16150693D01*
X6762202Y-16150693D02*
X6752678Y-16160217D01*
X6752678Y-16160217D02*
X6733630Y-16169741D01*
X6733630Y-16169741D02*
X6695535Y-16169741D01*
X6695535Y-16169741D02*
X6676487Y-16179265D01*
X6676487Y-16179265D02*
X6666964Y-16188788D01*
X6666964Y-16188788D02*
X6657440Y-16207836D01*
X6657440Y-16207836D02*
X6657440Y-16245931D01*
X6657440Y-16245931D02*
X6666964Y-16264979D01*
X6666964Y-16264979D02*
X6676487Y-16274503D01*
X6676487Y-16274503D02*
X6695535Y-16284027D01*
X6695535Y-16284027D02*
X6733630Y-16284027D01*
X6733630Y-16284027D02*
X6752678Y-16274503D01*
X6752678Y-16274503D02*
X6762202Y-16264979D01*
X6762202Y-16264979D02*
X6771725Y-16245931D01*
X6771725Y-16245931D02*
X6771725Y-16207836D01*
X6771725Y-16207836D02*
X6762202Y-16188788D01*
X6762202Y-16188788D02*
X6752678Y-16179265D01*
X6752678Y-16179265D02*
X6733630Y-16169741D01*
X6895535Y-16084027D02*
X6914583Y-16084027D01*
X6914583Y-16084027D02*
X6933630Y-16093550D01*
X6933630Y-16093550D02*
X6943154Y-16103074D01*
X6943154Y-16103074D02*
X6952678Y-16122122D01*
X6952678Y-16122122D02*
X6962202Y-16160217D01*
X6962202Y-16160217D02*
X6962202Y-16207836D01*
X6962202Y-16207836D02*
X6952678Y-16245931D01*
X6952678Y-16245931D02*
X6943154Y-16264979D01*
X6943154Y-16264979D02*
X6933630Y-16274503D01*
X6933630Y-16274503D02*
X6914583Y-16284027D01*
X6914583Y-16284027D02*
X6895535Y-16284027D01*
X6895535Y-16284027D02*
X6876487Y-16274503D01*
X6876487Y-16274503D02*
X6866964Y-16264979D01*
X6866964Y-16264979D02*
X6857440Y-16245931D01*
X6857440Y-16245931D02*
X6847916Y-16207836D01*
X6847916Y-16207836D02*
X6847916Y-16160217D01*
X6847916Y-16160217D02*
X6857440Y-16122122D01*
X6857440Y-16122122D02*
X6866964Y-16103074D01*
X6866964Y-16103074D02*
X6876487Y-16093550D01*
X6876487Y-16093550D02*
X6895535Y-16084027D01*
X7086011Y-16084027D02*
X7105059Y-16084027D01*
X7105059Y-16084027D02*
X7124106Y-16093550D01*
X7124106Y-16093550D02*
X7133630Y-16103074D01*
X7133630Y-16103074D02*
X7143154Y-16122122D01*
X7143154Y-16122122D02*
X7152678Y-16160217D01*
X7152678Y-16160217D02*
X7152678Y-16207836D01*
X7152678Y-16207836D02*
X7143154Y-16245931D01*
X7143154Y-16245931D02*
X7133630Y-16264979D01*
X7133630Y-16264979D02*
X7124106Y-16274503D01*
X7124106Y-16274503D02*
X7105059Y-16284027D01*
X7105059Y-16284027D02*
X7086011Y-16284027D01*
X7086011Y-16284027D02*
X7066964Y-16274503D01*
X7066964Y-16274503D02*
X7057440Y-16264979D01*
X7057440Y-16264979D02*
X7047916Y-16245931D01*
X7047916Y-16245931D02*
X7038392Y-16207836D01*
X7038392Y-16207836D02*
X7038392Y-16160217D01*
X7038392Y-16160217D02*
X7047916Y-16122122D01*
X7047916Y-16122122D02*
X7057440Y-16103074D01*
X7057440Y-16103074D02*
X7066964Y-16093550D01*
X7066964Y-16093550D02*
X7086011Y-16084027D01*
X7238392Y-16284027D02*
X7238392Y-16150693D01*
X7238392Y-16169741D02*
X7247916Y-16160217D01*
X7247916Y-16160217D02*
X7266964Y-16150693D01*
X7266964Y-16150693D02*
X7295535Y-16150693D01*
X7295535Y-16150693D02*
X7314583Y-16160217D01*
X7314583Y-16160217D02*
X7324106Y-16179265D01*
X7324106Y-16179265D02*
X7324106Y-16284027D01*
X7324106Y-16179265D02*
X7333630Y-16160217D01*
X7333630Y-16160217D02*
X7352678Y-16150693D01*
X7352678Y-16150693D02*
X7381249Y-16150693D01*
X7381249Y-16150693D02*
X7400297Y-16160217D01*
X7400297Y-16160217D02*
X7409821Y-16179265D01*
X7409821Y-16179265D02*
X7409821Y-16284027D01*
X7505059Y-16284027D02*
X7505059Y-16150693D01*
X7505059Y-16169741D02*
X7514583Y-16160217D01*
X7514583Y-16160217D02*
X7533630Y-16150693D01*
X7533630Y-16150693D02*
X7562202Y-16150693D01*
X7562202Y-16150693D02*
X7581249Y-16160217D01*
X7581249Y-16160217D02*
X7590773Y-16179265D01*
X7590773Y-16179265D02*
X7590773Y-16284027D01*
X7590773Y-16179265D02*
X7600297Y-16160217D01*
X7600297Y-16160217D02*
X7619345Y-16150693D01*
X7619345Y-16150693D02*
X7647916Y-16150693D01*
X7647916Y-16150693D02*
X7666964Y-16160217D01*
X7666964Y-16160217D02*
X7676487Y-16179265D01*
X7676487Y-16179265D02*
X7676487Y-16284027D01*
X8066964Y-16074503D02*
X7895535Y-16331646D01*
X8324107Y-16084027D02*
X8343154Y-16084027D01*
X8343154Y-16084027D02*
X8362202Y-16093550D01*
X8362202Y-16093550D02*
X8371726Y-16103074D01*
X8371726Y-16103074D02*
X8381249Y-16122122D01*
X8381249Y-16122122D02*
X8390773Y-16160217D01*
X8390773Y-16160217D02*
X8390773Y-16207836D01*
X8390773Y-16207836D02*
X8381249Y-16245931D01*
X8381249Y-16245931D02*
X8371726Y-16264979D01*
X8371726Y-16264979D02*
X8362202Y-16274503D01*
X8362202Y-16274503D02*
X8343154Y-16284027D01*
X8343154Y-16284027D02*
X8324107Y-16284027D01*
X8324107Y-16284027D02*
X8305059Y-16274503D01*
X8305059Y-16274503D02*
X8295535Y-16264979D01*
X8295535Y-16264979D02*
X8286011Y-16245931D01*
X8286011Y-16245931D02*
X8276488Y-16207836D01*
X8276488Y-16207836D02*
X8276488Y-16160217D01*
X8276488Y-16160217D02*
X8286011Y-16122122D01*
X8286011Y-16122122D02*
X8295535Y-16103074D01*
X8295535Y-16103074D02*
X8305059Y-16093550D01*
X8305059Y-16093550D02*
X8324107Y-16084027D01*
X8476488Y-16264979D02*
X8486011Y-16274503D01*
X8486011Y-16274503D02*
X8476488Y-16284027D01*
X8476488Y-16284027D02*
X8466964Y-16274503D01*
X8466964Y-16274503D02*
X8476488Y-16264979D01*
X8476488Y-16264979D02*
X8476488Y-16284027D01*
X8609821Y-16084027D02*
X8628869Y-16084027D01*
X8628869Y-16084027D02*
X8647916Y-16093550D01*
X8647916Y-16093550D02*
X8657440Y-16103074D01*
X8657440Y-16103074D02*
X8666964Y-16122122D01*
X8666964Y-16122122D02*
X8676488Y-16160217D01*
X8676488Y-16160217D02*
X8676488Y-16207836D01*
X8676488Y-16207836D02*
X8666964Y-16245931D01*
X8666964Y-16245931D02*
X8657440Y-16264979D01*
X8657440Y-16264979D02*
X8647916Y-16274503D01*
X8647916Y-16274503D02*
X8628869Y-16284027D01*
X8628869Y-16284027D02*
X8609821Y-16284027D01*
X8609821Y-16284027D02*
X8590773Y-16274503D01*
X8590773Y-16274503D02*
X8581250Y-16264979D01*
X8581250Y-16264979D02*
X8571726Y-16245931D01*
X8571726Y-16245931D02*
X8562202Y-16207836D01*
X8562202Y-16207836D02*
X8562202Y-16160217D01*
X8562202Y-16160217D02*
X8571726Y-16122122D01*
X8571726Y-16122122D02*
X8581250Y-16103074D01*
X8581250Y-16103074D02*
X8590773Y-16093550D01*
X8590773Y-16093550D02*
X8609821Y-16084027D01*
X8743154Y-16084027D02*
X8866964Y-16084027D01*
X8866964Y-16084027D02*
X8800297Y-16160217D01*
X8800297Y-16160217D02*
X8828869Y-16160217D01*
X8828869Y-16160217D02*
X8847916Y-16169741D01*
X8847916Y-16169741D02*
X8857440Y-16179265D01*
X8857440Y-16179265D02*
X8866964Y-16198312D01*
X8866964Y-16198312D02*
X8866964Y-16245931D01*
X8866964Y-16245931D02*
X8857440Y-16264979D01*
X8857440Y-16264979D02*
X8847916Y-16274503D01*
X8847916Y-16274503D02*
X8828869Y-16284027D01*
X8828869Y-16284027D02*
X8771726Y-16284027D01*
X8771726Y-16284027D02*
X8752678Y-16274503D01*
X8752678Y-16274503D02*
X8743154Y-16264979D01*
X9057440Y-16284027D02*
X8943154Y-16284027D01*
X9000297Y-16284027D02*
X9000297Y-16084027D01*
X9000297Y-16084027D02*
X8981250Y-16112598D01*
X8981250Y-16112598D02*
X8962202Y-16131646D01*
X8962202Y-16131646D02*
X8943154Y-16141169D01*
X9238392Y-16084027D02*
X9143154Y-16084027D01*
X9143154Y-16084027D02*
X9133631Y-16179265D01*
X9133631Y-16179265D02*
X9143154Y-16169741D01*
X9143154Y-16169741D02*
X9162202Y-16160217D01*
X9162202Y-16160217D02*
X9209821Y-16160217D01*
X9209821Y-16160217D02*
X9228869Y-16169741D01*
X9228869Y-16169741D02*
X9238392Y-16179265D01*
X9238392Y-16179265D02*
X9247916Y-16198312D01*
X9247916Y-16198312D02*
X9247916Y-16245931D01*
X9247916Y-16245931D02*
X9238392Y-16264979D01*
X9238392Y-16264979D02*
X9228869Y-16274503D01*
X9228869Y-16274503D02*
X9209821Y-16284027D01*
X9209821Y-16284027D02*
X9162202Y-16284027D01*
X9162202Y-16284027D02*
X9143154Y-16274503D01*
X9143154Y-16274503D02*
X9133631Y-16264979D01*
X9324107Y-16084027D02*
X9324107Y-16122122D01*
X9400297Y-16084027D02*
X9400297Y-16122122D01*
X9695535Y-16360217D02*
X9686012Y-16350693D01*
X9686012Y-16350693D02*
X9666964Y-16322122D01*
X9666964Y-16322122D02*
X9657440Y-16303074D01*
X9657440Y-16303074D02*
X9647916Y-16274503D01*
X9647916Y-16274503D02*
X9638393Y-16226884D01*
X9638393Y-16226884D02*
X9638393Y-16188788D01*
X9638393Y-16188788D02*
X9647916Y-16141169D01*
X9647916Y-16141169D02*
X9657440Y-16112598D01*
X9657440Y-16112598D02*
X9666964Y-16093550D01*
X9666964Y-16093550D02*
X9686012Y-16064979D01*
X9686012Y-16064979D02*
X9695535Y-16055455D01*
X9857440Y-16084027D02*
X9819345Y-16084027D01*
X9819345Y-16084027D02*
X9800297Y-16093550D01*
X9800297Y-16093550D02*
X9790773Y-16103074D01*
X9790773Y-16103074D02*
X9771726Y-16131646D01*
X9771726Y-16131646D02*
X9762202Y-16169741D01*
X9762202Y-16169741D02*
X9762202Y-16245931D01*
X9762202Y-16245931D02*
X9771726Y-16264979D01*
X9771726Y-16264979D02*
X9781250Y-16274503D01*
X9781250Y-16274503D02*
X9800297Y-16284027D01*
X9800297Y-16284027D02*
X9838393Y-16284027D01*
X9838393Y-16284027D02*
X9857440Y-16274503D01*
X9857440Y-16274503D02*
X9866964Y-16264979D01*
X9866964Y-16264979D02*
X9876488Y-16245931D01*
X9876488Y-16245931D02*
X9876488Y-16198312D01*
X9876488Y-16198312D02*
X9866964Y-16179265D01*
X9866964Y-16179265D02*
X9857440Y-16169741D01*
X9857440Y-16169741D02*
X9838393Y-16160217D01*
X9838393Y-16160217D02*
X9800297Y-16160217D01*
X9800297Y-16160217D02*
X9781250Y-16169741D01*
X9781250Y-16169741D02*
X9771726Y-16179265D01*
X9771726Y-16179265D02*
X9762202Y-16198312D01*
X10000297Y-16084027D02*
X10019345Y-16084027D01*
X10019345Y-16084027D02*
X10038393Y-16093550D01*
X10038393Y-16093550D02*
X10047916Y-16103074D01*
X10047916Y-16103074D02*
X10057440Y-16122122D01*
X10057440Y-16122122D02*
X10066964Y-16160217D01*
X10066964Y-16160217D02*
X10066964Y-16207836D01*
X10066964Y-16207836D02*
X10057440Y-16245931D01*
X10057440Y-16245931D02*
X10047916Y-16264979D01*
X10047916Y-16264979D02*
X10038393Y-16274503D01*
X10038393Y-16274503D02*
X10019345Y-16284027D01*
X10019345Y-16284027D02*
X10000297Y-16284027D01*
X10000297Y-16284027D02*
X9981250Y-16274503D01*
X9981250Y-16274503D02*
X9971726Y-16264979D01*
X9971726Y-16264979D02*
X9962202Y-16245931D01*
X9962202Y-16245931D02*
X9952678Y-16207836D01*
X9952678Y-16207836D02*
X9952678Y-16160217D01*
X9952678Y-16160217D02*
X9962202Y-16122122D01*
X9962202Y-16122122D02*
X9971726Y-16103074D01*
X9971726Y-16103074D02*
X9981250Y-16093550D01*
X9981250Y-16093550D02*
X10000297Y-16084027D01*
X10305059Y-16284027D02*
X10305059Y-16084027D01*
X10390774Y-16284027D02*
X10390774Y-16179265D01*
X10390774Y-16179265D02*
X10381250Y-16160217D01*
X10381250Y-16160217D02*
X10362202Y-16150693D01*
X10362202Y-16150693D02*
X10333631Y-16150693D01*
X10333631Y-16150693D02*
X10314583Y-16160217D01*
X10314583Y-16160217D02*
X10305059Y-16169741D01*
X10514583Y-16284027D02*
X10495535Y-16274503D01*
X10495535Y-16274503D02*
X10486012Y-16264979D01*
X10486012Y-16264979D02*
X10476488Y-16245931D01*
X10476488Y-16245931D02*
X10476488Y-16188788D01*
X10476488Y-16188788D02*
X10486012Y-16169741D01*
X10486012Y-16169741D02*
X10495535Y-16160217D01*
X10495535Y-16160217D02*
X10514583Y-16150693D01*
X10514583Y-16150693D02*
X10543155Y-16150693D01*
X10543155Y-16150693D02*
X10562202Y-16160217D01*
X10562202Y-16160217D02*
X10571726Y-16169741D01*
X10571726Y-16169741D02*
X10581250Y-16188788D01*
X10581250Y-16188788D02*
X10581250Y-16245931D01*
X10581250Y-16245931D02*
X10571726Y-16264979D01*
X10571726Y-16264979D02*
X10562202Y-16274503D01*
X10562202Y-16274503D02*
X10543155Y-16284027D01*
X10543155Y-16284027D02*
X10514583Y-16284027D01*
X10695535Y-16284027D02*
X10676488Y-16274503D01*
X10676488Y-16274503D02*
X10666964Y-16255455D01*
X10666964Y-16255455D02*
X10666964Y-16084027D01*
X10847916Y-16274503D02*
X10828869Y-16284027D01*
X10828869Y-16284027D02*
X10790774Y-16284027D01*
X10790774Y-16284027D02*
X10771726Y-16274503D01*
X10771726Y-16274503D02*
X10762202Y-16255455D01*
X10762202Y-16255455D02*
X10762202Y-16179265D01*
X10762202Y-16179265D02*
X10771726Y-16160217D01*
X10771726Y-16160217D02*
X10790774Y-16150693D01*
X10790774Y-16150693D02*
X10828869Y-16150693D01*
X10828869Y-16150693D02*
X10847916Y-16160217D01*
X10847916Y-16160217D02*
X10857440Y-16179265D01*
X10857440Y-16179265D02*
X10857440Y-16198312D01*
X10857440Y-16198312D02*
X10762202Y-16217360D01*
X10933631Y-16274503D02*
X10952678Y-16284027D01*
X10952678Y-16284027D02*
X10990774Y-16284027D01*
X10990774Y-16284027D02*
X11009821Y-16274503D01*
X11009821Y-16274503D02*
X11019345Y-16255455D01*
X11019345Y-16255455D02*
X11019345Y-16245931D01*
X11019345Y-16245931D02*
X11009821Y-16226884D01*
X11009821Y-16226884D02*
X10990774Y-16217360D01*
X10990774Y-16217360D02*
X10962202Y-16217360D01*
X10962202Y-16217360D02*
X10943155Y-16207836D01*
X10943155Y-16207836D02*
X10933631Y-16188788D01*
X10933631Y-16188788D02*
X10933631Y-16179265D01*
X10933631Y-16179265D02*
X10943155Y-16160217D01*
X10943155Y-16160217D02*
X10962202Y-16150693D01*
X10962202Y-16150693D02*
X10990774Y-16150693D01*
X10990774Y-16150693D02*
X11009821Y-16160217D01*
X11086012Y-16360217D02*
X11095536Y-16350693D01*
X11095536Y-16350693D02*
X11114583Y-16322122D01*
X11114583Y-16322122D02*
X11124107Y-16303074D01*
X11124107Y-16303074D02*
X11133631Y-16274503D01*
X11133631Y-16274503D02*
X11143155Y-16226884D01*
X11143155Y-16226884D02*
X11143155Y-16188788D01*
X11143155Y-16188788D02*
X11133631Y-16141169D01*
X11133631Y-16141169D02*
X11124107Y-16112598D01*
X11124107Y-16112598D02*
X11114583Y-16093550D01*
X11114583Y-16093550D02*
X11095536Y-16064979D01*
X11095536Y-16064979D02*
X11086012Y-16055455D01*
D13*
X6065862Y-16401933D02*
X6065862Y-16511153D01*
X6011252Y-16456543D02*
X6120472Y-16456543D01*
D11*
X6486011Y-16548027D02*
X6371725Y-16548027D01*
X6428868Y-16548027D02*
X6428868Y-16348027D01*
X6428868Y-16348027D02*
X6409821Y-16376598D01*
X6409821Y-16376598D02*
X6390773Y-16395646D01*
X6390773Y-16395646D02*
X6371725Y-16405169D01*
X6571725Y-16528979D02*
X6581249Y-16538503D01*
X6581249Y-16538503D02*
X6571725Y-16548027D01*
X6571725Y-16548027D02*
X6562202Y-16538503D01*
X6562202Y-16538503D02*
X6571725Y-16528979D01*
X6571725Y-16528979D02*
X6571725Y-16548027D01*
X6705059Y-16348027D02*
X6724106Y-16348027D01*
X6724106Y-16348027D02*
X6743154Y-16357550D01*
X6743154Y-16357550D02*
X6752678Y-16367074D01*
X6752678Y-16367074D02*
X6762202Y-16386122D01*
X6762202Y-16386122D02*
X6771725Y-16424217D01*
X6771725Y-16424217D02*
X6771725Y-16471836D01*
X6771725Y-16471836D02*
X6762202Y-16509931D01*
X6762202Y-16509931D02*
X6752678Y-16528979D01*
X6752678Y-16528979D02*
X6743154Y-16538503D01*
X6743154Y-16538503D02*
X6724106Y-16548027D01*
X6724106Y-16548027D02*
X6705059Y-16548027D01*
X6705059Y-16548027D02*
X6686011Y-16538503D01*
X6686011Y-16538503D02*
X6676487Y-16528979D01*
X6676487Y-16528979D02*
X6666964Y-16509931D01*
X6666964Y-16509931D02*
X6657440Y-16471836D01*
X6657440Y-16471836D02*
X6657440Y-16424217D01*
X6657440Y-16424217D02*
X6666964Y-16386122D01*
X6666964Y-16386122D02*
X6676487Y-16367074D01*
X6676487Y-16367074D02*
X6686011Y-16357550D01*
X6686011Y-16357550D02*
X6705059Y-16348027D01*
X6866964Y-16548027D02*
X6905059Y-16548027D01*
X6905059Y-16548027D02*
X6924106Y-16538503D01*
X6924106Y-16538503D02*
X6933630Y-16528979D01*
X6933630Y-16528979D02*
X6952678Y-16500407D01*
X6952678Y-16500407D02*
X6962202Y-16462312D01*
X6962202Y-16462312D02*
X6962202Y-16386122D01*
X6962202Y-16386122D02*
X6952678Y-16367074D01*
X6952678Y-16367074D02*
X6943154Y-16357550D01*
X6943154Y-16357550D02*
X6924106Y-16348027D01*
X6924106Y-16348027D02*
X6886011Y-16348027D01*
X6886011Y-16348027D02*
X6866964Y-16357550D01*
X6866964Y-16357550D02*
X6857440Y-16367074D01*
X6857440Y-16367074D02*
X6847916Y-16386122D01*
X6847916Y-16386122D02*
X6847916Y-16433741D01*
X6847916Y-16433741D02*
X6857440Y-16452788D01*
X6857440Y-16452788D02*
X6866964Y-16462312D01*
X6866964Y-16462312D02*
X6886011Y-16471836D01*
X6886011Y-16471836D02*
X6924106Y-16471836D01*
X6924106Y-16471836D02*
X6943154Y-16462312D01*
X6943154Y-16462312D02*
X6952678Y-16452788D01*
X6952678Y-16452788D02*
X6962202Y-16433741D01*
X7038392Y-16367074D02*
X7047916Y-16357550D01*
X7047916Y-16357550D02*
X7066964Y-16348027D01*
X7066964Y-16348027D02*
X7114583Y-16348027D01*
X7114583Y-16348027D02*
X7133630Y-16357550D01*
X7133630Y-16357550D02*
X7143154Y-16367074D01*
X7143154Y-16367074D02*
X7152678Y-16386122D01*
X7152678Y-16386122D02*
X7152678Y-16405169D01*
X7152678Y-16405169D02*
X7143154Y-16433741D01*
X7143154Y-16433741D02*
X7028868Y-16548027D01*
X7028868Y-16548027D02*
X7152678Y-16548027D01*
X7238392Y-16548027D02*
X7238392Y-16414693D01*
X7238392Y-16433741D02*
X7247916Y-16424217D01*
X7247916Y-16424217D02*
X7266964Y-16414693D01*
X7266964Y-16414693D02*
X7295535Y-16414693D01*
X7295535Y-16414693D02*
X7314583Y-16424217D01*
X7314583Y-16424217D02*
X7324106Y-16443265D01*
X7324106Y-16443265D02*
X7324106Y-16548027D01*
X7324106Y-16443265D02*
X7333630Y-16424217D01*
X7333630Y-16424217D02*
X7352678Y-16414693D01*
X7352678Y-16414693D02*
X7381249Y-16414693D01*
X7381249Y-16414693D02*
X7400297Y-16424217D01*
X7400297Y-16424217D02*
X7409821Y-16443265D01*
X7409821Y-16443265D02*
X7409821Y-16548027D01*
X7505059Y-16548027D02*
X7505059Y-16414693D01*
X7505059Y-16433741D02*
X7514583Y-16424217D01*
X7514583Y-16424217D02*
X7533630Y-16414693D01*
X7533630Y-16414693D02*
X7562202Y-16414693D01*
X7562202Y-16414693D02*
X7581249Y-16424217D01*
X7581249Y-16424217D02*
X7590773Y-16443265D01*
X7590773Y-16443265D02*
X7590773Y-16548027D01*
X7590773Y-16443265D02*
X7600297Y-16424217D01*
X7600297Y-16424217D02*
X7619345Y-16414693D01*
X7619345Y-16414693D02*
X7647916Y-16414693D01*
X7647916Y-16414693D02*
X7666964Y-16424217D01*
X7666964Y-16424217D02*
X7676487Y-16443265D01*
X7676487Y-16443265D02*
X7676487Y-16548027D01*
X8066964Y-16338503D02*
X7895535Y-16595646D01*
X8324107Y-16348027D02*
X8343154Y-16348027D01*
X8343154Y-16348027D02*
X8362202Y-16357550D01*
X8362202Y-16357550D02*
X8371726Y-16367074D01*
X8371726Y-16367074D02*
X8381249Y-16386122D01*
X8381249Y-16386122D02*
X8390773Y-16424217D01*
X8390773Y-16424217D02*
X8390773Y-16471836D01*
X8390773Y-16471836D02*
X8381249Y-16509931D01*
X8381249Y-16509931D02*
X8371726Y-16528979D01*
X8371726Y-16528979D02*
X8362202Y-16538503D01*
X8362202Y-16538503D02*
X8343154Y-16548027D01*
X8343154Y-16548027D02*
X8324107Y-16548027D01*
X8324107Y-16548027D02*
X8305059Y-16538503D01*
X8305059Y-16538503D02*
X8295535Y-16528979D01*
X8295535Y-16528979D02*
X8286011Y-16509931D01*
X8286011Y-16509931D02*
X8276488Y-16471836D01*
X8276488Y-16471836D02*
X8276488Y-16424217D01*
X8276488Y-16424217D02*
X8286011Y-16386122D01*
X8286011Y-16386122D02*
X8295535Y-16367074D01*
X8295535Y-16367074D02*
X8305059Y-16357550D01*
X8305059Y-16357550D02*
X8324107Y-16348027D01*
X8476488Y-16528979D02*
X8486011Y-16538503D01*
X8486011Y-16538503D02*
X8476488Y-16548027D01*
X8476488Y-16548027D02*
X8466964Y-16538503D01*
X8466964Y-16538503D02*
X8476488Y-16528979D01*
X8476488Y-16528979D02*
X8476488Y-16548027D01*
X8609821Y-16348027D02*
X8628869Y-16348027D01*
X8628869Y-16348027D02*
X8647916Y-16357550D01*
X8647916Y-16357550D02*
X8657440Y-16367074D01*
X8657440Y-16367074D02*
X8666964Y-16386122D01*
X8666964Y-16386122D02*
X8676488Y-16424217D01*
X8676488Y-16424217D02*
X8676488Y-16471836D01*
X8676488Y-16471836D02*
X8666964Y-16509931D01*
X8666964Y-16509931D02*
X8657440Y-16528979D01*
X8657440Y-16528979D02*
X8647916Y-16538503D01*
X8647916Y-16538503D02*
X8628869Y-16548027D01*
X8628869Y-16548027D02*
X8609821Y-16548027D01*
X8609821Y-16548027D02*
X8590773Y-16538503D01*
X8590773Y-16538503D02*
X8581250Y-16528979D01*
X8581250Y-16528979D02*
X8571726Y-16509931D01*
X8571726Y-16509931D02*
X8562202Y-16471836D01*
X8562202Y-16471836D02*
X8562202Y-16424217D01*
X8562202Y-16424217D02*
X8571726Y-16386122D01*
X8571726Y-16386122D02*
X8581250Y-16367074D01*
X8581250Y-16367074D02*
X8590773Y-16357550D01*
X8590773Y-16357550D02*
X8609821Y-16348027D01*
X8847916Y-16414693D02*
X8847916Y-16548027D01*
X8800297Y-16338503D02*
X8752678Y-16481360D01*
X8752678Y-16481360D02*
X8876488Y-16481360D01*
X8933631Y-16348027D02*
X9057440Y-16348027D01*
X9057440Y-16348027D02*
X8990773Y-16424217D01*
X8990773Y-16424217D02*
X9019345Y-16424217D01*
X9019345Y-16424217D02*
X9038392Y-16433741D01*
X9038392Y-16433741D02*
X9047916Y-16443265D01*
X9047916Y-16443265D02*
X9057440Y-16462312D01*
X9057440Y-16462312D02*
X9057440Y-16509931D01*
X9057440Y-16509931D02*
X9047916Y-16528979D01*
X9047916Y-16528979D02*
X9038392Y-16538503D01*
X9038392Y-16538503D02*
X9019345Y-16548027D01*
X9019345Y-16548027D02*
X8962202Y-16548027D01*
X8962202Y-16548027D02*
X8943154Y-16538503D01*
X8943154Y-16538503D02*
X8933631Y-16528979D01*
X9181250Y-16348027D02*
X9200297Y-16348027D01*
X9200297Y-16348027D02*
X9219345Y-16357550D01*
X9219345Y-16357550D02*
X9228869Y-16367074D01*
X9228869Y-16367074D02*
X9238392Y-16386122D01*
X9238392Y-16386122D02*
X9247916Y-16424217D01*
X9247916Y-16424217D02*
X9247916Y-16471836D01*
X9247916Y-16471836D02*
X9238392Y-16509931D01*
X9238392Y-16509931D02*
X9228869Y-16528979D01*
X9228869Y-16528979D02*
X9219345Y-16538503D01*
X9219345Y-16538503D02*
X9200297Y-16548027D01*
X9200297Y-16548027D02*
X9181250Y-16548027D01*
X9181250Y-16548027D02*
X9162202Y-16538503D01*
X9162202Y-16538503D02*
X9152678Y-16528979D01*
X9152678Y-16528979D02*
X9143154Y-16509931D01*
X9143154Y-16509931D02*
X9133631Y-16471836D01*
X9133631Y-16471836D02*
X9133631Y-16424217D01*
X9133631Y-16424217D02*
X9143154Y-16386122D01*
X9143154Y-16386122D02*
X9152678Y-16367074D01*
X9152678Y-16367074D02*
X9162202Y-16357550D01*
X9162202Y-16357550D02*
X9181250Y-16348027D01*
X9324107Y-16348027D02*
X9324107Y-16386122D01*
X9400297Y-16348027D02*
X9400297Y-16386122D01*
X9695535Y-16624217D02*
X9686012Y-16614693D01*
X9686012Y-16614693D02*
X9666964Y-16586122D01*
X9666964Y-16586122D02*
X9657440Y-16567074D01*
X9657440Y-16567074D02*
X9647916Y-16538503D01*
X9647916Y-16538503D02*
X9638393Y-16490884D01*
X9638393Y-16490884D02*
X9638393Y-16452788D01*
X9638393Y-16452788D02*
X9647916Y-16405169D01*
X9647916Y-16405169D02*
X9657440Y-16376598D01*
X9657440Y-16376598D02*
X9666964Y-16357550D01*
X9666964Y-16357550D02*
X9686012Y-16328979D01*
X9686012Y-16328979D02*
X9695535Y-16319455D01*
X9762202Y-16367074D02*
X9771726Y-16357550D01*
X9771726Y-16357550D02*
X9790773Y-16348027D01*
X9790773Y-16348027D02*
X9838393Y-16348027D01*
X9838393Y-16348027D02*
X9857440Y-16357550D01*
X9857440Y-16357550D02*
X9866964Y-16367074D01*
X9866964Y-16367074D02*
X9876488Y-16386122D01*
X9876488Y-16386122D02*
X9876488Y-16405169D01*
X9876488Y-16405169D02*
X9866964Y-16433741D01*
X9866964Y-16433741D02*
X9752678Y-16548027D01*
X9752678Y-16548027D02*
X9876488Y-16548027D01*
X10047916Y-16414693D02*
X10047916Y-16548027D01*
X10000297Y-16338503D02*
X9952678Y-16481360D01*
X9952678Y-16481360D02*
X10076488Y-16481360D01*
X10305059Y-16548027D02*
X10305059Y-16348027D01*
X10390774Y-16548027D02*
X10390774Y-16443265D01*
X10390774Y-16443265D02*
X10381250Y-16424217D01*
X10381250Y-16424217D02*
X10362202Y-16414693D01*
X10362202Y-16414693D02*
X10333631Y-16414693D01*
X10333631Y-16414693D02*
X10314583Y-16424217D01*
X10314583Y-16424217D02*
X10305059Y-16433741D01*
X10514583Y-16548027D02*
X10495535Y-16538503D01*
X10495535Y-16538503D02*
X10486012Y-16528979D01*
X10486012Y-16528979D02*
X10476488Y-16509931D01*
X10476488Y-16509931D02*
X10476488Y-16452788D01*
X10476488Y-16452788D02*
X10486012Y-16433741D01*
X10486012Y-16433741D02*
X10495535Y-16424217D01*
X10495535Y-16424217D02*
X10514583Y-16414693D01*
X10514583Y-16414693D02*
X10543155Y-16414693D01*
X10543155Y-16414693D02*
X10562202Y-16424217D01*
X10562202Y-16424217D02*
X10571726Y-16433741D01*
X10571726Y-16433741D02*
X10581250Y-16452788D01*
X10581250Y-16452788D02*
X10581250Y-16509931D01*
X10581250Y-16509931D02*
X10571726Y-16528979D01*
X10571726Y-16528979D02*
X10562202Y-16538503D01*
X10562202Y-16538503D02*
X10543155Y-16548027D01*
X10543155Y-16548027D02*
X10514583Y-16548027D01*
X10695535Y-16548027D02*
X10676488Y-16538503D01*
X10676488Y-16538503D02*
X10666964Y-16519455D01*
X10666964Y-16519455D02*
X10666964Y-16348027D01*
X10847916Y-16538503D02*
X10828869Y-16548027D01*
X10828869Y-16548027D02*
X10790774Y-16548027D01*
X10790774Y-16548027D02*
X10771726Y-16538503D01*
X10771726Y-16538503D02*
X10762202Y-16519455D01*
X10762202Y-16519455D02*
X10762202Y-16443265D01*
X10762202Y-16443265D02*
X10771726Y-16424217D01*
X10771726Y-16424217D02*
X10790774Y-16414693D01*
X10790774Y-16414693D02*
X10828869Y-16414693D01*
X10828869Y-16414693D02*
X10847916Y-16424217D01*
X10847916Y-16424217D02*
X10857440Y-16443265D01*
X10857440Y-16443265D02*
X10857440Y-16462312D01*
X10857440Y-16462312D02*
X10762202Y-16481360D01*
X10933631Y-16538503D02*
X10952678Y-16548027D01*
X10952678Y-16548027D02*
X10990774Y-16548027D01*
X10990774Y-16548027D02*
X11009821Y-16538503D01*
X11009821Y-16538503D02*
X11019345Y-16519455D01*
X11019345Y-16519455D02*
X11019345Y-16509931D01*
X11019345Y-16509931D02*
X11009821Y-16490884D01*
X11009821Y-16490884D02*
X10990774Y-16481360D01*
X10990774Y-16481360D02*
X10962202Y-16481360D01*
X10962202Y-16481360D02*
X10943155Y-16471836D01*
X10943155Y-16471836D02*
X10933631Y-16452788D01*
X10933631Y-16452788D02*
X10933631Y-16443265D01*
X10933631Y-16443265D02*
X10943155Y-16424217D01*
X10943155Y-16424217D02*
X10962202Y-16414693D01*
X10962202Y-16414693D02*
X10990774Y-16414693D01*
X10990774Y-16414693D02*
X11009821Y-16424217D01*
X11086012Y-16624217D02*
X11095536Y-16614693D01*
X11095536Y-16614693D02*
X11114583Y-16586122D01*
X11114583Y-16586122D02*
X11124107Y-16567074D01*
X11124107Y-16567074D02*
X11133631Y-16538503D01*
X11133631Y-16538503D02*
X11143155Y-16490884D01*
X11143155Y-16490884D02*
X11143155Y-16452788D01*
X11143155Y-16452788D02*
X11133631Y-16405169D01*
X11133631Y-16405169D02*
X11124107Y-16376598D01*
X11124107Y-16376598D02*
X11114583Y-16357550D01*
X11114583Y-16357550D02*
X11095536Y-16328979D01*
X11095536Y-16328979D02*
X11086012Y-16319455D01*
D14*
X6104364Y-16759434D02*
X6104364Y-16681652D01*
X6026581Y-16681652D01*
X6026581Y-16759434D01*
X6104364Y-16759434D01*
D11*
X6486011Y-16812027D02*
X6371725Y-16812027D01*
X6428868Y-16812027D02*
X6428868Y-16612027D01*
X6428868Y-16612027D02*
X6409821Y-16640598D01*
X6409821Y-16640598D02*
X6390773Y-16659646D01*
X6390773Y-16659646D02*
X6371725Y-16669169D01*
X6571725Y-16792979D02*
X6581249Y-16802503D01*
X6581249Y-16802503D02*
X6571725Y-16812027D01*
X6571725Y-16812027D02*
X6562202Y-16802503D01*
X6562202Y-16802503D02*
X6571725Y-16792979D01*
X6571725Y-16792979D02*
X6571725Y-16812027D01*
X6771725Y-16812027D02*
X6657440Y-16812027D01*
X6714583Y-16812027D02*
X6714583Y-16612027D01*
X6714583Y-16612027D02*
X6695535Y-16640598D01*
X6695535Y-16640598D02*
X6676487Y-16659646D01*
X6676487Y-16659646D02*
X6657440Y-16669169D01*
X6895535Y-16612027D02*
X6914583Y-16612027D01*
X6914583Y-16612027D02*
X6933630Y-16621550D01*
X6933630Y-16621550D02*
X6943154Y-16631074D01*
X6943154Y-16631074D02*
X6952678Y-16650122D01*
X6952678Y-16650122D02*
X6962202Y-16688217D01*
X6962202Y-16688217D02*
X6962202Y-16735836D01*
X6962202Y-16735836D02*
X6952678Y-16773931D01*
X6952678Y-16773931D02*
X6943154Y-16792979D01*
X6943154Y-16792979D02*
X6933630Y-16802503D01*
X6933630Y-16802503D02*
X6914583Y-16812027D01*
X6914583Y-16812027D02*
X6895535Y-16812027D01*
X6895535Y-16812027D02*
X6876487Y-16802503D01*
X6876487Y-16802503D02*
X6866964Y-16792979D01*
X6866964Y-16792979D02*
X6857440Y-16773931D01*
X6857440Y-16773931D02*
X6847916Y-16735836D01*
X6847916Y-16735836D02*
X6847916Y-16688217D01*
X6847916Y-16688217D02*
X6857440Y-16650122D01*
X6857440Y-16650122D02*
X6866964Y-16631074D01*
X6866964Y-16631074D02*
X6876487Y-16621550D01*
X6876487Y-16621550D02*
X6895535Y-16612027D01*
X7086011Y-16612027D02*
X7105059Y-16612027D01*
X7105059Y-16612027D02*
X7124106Y-16621550D01*
X7124106Y-16621550D02*
X7133630Y-16631074D01*
X7133630Y-16631074D02*
X7143154Y-16650122D01*
X7143154Y-16650122D02*
X7152678Y-16688217D01*
X7152678Y-16688217D02*
X7152678Y-16735836D01*
X7152678Y-16735836D02*
X7143154Y-16773931D01*
X7143154Y-16773931D02*
X7133630Y-16792979D01*
X7133630Y-16792979D02*
X7124106Y-16802503D01*
X7124106Y-16802503D02*
X7105059Y-16812027D01*
X7105059Y-16812027D02*
X7086011Y-16812027D01*
X7086011Y-16812027D02*
X7066964Y-16802503D01*
X7066964Y-16802503D02*
X7057440Y-16792979D01*
X7057440Y-16792979D02*
X7047916Y-16773931D01*
X7047916Y-16773931D02*
X7038392Y-16735836D01*
X7038392Y-16735836D02*
X7038392Y-16688217D01*
X7038392Y-16688217D02*
X7047916Y-16650122D01*
X7047916Y-16650122D02*
X7057440Y-16631074D01*
X7057440Y-16631074D02*
X7066964Y-16621550D01*
X7066964Y-16621550D02*
X7086011Y-16612027D01*
X7238392Y-16812027D02*
X7238392Y-16678693D01*
X7238392Y-16697741D02*
X7247916Y-16688217D01*
X7247916Y-16688217D02*
X7266964Y-16678693D01*
X7266964Y-16678693D02*
X7295535Y-16678693D01*
X7295535Y-16678693D02*
X7314583Y-16688217D01*
X7314583Y-16688217D02*
X7324106Y-16707265D01*
X7324106Y-16707265D02*
X7324106Y-16812027D01*
X7324106Y-16707265D02*
X7333630Y-16688217D01*
X7333630Y-16688217D02*
X7352678Y-16678693D01*
X7352678Y-16678693D02*
X7381249Y-16678693D01*
X7381249Y-16678693D02*
X7400297Y-16688217D01*
X7400297Y-16688217D02*
X7409821Y-16707265D01*
X7409821Y-16707265D02*
X7409821Y-16812027D01*
X7505059Y-16812027D02*
X7505059Y-16678693D01*
X7505059Y-16697741D02*
X7514583Y-16688217D01*
X7514583Y-16688217D02*
X7533630Y-16678693D01*
X7533630Y-16678693D02*
X7562202Y-16678693D01*
X7562202Y-16678693D02*
X7581249Y-16688217D01*
X7581249Y-16688217D02*
X7590773Y-16707265D01*
X7590773Y-16707265D02*
X7590773Y-16812027D01*
X7590773Y-16707265D02*
X7600297Y-16688217D01*
X7600297Y-16688217D02*
X7619345Y-16678693D01*
X7619345Y-16678693D02*
X7647916Y-16678693D01*
X7647916Y-16678693D02*
X7666964Y-16688217D01*
X7666964Y-16688217D02*
X7676487Y-16707265D01*
X7676487Y-16707265D02*
X7676487Y-16812027D01*
X8066964Y-16602503D02*
X7895535Y-16859646D01*
X8324107Y-16612027D02*
X8343154Y-16612027D01*
X8343154Y-16612027D02*
X8362202Y-16621550D01*
X8362202Y-16621550D02*
X8371726Y-16631074D01*
X8371726Y-16631074D02*
X8381249Y-16650122D01*
X8381249Y-16650122D02*
X8390773Y-16688217D01*
X8390773Y-16688217D02*
X8390773Y-16735836D01*
X8390773Y-16735836D02*
X8381249Y-16773931D01*
X8381249Y-16773931D02*
X8371726Y-16792979D01*
X8371726Y-16792979D02*
X8362202Y-16802503D01*
X8362202Y-16802503D02*
X8343154Y-16812027D01*
X8343154Y-16812027D02*
X8324107Y-16812027D01*
X8324107Y-16812027D02*
X8305059Y-16802503D01*
X8305059Y-16802503D02*
X8295535Y-16792979D01*
X8295535Y-16792979D02*
X8286011Y-16773931D01*
X8286011Y-16773931D02*
X8276488Y-16735836D01*
X8276488Y-16735836D02*
X8276488Y-16688217D01*
X8276488Y-16688217D02*
X8286011Y-16650122D01*
X8286011Y-16650122D02*
X8295535Y-16631074D01*
X8295535Y-16631074D02*
X8305059Y-16621550D01*
X8305059Y-16621550D02*
X8324107Y-16612027D01*
X8476488Y-16792979D02*
X8486011Y-16802503D01*
X8486011Y-16802503D02*
X8476488Y-16812027D01*
X8476488Y-16812027D02*
X8466964Y-16802503D01*
X8466964Y-16802503D02*
X8476488Y-16792979D01*
X8476488Y-16792979D02*
X8476488Y-16812027D01*
X8609821Y-16612027D02*
X8628869Y-16612027D01*
X8628869Y-16612027D02*
X8647916Y-16621550D01*
X8647916Y-16621550D02*
X8657440Y-16631074D01*
X8657440Y-16631074D02*
X8666964Y-16650122D01*
X8666964Y-16650122D02*
X8676488Y-16688217D01*
X8676488Y-16688217D02*
X8676488Y-16735836D01*
X8676488Y-16735836D02*
X8666964Y-16773931D01*
X8666964Y-16773931D02*
X8657440Y-16792979D01*
X8657440Y-16792979D02*
X8647916Y-16802503D01*
X8647916Y-16802503D02*
X8628869Y-16812027D01*
X8628869Y-16812027D02*
X8609821Y-16812027D01*
X8609821Y-16812027D02*
X8590773Y-16802503D01*
X8590773Y-16802503D02*
X8581250Y-16792979D01*
X8581250Y-16792979D02*
X8571726Y-16773931D01*
X8571726Y-16773931D02*
X8562202Y-16735836D01*
X8562202Y-16735836D02*
X8562202Y-16688217D01*
X8562202Y-16688217D02*
X8571726Y-16650122D01*
X8571726Y-16650122D02*
X8581250Y-16631074D01*
X8581250Y-16631074D02*
X8590773Y-16621550D01*
X8590773Y-16621550D02*
X8609821Y-16612027D01*
X8847916Y-16678693D02*
X8847916Y-16812027D01*
X8800297Y-16602503D02*
X8752678Y-16745360D01*
X8752678Y-16745360D02*
X8876488Y-16745360D01*
X8933631Y-16612027D02*
X9057440Y-16612027D01*
X9057440Y-16612027D02*
X8990773Y-16688217D01*
X8990773Y-16688217D02*
X9019345Y-16688217D01*
X9019345Y-16688217D02*
X9038392Y-16697741D01*
X9038392Y-16697741D02*
X9047916Y-16707265D01*
X9047916Y-16707265D02*
X9057440Y-16726312D01*
X9057440Y-16726312D02*
X9057440Y-16773931D01*
X9057440Y-16773931D02*
X9047916Y-16792979D01*
X9047916Y-16792979D02*
X9038392Y-16802503D01*
X9038392Y-16802503D02*
X9019345Y-16812027D01*
X9019345Y-16812027D02*
X8962202Y-16812027D01*
X8962202Y-16812027D02*
X8943154Y-16802503D01*
X8943154Y-16802503D02*
X8933631Y-16792979D01*
X9124107Y-16612027D02*
X9247916Y-16612027D01*
X9247916Y-16612027D02*
X9181250Y-16688217D01*
X9181250Y-16688217D02*
X9209821Y-16688217D01*
X9209821Y-16688217D02*
X9228869Y-16697741D01*
X9228869Y-16697741D02*
X9238392Y-16707265D01*
X9238392Y-16707265D02*
X9247916Y-16726312D01*
X9247916Y-16726312D02*
X9247916Y-16773931D01*
X9247916Y-16773931D02*
X9238392Y-16792979D01*
X9238392Y-16792979D02*
X9228869Y-16802503D01*
X9228869Y-16802503D02*
X9209821Y-16812027D01*
X9209821Y-16812027D02*
X9152678Y-16812027D01*
X9152678Y-16812027D02*
X9133631Y-16802503D01*
X9133631Y-16802503D02*
X9124107Y-16792979D01*
X9324107Y-16612027D02*
X9324107Y-16650122D01*
X9400297Y-16612027D02*
X9400297Y-16650122D01*
X9695535Y-16888217D02*
X9686012Y-16878693D01*
X9686012Y-16878693D02*
X9666964Y-16850122D01*
X9666964Y-16850122D02*
X9657440Y-16831074D01*
X9657440Y-16831074D02*
X9647916Y-16802503D01*
X9647916Y-16802503D02*
X9638393Y-16754884D01*
X9638393Y-16754884D02*
X9638393Y-16716788D01*
X9638393Y-16716788D02*
X9647916Y-16669169D01*
X9647916Y-16669169D02*
X9657440Y-16640598D01*
X9657440Y-16640598D02*
X9666964Y-16621550D01*
X9666964Y-16621550D02*
X9686012Y-16592979D01*
X9686012Y-16592979D02*
X9695535Y-16583455D01*
X9857440Y-16678693D02*
X9857440Y-16812027D01*
X9809821Y-16602503D02*
X9762202Y-16745360D01*
X9762202Y-16745360D02*
X9886012Y-16745360D01*
X10114583Y-16812027D02*
X10114583Y-16612027D01*
X10200297Y-16812027D02*
X10200297Y-16707265D01*
X10200297Y-16707265D02*
X10190774Y-16688217D01*
X10190774Y-16688217D02*
X10171726Y-16678693D01*
X10171726Y-16678693D02*
X10143154Y-16678693D01*
X10143154Y-16678693D02*
X10124107Y-16688217D01*
X10124107Y-16688217D02*
X10114583Y-16697741D01*
X10324107Y-16812027D02*
X10305059Y-16802503D01*
X10305059Y-16802503D02*
X10295535Y-16792979D01*
X10295535Y-16792979D02*
X10286012Y-16773931D01*
X10286012Y-16773931D02*
X10286012Y-16716788D01*
X10286012Y-16716788D02*
X10295535Y-16697741D01*
X10295535Y-16697741D02*
X10305059Y-16688217D01*
X10305059Y-16688217D02*
X10324107Y-16678693D01*
X10324107Y-16678693D02*
X10352678Y-16678693D01*
X10352678Y-16678693D02*
X10371726Y-16688217D01*
X10371726Y-16688217D02*
X10381250Y-16697741D01*
X10381250Y-16697741D02*
X10390774Y-16716788D01*
X10390774Y-16716788D02*
X10390774Y-16773931D01*
X10390774Y-16773931D02*
X10381250Y-16792979D01*
X10381250Y-16792979D02*
X10371726Y-16802503D01*
X10371726Y-16802503D02*
X10352678Y-16812027D01*
X10352678Y-16812027D02*
X10324107Y-16812027D01*
X10505059Y-16812027D02*
X10486012Y-16802503D01*
X10486012Y-16802503D02*
X10476488Y-16783455D01*
X10476488Y-16783455D02*
X10476488Y-16612027D01*
X10657440Y-16802503D02*
X10638393Y-16812027D01*
X10638393Y-16812027D02*
X10600297Y-16812027D01*
X10600297Y-16812027D02*
X10581250Y-16802503D01*
X10581250Y-16802503D02*
X10571726Y-16783455D01*
X10571726Y-16783455D02*
X10571726Y-16707265D01*
X10571726Y-16707265D02*
X10581250Y-16688217D01*
X10581250Y-16688217D02*
X10600297Y-16678693D01*
X10600297Y-16678693D02*
X10638393Y-16678693D01*
X10638393Y-16678693D02*
X10657440Y-16688217D01*
X10657440Y-16688217D02*
X10666964Y-16707265D01*
X10666964Y-16707265D02*
X10666964Y-16726312D01*
X10666964Y-16726312D02*
X10571726Y-16745360D01*
X10743155Y-16802503D02*
X10762202Y-16812027D01*
X10762202Y-16812027D02*
X10800297Y-16812027D01*
X10800297Y-16812027D02*
X10819345Y-16802503D01*
X10819345Y-16802503D02*
X10828869Y-16783455D01*
X10828869Y-16783455D02*
X10828869Y-16773931D01*
X10828869Y-16773931D02*
X10819345Y-16754884D01*
X10819345Y-16754884D02*
X10800297Y-16745360D01*
X10800297Y-16745360D02*
X10771726Y-16745360D01*
X10771726Y-16745360D02*
X10752678Y-16735836D01*
X10752678Y-16735836D02*
X10743155Y-16716788D01*
X10743155Y-16716788D02*
X10743155Y-16707265D01*
X10743155Y-16707265D02*
X10752678Y-16688217D01*
X10752678Y-16688217D02*
X10771726Y-16678693D01*
X10771726Y-16678693D02*
X10800297Y-16678693D01*
X10800297Y-16678693D02*
X10819345Y-16688217D01*
X10895536Y-16888217D02*
X10905059Y-16878693D01*
X10905059Y-16878693D02*
X10924107Y-16850122D01*
X10924107Y-16850122D02*
X10933631Y-16831074D01*
X10933631Y-16831074D02*
X10943155Y-16802503D01*
X10943155Y-16802503D02*
X10952678Y-16754884D01*
X10952678Y-16754884D02*
X10952678Y-16716788D01*
X10952678Y-16716788D02*
X10943155Y-16669169D01*
X10943155Y-16669169D02*
X10933631Y-16640598D01*
X10933631Y-16640598D02*
X10924107Y-16621550D01*
X10924107Y-16621550D02*
X10905059Y-16592979D01*
X10905059Y-16592979D02*
X10895536Y-16583455D01*
D15*
X6060472Y-17044543D02*
X6120472Y-16984543D01*
X6060472Y-16924543D01*
X6000472Y-16984543D01*
X6060472Y-17044543D01*
D11*
X6486011Y-17076027D02*
X6371725Y-17076027D01*
X6428868Y-17076027D02*
X6428868Y-16876027D01*
X6428868Y-16876027D02*
X6409821Y-16904598D01*
X6409821Y-16904598D02*
X6390773Y-16923646D01*
X6390773Y-16923646D02*
X6371725Y-16933169D01*
X6571725Y-17056979D02*
X6581249Y-17066503D01*
X6581249Y-17066503D02*
X6571725Y-17076027D01*
X6571725Y-17076027D02*
X6562202Y-17066503D01*
X6562202Y-17066503D02*
X6571725Y-17056979D01*
X6571725Y-17056979D02*
X6571725Y-17076027D01*
X6657440Y-16895074D02*
X6666964Y-16885550D01*
X6666964Y-16885550D02*
X6686011Y-16876027D01*
X6686011Y-16876027D02*
X6733630Y-16876027D01*
X6733630Y-16876027D02*
X6752678Y-16885550D01*
X6752678Y-16885550D02*
X6762202Y-16895074D01*
X6762202Y-16895074D02*
X6771725Y-16914122D01*
X6771725Y-16914122D02*
X6771725Y-16933169D01*
X6771725Y-16933169D02*
X6762202Y-16961741D01*
X6762202Y-16961741D02*
X6647916Y-17076027D01*
X6647916Y-17076027D02*
X6771725Y-17076027D01*
X6895535Y-16876027D02*
X6914583Y-16876027D01*
X6914583Y-16876027D02*
X6933630Y-16885550D01*
X6933630Y-16885550D02*
X6943154Y-16895074D01*
X6943154Y-16895074D02*
X6952678Y-16914122D01*
X6952678Y-16914122D02*
X6962202Y-16952217D01*
X6962202Y-16952217D02*
X6962202Y-16999836D01*
X6962202Y-16999836D02*
X6952678Y-17037931D01*
X6952678Y-17037931D02*
X6943154Y-17056979D01*
X6943154Y-17056979D02*
X6933630Y-17066503D01*
X6933630Y-17066503D02*
X6914583Y-17076027D01*
X6914583Y-17076027D02*
X6895535Y-17076027D01*
X6895535Y-17076027D02*
X6876487Y-17066503D01*
X6876487Y-17066503D02*
X6866964Y-17056979D01*
X6866964Y-17056979D02*
X6857440Y-17037931D01*
X6857440Y-17037931D02*
X6847916Y-16999836D01*
X6847916Y-16999836D02*
X6847916Y-16952217D01*
X6847916Y-16952217D02*
X6857440Y-16914122D01*
X6857440Y-16914122D02*
X6866964Y-16895074D01*
X6866964Y-16895074D02*
X6876487Y-16885550D01*
X6876487Y-16885550D02*
X6895535Y-16876027D01*
X7086011Y-16876027D02*
X7105059Y-16876027D01*
X7105059Y-16876027D02*
X7124106Y-16885550D01*
X7124106Y-16885550D02*
X7133630Y-16895074D01*
X7133630Y-16895074D02*
X7143154Y-16914122D01*
X7143154Y-16914122D02*
X7152678Y-16952217D01*
X7152678Y-16952217D02*
X7152678Y-16999836D01*
X7152678Y-16999836D02*
X7143154Y-17037931D01*
X7143154Y-17037931D02*
X7133630Y-17056979D01*
X7133630Y-17056979D02*
X7124106Y-17066503D01*
X7124106Y-17066503D02*
X7105059Y-17076027D01*
X7105059Y-17076027D02*
X7086011Y-17076027D01*
X7086011Y-17076027D02*
X7066964Y-17066503D01*
X7066964Y-17066503D02*
X7057440Y-17056979D01*
X7057440Y-17056979D02*
X7047916Y-17037931D01*
X7047916Y-17037931D02*
X7038392Y-16999836D01*
X7038392Y-16999836D02*
X7038392Y-16952217D01*
X7038392Y-16952217D02*
X7047916Y-16914122D01*
X7047916Y-16914122D02*
X7057440Y-16895074D01*
X7057440Y-16895074D02*
X7066964Y-16885550D01*
X7066964Y-16885550D02*
X7086011Y-16876027D01*
X7238392Y-17076027D02*
X7238392Y-16942693D01*
X7238392Y-16961741D02*
X7247916Y-16952217D01*
X7247916Y-16952217D02*
X7266964Y-16942693D01*
X7266964Y-16942693D02*
X7295535Y-16942693D01*
X7295535Y-16942693D02*
X7314583Y-16952217D01*
X7314583Y-16952217D02*
X7324106Y-16971265D01*
X7324106Y-16971265D02*
X7324106Y-17076027D01*
X7324106Y-16971265D02*
X7333630Y-16952217D01*
X7333630Y-16952217D02*
X7352678Y-16942693D01*
X7352678Y-16942693D02*
X7381249Y-16942693D01*
X7381249Y-16942693D02*
X7400297Y-16952217D01*
X7400297Y-16952217D02*
X7409821Y-16971265D01*
X7409821Y-16971265D02*
X7409821Y-17076027D01*
X7505059Y-17076027D02*
X7505059Y-16942693D01*
X7505059Y-16961741D02*
X7514583Y-16952217D01*
X7514583Y-16952217D02*
X7533630Y-16942693D01*
X7533630Y-16942693D02*
X7562202Y-16942693D01*
X7562202Y-16942693D02*
X7581249Y-16952217D01*
X7581249Y-16952217D02*
X7590773Y-16971265D01*
X7590773Y-16971265D02*
X7590773Y-17076027D01*
X7590773Y-16971265D02*
X7600297Y-16952217D01*
X7600297Y-16952217D02*
X7619345Y-16942693D01*
X7619345Y-16942693D02*
X7647916Y-16942693D01*
X7647916Y-16942693D02*
X7666964Y-16952217D01*
X7666964Y-16952217D02*
X7676487Y-16971265D01*
X7676487Y-16971265D02*
X7676487Y-17076027D01*
X8066964Y-16866503D02*
X7895535Y-17123646D01*
X8324107Y-16876027D02*
X8343154Y-16876027D01*
X8343154Y-16876027D02*
X8362202Y-16885550D01*
X8362202Y-16885550D02*
X8371726Y-16895074D01*
X8371726Y-16895074D02*
X8381249Y-16914122D01*
X8381249Y-16914122D02*
X8390773Y-16952217D01*
X8390773Y-16952217D02*
X8390773Y-16999836D01*
X8390773Y-16999836D02*
X8381249Y-17037931D01*
X8381249Y-17037931D02*
X8371726Y-17056979D01*
X8371726Y-17056979D02*
X8362202Y-17066503D01*
X8362202Y-17066503D02*
X8343154Y-17076027D01*
X8343154Y-17076027D02*
X8324107Y-17076027D01*
X8324107Y-17076027D02*
X8305059Y-17066503D01*
X8305059Y-17066503D02*
X8295535Y-17056979D01*
X8295535Y-17056979D02*
X8286011Y-17037931D01*
X8286011Y-17037931D02*
X8276488Y-16999836D01*
X8276488Y-16999836D02*
X8276488Y-16952217D01*
X8276488Y-16952217D02*
X8286011Y-16914122D01*
X8286011Y-16914122D02*
X8295535Y-16895074D01*
X8295535Y-16895074D02*
X8305059Y-16885550D01*
X8305059Y-16885550D02*
X8324107Y-16876027D01*
X8476488Y-17056979D02*
X8486011Y-17066503D01*
X8486011Y-17066503D02*
X8476488Y-17076027D01*
X8476488Y-17076027D02*
X8466964Y-17066503D01*
X8466964Y-17066503D02*
X8476488Y-17056979D01*
X8476488Y-17056979D02*
X8476488Y-17076027D01*
X8609821Y-16876027D02*
X8628869Y-16876027D01*
X8628869Y-16876027D02*
X8647916Y-16885550D01*
X8647916Y-16885550D02*
X8657440Y-16895074D01*
X8657440Y-16895074D02*
X8666964Y-16914122D01*
X8666964Y-16914122D02*
X8676488Y-16952217D01*
X8676488Y-16952217D02*
X8676488Y-16999836D01*
X8676488Y-16999836D02*
X8666964Y-17037931D01*
X8666964Y-17037931D02*
X8657440Y-17056979D01*
X8657440Y-17056979D02*
X8647916Y-17066503D01*
X8647916Y-17066503D02*
X8628869Y-17076027D01*
X8628869Y-17076027D02*
X8609821Y-17076027D01*
X8609821Y-17076027D02*
X8590773Y-17066503D01*
X8590773Y-17066503D02*
X8581250Y-17056979D01*
X8581250Y-17056979D02*
X8571726Y-17037931D01*
X8571726Y-17037931D02*
X8562202Y-16999836D01*
X8562202Y-16999836D02*
X8562202Y-16952217D01*
X8562202Y-16952217D02*
X8571726Y-16914122D01*
X8571726Y-16914122D02*
X8581250Y-16895074D01*
X8581250Y-16895074D02*
X8590773Y-16885550D01*
X8590773Y-16885550D02*
X8609821Y-16876027D01*
X8847916Y-16942693D02*
X8847916Y-17076027D01*
X8800297Y-16866503D02*
X8752678Y-17009360D01*
X8752678Y-17009360D02*
X8876488Y-17009360D01*
X8933631Y-16876027D02*
X9066964Y-16876027D01*
X9066964Y-16876027D02*
X8981250Y-17076027D01*
X9133631Y-16895074D02*
X9143154Y-16885550D01*
X9143154Y-16885550D02*
X9162202Y-16876027D01*
X9162202Y-16876027D02*
X9209821Y-16876027D01*
X9209821Y-16876027D02*
X9228869Y-16885550D01*
X9228869Y-16885550D02*
X9238392Y-16895074D01*
X9238392Y-16895074D02*
X9247916Y-16914122D01*
X9247916Y-16914122D02*
X9247916Y-16933169D01*
X9247916Y-16933169D02*
X9238392Y-16961741D01*
X9238392Y-16961741D02*
X9124107Y-17076027D01*
X9124107Y-17076027D02*
X9247916Y-17076027D01*
X9324107Y-16876027D02*
X9324107Y-16914122D01*
X9400297Y-16876027D02*
X9400297Y-16914122D01*
X9695535Y-17152217D02*
X9686012Y-17142693D01*
X9686012Y-17142693D02*
X9666964Y-17114122D01*
X9666964Y-17114122D02*
X9657440Y-17095074D01*
X9657440Y-17095074D02*
X9647916Y-17066503D01*
X9647916Y-17066503D02*
X9638393Y-17018884D01*
X9638393Y-17018884D02*
X9638393Y-16980789D01*
X9638393Y-16980789D02*
X9647916Y-16933169D01*
X9647916Y-16933169D02*
X9657440Y-16904598D01*
X9657440Y-16904598D02*
X9666964Y-16885550D01*
X9666964Y-16885550D02*
X9686012Y-16856979D01*
X9686012Y-16856979D02*
X9695535Y-16847455D01*
X9857440Y-16876027D02*
X9819345Y-16876027D01*
X9819345Y-16876027D02*
X9800297Y-16885550D01*
X9800297Y-16885550D02*
X9790773Y-16895074D01*
X9790773Y-16895074D02*
X9771726Y-16923646D01*
X9771726Y-16923646D02*
X9762202Y-16961741D01*
X9762202Y-16961741D02*
X9762202Y-17037931D01*
X9762202Y-17037931D02*
X9771726Y-17056979D01*
X9771726Y-17056979D02*
X9781250Y-17066503D01*
X9781250Y-17066503D02*
X9800297Y-17076027D01*
X9800297Y-17076027D02*
X9838393Y-17076027D01*
X9838393Y-17076027D02*
X9857440Y-17066503D01*
X9857440Y-17066503D02*
X9866964Y-17056979D01*
X9866964Y-17056979D02*
X9876488Y-17037931D01*
X9876488Y-17037931D02*
X9876488Y-16990312D01*
X9876488Y-16990312D02*
X9866964Y-16971265D01*
X9866964Y-16971265D02*
X9857440Y-16961741D01*
X9857440Y-16961741D02*
X9838393Y-16952217D01*
X9838393Y-16952217D02*
X9800297Y-16952217D01*
X9800297Y-16952217D02*
X9781250Y-16961741D01*
X9781250Y-16961741D02*
X9771726Y-16971265D01*
X9771726Y-16971265D02*
X9762202Y-16990312D01*
X10000297Y-16876027D02*
X10019345Y-16876027D01*
X10019345Y-16876027D02*
X10038393Y-16885550D01*
X10038393Y-16885550D02*
X10047916Y-16895074D01*
X10047916Y-16895074D02*
X10057440Y-16914122D01*
X10057440Y-16914122D02*
X10066964Y-16952217D01*
X10066964Y-16952217D02*
X10066964Y-16999836D01*
X10066964Y-16999836D02*
X10057440Y-17037931D01*
X10057440Y-17037931D02*
X10047916Y-17056979D01*
X10047916Y-17056979D02*
X10038393Y-17066503D01*
X10038393Y-17066503D02*
X10019345Y-17076027D01*
X10019345Y-17076027D02*
X10000297Y-17076027D01*
X10000297Y-17076027D02*
X9981250Y-17066503D01*
X9981250Y-17066503D02*
X9971726Y-17056979D01*
X9971726Y-17056979D02*
X9962202Y-17037931D01*
X9962202Y-17037931D02*
X9952678Y-16999836D01*
X9952678Y-16999836D02*
X9952678Y-16952217D01*
X9952678Y-16952217D02*
X9962202Y-16914122D01*
X9962202Y-16914122D02*
X9971726Y-16895074D01*
X9971726Y-16895074D02*
X9981250Y-16885550D01*
X9981250Y-16885550D02*
X10000297Y-16876027D01*
X10305059Y-17076027D02*
X10305059Y-16876027D01*
X10390774Y-17076027D02*
X10390774Y-16971265D01*
X10390774Y-16971265D02*
X10381250Y-16952217D01*
X10381250Y-16952217D02*
X10362202Y-16942693D01*
X10362202Y-16942693D02*
X10333631Y-16942693D01*
X10333631Y-16942693D02*
X10314583Y-16952217D01*
X10314583Y-16952217D02*
X10305059Y-16961741D01*
X10514583Y-17076027D02*
X10495535Y-17066503D01*
X10495535Y-17066503D02*
X10486012Y-17056979D01*
X10486012Y-17056979D02*
X10476488Y-17037931D01*
X10476488Y-17037931D02*
X10476488Y-16980789D01*
X10476488Y-16980789D02*
X10486012Y-16961741D01*
X10486012Y-16961741D02*
X10495535Y-16952217D01*
X10495535Y-16952217D02*
X10514583Y-16942693D01*
X10514583Y-16942693D02*
X10543155Y-16942693D01*
X10543155Y-16942693D02*
X10562202Y-16952217D01*
X10562202Y-16952217D02*
X10571726Y-16961741D01*
X10571726Y-16961741D02*
X10581250Y-16980789D01*
X10581250Y-16980789D02*
X10581250Y-17037931D01*
X10581250Y-17037931D02*
X10571726Y-17056979D01*
X10571726Y-17056979D02*
X10562202Y-17066503D01*
X10562202Y-17066503D02*
X10543155Y-17076027D01*
X10543155Y-17076027D02*
X10514583Y-17076027D01*
X10695535Y-17076027D02*
X10676488Y-17066503D01*
X10676488Y-17066503D02*
X10666964Y-17047455D01*
X10666964Y-17047455D02*
X10666964Y-16876027D01*
X10847916Y-17066503D02*
X10828869Y-17076027D01*
X10828869Y-17076027D02*
X10790774Y-17076027D01*
X10790774Y-17076027D02*
X10771726Y-17066503D01*
X10771726Y-17066503D02*
X10762202Y-17047455D01*
X10762202Y-17047455D02*
X10762202Y-16971265D01*
X10762202Y-16971265D02*
X10771726Y-16952217D01*
X10771726Y-16952217D02*
X10790774Y-16942693D01*
X10790774Y-16942693D02*
X10828869Y-16942693D01*
X10828869Y-16942693D02*
X10847916Y-16952217D01*
X10847916Y-16952217D02*
X10857440Y-16971265D01*
X10857440Y-16971265D02*
X10857440Y-16990312D01*
X10857440Y-16990312D02*
X10762202Y-17009360D01*
X10933631Y-17066503D02*
X10952678Y-17076027D01*
X10952678Y-17076027D02*
X10990774Y-17076027D01*
X10990774Y-17076027D02*
X11009821Y-17066503D01*
X11009821Y-17066503D02*
X11019345Y-17047455D01*
X11019345Y-17047455D02*
X11019345Y-17037931D01*
X11019345Y-17037931D02*
X11009821Y-17018884D01*
X11009821Y-17018884D02*
X10990774Y-17009360D01*
X10990774Y-17009360D02*
X10962202Y-17009360D01*
X10962202Y-17009360D02*
X10943155Y-16999836D01*
X10943155Y-16999836D02*
X10933631Y-16980789D01*
X10933631Y-16980789D02*
X10933631Y-16971265D01*
X10933631Y-16971265D02*
X10943155Y-16952217D01*
X10943155Y-16952217D02*
X10962202Y-16942693D01*
X10962202Y-16942693D02*
X10990774Y-16942693D01*
X10990774Y-16942693D02*
X11009821Y-16952217D01*
X11086012Y-17152217D02*
X11095536Y-17142693D01*
X11095536Y-17142693D02*
X11114583Y-17114122D01*
X11114583Y-17114122D02*
X11124107Y-17095074D01*
X11124107Y-17095074D02*
X11133631Y-17066503D01*
X11133631Y-17066503D02*
X11143155Y-17018884D01*
X11143155Y-17018884D02*
X11143155Y-16980789D01*
X11143155Y-16980789D02*
X11133631Y-16933169D01*
X11133631Y-16933169D02*
X11124107Y-16904598D01*
X11124107Y-16904598D02*
X11114583Y-16885550D01*
X11114583Y-16885550D02*
X11095536Y-16856979D01*
X11095536Y-16856979D02*
X11086012Y-16847455D01*
D16*
X5968072Y-17172343D02*
X6120472Y-17324743D01*
X6120472Y-17172343D02*
X5968072Y-17324743D01*
X6120472Y-17248543D02*
G75*
G02*
X5968072Y-17248543I-76200J0D01*
G01*
X5968072Y-17248543D02*
G75*
G02*
X6120472Y-17248543I76200J0D01*
G01*
D11*
X6486011Y-17340027D02*
X6371725Y-17340027D01*
X6428868Y-17340027D02*
X6428868Y-17140027D01*
X6428868Y-17140027D02*
X6409821Y-17168598D01*
X6409821Y-17168598D02*
X6390773Y-17187646D01*
X6390773Y-17187646D02*
X6371725Y-17197169D01*
X6571725Y-17320979D02*
X6581249Y-17330503D01*
X6581249Y-17330503D02*
X6571725Y-17340027D01*
X6571725Y-17340027D02*
X6562202Y-17330503D01*
X6562202Y-17330503D02*
X6571725Y-17320979D01*
X6571725Y-17320979D02*
X6571725Y-17340027D01*
X6762202Y-17140027D02*
X6666964Y-17140027D01*
X6666964Y-17140027D02*
X6657440Y-17235265D01*
X6657440Y-17235265D02*
X6666964Y-17225741D01*
X6666964Y-17225741D02*
X6686011Y-17216217D01*
X6686011Y-17216217D02*
X6733630Y-17216217D01*
X6733630Y-17216217D02*
X6752678Y-17225741D01*
X6752678Y-17225741D02*
X6762202Y-17235265D01*
X6762202Y-17235265D02*
X6771725Y-17254312D01*
X6771725Y-17254312D02*
X6771725Y-17301931D01*
X6771725Y-17301931D02*
X6762202Y-17320979D01*
X6762202Y-17320979D02*
X6752678Y-17330503D01*
X6752678Y-17330503D02*
X6733630Y-17340027D01*
X6733630Y-17340027D02*
X6686011Y-17340027D01*
X6686011Y-17340027D02*
X6666964Y-17330503D01*
X6666964Y-17330503D02*
X6657440Y-17320979D01*
X6847916Y-17159074D02*
X6857440Y-17149550D01*
X6857440Y-17149550D02*
X6876487Y-17140027D01*
X6876487Y-17140027D02*
X6924106Y-17140027D01*
X6924106Y-17140027D02*
X6943154Y-17149550D01*
X6943154Y-17149550D02*
X6952678Y-17159074D01*
X6952678Y-17159074D02*
X6962202Y-17178122D01*
X6962202Y-17178122D02*
X6962202Y-17197169D01*
X6962202Y-17197169D02*
X6952678Y-17225741D01*
X6952678Y-17225741D02*
X6838392Y-17340027D01*
X6838392Y-17340027D02*
X6962202Y-17340027D01*
X7133630Y-17206693D02*
X7133630Y-17340027D01*
X7086011Y-17130503D02*
X7038392Y-17273360D01*
X7038392Y-17273360D02*
X7162202Y-17273360D01*
X7238392Y-17340027D02*
X7238392Y-17206693D01*
X7238392Y-17225741D02*
X7247916Y-17216217D01*
X7247916Y-17216217D02*
X7266964Y-17206693D01*
X7266964Y-17206693D02*
X7295535Y-17206693D01*
X7295535Y-17206693D02*
X7314583Y-17216217D01*
X7314583Y-17216217D02*
X7324106Y-17235265D01*
X7324106Y-17235265D02*
X7324106Y-17340027D01*
X7324106Y-17235265D02*
X7333630Y-17216217D01*
X7333630Y-17216217D02*
X7352678Y-17206693D01*
X7352678Y-17206693D02*
X7381249Y-17206693D01*
X7381249Y-17206693D02*
X7400297Y-17216217D01*
X7400297Y-17216217D02*
X7409821Y-17235265D01*
X7409821Y-17235265D02*
X7409821Y-17340027D01*
X7505059Y-17340027D02*
X7505059Y-17206693D01*
X7505059Y-17225741D02*
X7514583Y-17216217D01*
X7514583Y-17216217D02*
X7533630Y-17206693D01*
X7533630Y-17206693D02*
X7562202Y-17206693D01*
X7562202Y-17206693D02*
X7581249Y-17216217D01*
X7581249Y-17216217D02*
X7590773Y-17235265D01*
X7590773Y-17235265D02*
X7590773Y-17340027D01*
X7590773Y-17235265D02*
X7600297Y-17216217D01*
X7600297Y-17216217D02*
X7619345Y-17206693D01*
X7619345Y-17206693D02*
X7647916Y-17206693D01*
X7647916Y-17206693D02*
X7666964Y-17216217D01*
X7666964Y-17216217D02*
X7676487Y-17235265D01*
X7676487Y-17235265D02*
X7676487Y-17340027D01*
X8066964Y-17130503D02*
X7895535Y-17387646D01*
X8324107Y-17140027D02*
X8343154Y-17140027D01*
X8343154Y-17140027D02*
X8362202Y-17149550D01*
X8362202Y-17149550D02*
X8371726Y-17159074D01*
X8371726Y-17159074D02*
X8381249Y-17178122D01*
X8381249Y-17178122D02*
X8390773Y-17216217D01*
X8390773Y-17216217D02*
X8390773Y-17263836D01*
X8390773Y-17263836D02*
X8381249Y-17301931D01*
X8381249Y-17301931D02*
X8371726Y-17320979D01*
X8371726Y-17320979D02*
X8362202Y-17330503D01*
X8362202Y-17330503D02*
X8343154Y-17340027D01*
X8343154Y-17340027D02*
X8324107Y-17340027D01*
X8324107Y-17340027D02*
X8305059Y-17330503D01*
X8305059Y-17330503D02*
X8295535Y-17320979D01*
X8295535Y-17320979D02*
X8286011Y-17301931D01*
X8286011Y-17301931D02*
X8276488Y-17263836D01*
X8276488Y-17263836D02*
X8276488Y-17216217D01*
X8276488Y-17216217D02*
X8286011Y-17178122D01*
X8286011Y-17178122D02*
X8295535Y-17159074D01*
X8295535Y-17159074D02*
X8305059Y-17149550D01*
X8305059Y-17149550D02*
X8324107Y-17140027D01*
X8476488Y-17320979D02*
X8486011Y-17330503D01*
X8486011Y-17330503D02*
X8476488Y-17340027D01*
X8476488Y-17340027D02*
X8466964Y-17330503D01*
X8466964Y-17330503D02*
X8476488Y-17320979D01*
X8476488Y-17320979D02*
X8476488Y-17340027D01*
X8609821Y-17140027D02*
X8628869Y-17140027D01*
X8628869Y-17140027D02*
X8647916Y-17149550D01*
X8647916Y-17149550D02*
X8657440Y-17159074D01*
X8657440Y-17159074D02*
X8666964Y-17178122D01*
X8666964Y-17178122D02*
X8676488Y-17216217D01*
X8676488Y-17216217D02*
X8676488Y-17263836D01*
X8676488Y-17263836D02*
X8666964Y-17301931D01*
X8666964Y-17301931D02*
X8657440Y-17320979D01*
X8657440Y-17320979D02*
X8647916Y-17330503D01*
X8647916Y-17330503D02*
X8628869Y-17340027D01*
X8628869Y-17340027D02*
X8609821Y-17340027D01*
X8609821Y-17340027D02*
X8590773Y-17330503D01*
X8590773Y-17330503D02*
X8581250Y-17320979D01*
X8581250Y-17320979D02*
X8571726Y-17301931D01*
X8571726Y-17301931D02*
X8562202Y-17263836D01*
X8562202Y-17263836D02*
X8562202Y-17216217D01*
X8562202Y-17216217D02*
X8571726Y-17178122D01*
X8571726Y-17178122D02*
X8581250Y-17159074D01*
X8581250Y-17159074D02*
X8590773Y-17149550D01*
X8590773Y-17149550D02*
X8609821Y-17140027D01*
X8847916Y-17140027D02*
X8809821Y-17140027D01*
X8809821Y-17140027D02*
X8790773Y-17149550D01*
X8790773Y-17149550D02*
X8781250Y-17159074D01*
X8781250Y-17159074D02*
X8762202Y-17187646D01*
X8762202Y-17187646D02*
X8752678Y-17225741D01*
X8752678Y-17225741D02*
X8752678Y-17301931D01*
X8752678Y-17301931D02*
X8762202Y-17320979D01*
X8762202Y-17320979D02*
X8771726Y-17330503D01*
X8771726Y-17330503D02*
X8790773Y-17340027D01*
X8790773Y-17340027D02*
X8828869Y-17340027D01*
X8828869Y-17340027D02*
X8847916Y-17330503D01*
X8847916Y-17330503D02*
X8857440Y-17320979D01*
X8857440Y-17320979D02*
X8866964Y-17301931D01*
X8866964Y-17301931D02*
X8866964Y-17254312D01*
X8866964Y-17254312D02*
X8857440Y-17235265D01*
X8857440Y-17235265D02*
X8847916Y-17225741D01*
X8847916Y-17225741D02*
X8828869Y-17216217D01*
X8828869Y-17216217D02*
X8790773Y-17216217D01*
X8790773Y-17216217D02*
X8771726Y-17225741D01*
X8771726Y-17225741D02*
X8762202Y-17235265D01*
X8762202Y-17235265D02*
X8752678Y-17254312D01*
X8990773Y-17140027D02*
X9009821Y-17140027D01*
X9009821Y-17140027D02*
X9028869Y-17149550D01*
X9028869Y-17149550D02*
X9038392Y-17159074D01*
X9038392Y-17159074D02*
X9047916Y-17178122D01*
X9047916Y-17178122D02*
X9057440Y-17216217D01*
X9057440Y-17216217D02*
X9057440Y-17263836D01*
X9057440Y-17263836D02*
X9047916Y-17301931D01*
X9047916Y-17301931D02*
X9038392Y-17320979D01*
X9038392Y-17320979D02*
X9028869Y-17330503D01*
X9028869Y-17330503D02*
X9009821Y-17340027D01*
X9009821Y-17340027D02*
X8990773Y-17340027D01*
X8990773Y-17340027D02*
X8971726Y-17330503D01*
X8971726Y-17330503D02*
X8962202Y-17320979D01*
X8962202Y-17320979D02*
X8952678Y-17301931D01*
X8952678Y-17301931D02*
X8943154Y-17263836D01*
X8943154Y-17263836D02*
X8943154Y-17216217D01*
X8943154Y-17216217D02*
X8952678Y-17178122D01*
X8952678Y-17178122D02*
X8962202Y-17159074D01*
X8962202Y-17159074D02*
X8971726Y-17149550D01*
X8971726Y-17149550D02*
X8990773Y-17140027D01*
X9181250Y-17140027D02*
X9200297Y-17140027D01*
X9200297Y-17140027D02*
X9219345Y-17149550D01*
X9219345Y-17149550D02*
X9228869Y-17159074D01*
X9228869Y-17159074D02*
X9238392Y-17178122D01*
X9238392Y-17178122D02*
X9247916Y-17216217D01*
X9247916Y-17216217D02*
X9247916Y-17263836D01*
X9247916Y-17263836D02*
X9238392Y-17301931D01*
X9238392Y-17301931D02*
X9228869Y-17320979D01*
X9228869Y-17320979D02*
X9219345Y-17330503D01*
X9219345Y-17330503D02*
X9200297Y-17340027D01*
X9200297Y-17340027D02*
X9181250Y-17340027D01*
X9181250Y-17340027D02*
X9162202Y-17330503D01*
X9162202Y-17330503D02*
X9152678Y-17320979D01*
X9152678Y-17320979D02*
X9143154Y-17301931D01*
X9143154Y-17301931D02*
X9133631Y-17263836D01*
X9133631Y-17263836D02*
X9133631Y-17216217D01*
X9133631Y-17216217D02*
X9143154Y-17178122D01*
X9143154Y-17178122D02*
X9152678Y-17159074D01*
X9152678Y-17159074D02*
X9162202Y-17149550D01*
X9162202Y-17149550D02*
X9181250Y-17140027D01*
X9324107Y-17140027D02*
X9324107Y-17178122D01*
X9400297Y-17140027D02*
X9400297Y-17178122D01*
X9695535Y-17416217D02*
X9686012Y-17406693D01*
X9686012Y-17406693D02*
X9666964Y-17378122D01*
X9666964Y-17378122D02*
X9657440Y-17359074D01*
X9657440Y-17359074D02*
X9647916Y-17330503D01*
X9647916Y-17330503D02*
X9638393Y-17282884D01*
X9638393Y-17282884D02*
X9638393Y-17244789D01*
X9638393Y-17244789D02*
X9647916Y-17197169D01*
X9647916Y-17197169D02*
X9657440Y-17168598D01*
X9657440Y-17168598D02*
X9666964Y-17149550D01*
X9666964Y-17149550D02*
X9686012Y-17120979D01*
X9686012Y-17120979D02*
X9695535Y-17111455D01*
X9857440Y-17140027D02*
X9819345Y-17140027D01*
X9819345Y-17140027D02*
X9800297Y-17149550D01*
X9800297Y-17149550D02*
X9790773Y-17159074D01*
X9790773Y-17159074D02*
X9771726Y-17187646D01*
X9771726Y-17187646D02*
X9762202Y-17225741D01*
X9762202Y-17225741D02*
X9762202Y-17301931D01*
X9762202Y-17301931D02*
X9771726Y-17320979D01*
X9771726Y-17320979D02*
X9781250Y-17330503D01*
X9781250Y-17330503D02*
X9800297Y-17340027D01*
X9800297Y-17340027D02*
X9838393Y-17340027D01*
X9838393Y-17340027D02*
X9857440Y-17330503D01*
X9857440Y-17330503D02*
X9866964Y-17320979D01*
X9866964Y-17320979D02*
X9876488Y-17301931D01*
X9876488Y-17301931D02*
X9876488Y-17254312D01*
X9876488Y-17254312D02*
X9866964Y-17235265D01*
X9866964Y-17235265D02*
X9857440Y-17225741D01*
X9857440Y-17225741D02*
X9838393Y-17216217D01*
X9838393Y-17216217D02*
X9800297Y-17216217D01*
X9800297Y-17216217D02*
X9781250Y-17225741D01*
X9781250Y-17225741D02*
X9771726Y-17235265D01*
X9771726Y-17235265D02*
X9762202Y-17254312D01*
X10000297Y-17140027D02*
X10019345Y-17140027D01*
X10019345Y-17140027D02*
X10038393Y-17149550D01*
X10038393Y-17149550D02*
X10047916Y-17159074D01*
X10047916Y-17159074D02*
X10057440Y-17178122D01*
X10057440Y-17178122D02*
X10066964Y-17216217D01*
X10066964Y-17216217D02*
X10066964Y-17263836D01*
X10066964Y-17263836D02*
X10057440Y-17301931D01*
X10057440Y-17301931D02*
X10047916Y-17320979D01*
X10047916Y-17320979D02*
X10038393Y-17330503D01*
X10038393Y-17330503D02*
X10019345Y-17340027D01*
X10019345Y-17340027D02*
X10000297Y-17340027D01*
X10000297Y-17340027D02*
X9981250Y-17330503D01*
X9981250Y-17330503D02*
X9971726Y-17320979D01*
X9971726Y-17320979D02*
X9962202Y-17301931D01*
X9962202Y-17301931D02*
X9952678Y-17263836D01*
X9952678Y-17263836D02*
X9952678Y-17216217D01*
X9952678Y-17216217D02*
X9962202Y-17178122D01*
X9962202Y-17178122D02*
X9971726Y-17159074D01*
X9971726Y-17159074D02*
X9981250Y-17149550D01*
X9981250Y-17149550D02*
X10000297Y-17140027D01*
X10305059Y-17340027D02*
X10305059Y-17140027D01*
X10390774Y-17340027D02*
X10390774Y-17235265D01*
X10390774Y-17235265D02*
X10381250Y-17216217D01*
X10381250Y-17216217D02*
X10362202Y-17206693D01*
X10362202Y-17206693D02*
X10333631Y-17206693D01*
X10333631Y-17206693D02*
X10314583Y-17216217D01*
X10314583Y-17216217D02*
X10305059Y-17225741D01*
X10514583Y-17340027D02*
X10495535Y-17330503D01*
X10495535Y-17330503D02*
X10486012Y-17320979D01*
X10486012Y-17320979D02*
X10476488Y-17301931D01*
X10476488Y-17301931D02*
X10476488Y-17244789D01*
X10476488Y-17244789D02*
X10486012Y-17225741D01*
X10486012Y-17225741D02*
X10495535Y-17216217D01*
X10495535Y-17216217D02*
X10514583Y-17206693D01*
X10514583Y-17206693D02*
X10543155Y-17206693D01*
X10543155Y-17206693D02*
X10562202Y-17216217D01*
X10562202Y-17216217D02*
X10571726Y-17225741D01*
X10571726Y-17225741D02*
X10581250Y-17244789D01*
X10581250Y-17244789D02*
X10581250Y-17301931D01*
X10581250Y-17301931D02*
X10571726Y-17320979D01*
X10571726Y-17320979D02*
X10562202Y-17330503D01*
X10562202Y-17330503D02*
X10543155Y-17340027D01*
X10543155Y-17340027D02*
X10514583Y-17340027D01*
X10695535Y-17340027D02*
X10676488Y-17330503D01*
X10676488Y-17330503D02*
X10666964Y-17311455D01*
X10666964Y-17311455D02*
X10666964Y-17140027D01*
X10847916Y-17330503D02*
X10828869Y-17340027D01*
X10828869Y-17340027D02*
X10790774Y-17340027D01*
X10790774Y-17340027D02*
X10771726Y-17330503D01*
X10771726Y-17330503D02*
X10762202Y-17311455D01*
X10762202Y-17311455D02*
X10762202Y-17235265D01*
X10762202Y-17235265D02*
X10771726Y-17216217D01*
X10771726Y-17216217D02*
X10790774Y-17206693D01*
X10790774Y-17206693D02*
X10828869Y-17206693D01*
X10828869Y-17206693D02*
X10847916Y-17216217D01*
X10847916Y-17216217D02*
X10857440Y-17235265D01*
X10857440Y-17235265D02*
X10857440Y-17254312D01*
X10857440Y-17254312D02*
X10762202Y-17273360D01*
X10933631Y-17330503D02*
X10952678Y-17340027D01*
X10952678Y-17340027D02*
X10990774Y-17340027D01*
X10990774Y-17340027D02*
X11009821Y-17330503D01*
X11009821Y-17330503D02*
X11019345Y-17311455D01*
X11019345Y-17311455D02*
X11019345Y-17301931D01*
X11019345Y-17301931D02*
X11009821Y-17282884D01*
X11009821Y-17282884D02*
X10990774Y-17273360D01*
X10990774Y-17273360D02*
X10962202Y-17273360D01*
X10962202Y-17273360D02*
X10943155Y-17263836D01*
X10943155Y-17263836D02*
X10933631Y-17244789D01*
X10933631Y-17244789D02*
X10933631Y-17235265D01*
X10933631Y-17235265D02*
X10943155Y-17216217D01*
X10943155Y-17216217D02*
X10962202Y-17206693D01*
X10962202Y-17206693D02*
X10990774Y-17206693D01*
X10990774Y-17206693D02*
X11009821Y-17216217D01*
X11086012Y-17416217D02*
X11095536Y-17406693D01*
X11095536Y-17406693D02*
X11114583Y-17378122D01*
X11114583Y-17378122D02*
X11124107Y-17359074D01*
X11124107Y-17359074D02*
X11133631Y-17330503D01*
X11133631Y-17330503D02*
X11143155Y-17282884D01*
X11143155Y-17282884D02*
X11143155Y-17244789D01*
X11143155Y-17244789D02*
X11133631Y-17197169D01*
X11133631Y-17197169D02*
X11124107Y-17168598D01*
X11124107Y-17168598D02*
X11114583Y-17149550D01*
X11114583Y-17149550D02*
X11095536Y-17120979D01*
X11095536Y-17120979D02*
X11086012Y-17111455D01*
M02*
