M48
; DRILL file {KiCad 8.0.6} date 2025-02-17T14:59:26-0500
; FORMAT={-:-/ absolute / inch / decimal}
; #@! TF.CreationDate,2025-02-17T14:59:26-05:00
; #@! TF.GenerationSoftware,Kicad,Pcbnew,8.0.6
; #@! TF.FileFunction,NonPlated,1,2,NPTH
FMAT,2
INCH
; #@! TA.AperFunction,NonPlated,NPTH,ComponentDrill
T1C0.0591
; #@! TA.AperFunction,NonPlated,NPTH,ComponentDrill
T2C0.0669
; #@! TA.AperFunction,NonPlated,NPTH,ComponentDrill
T3C0.0689
; #@! TA.AperFunction,NonPlated,NPTH,ComponentDrill
T4C0.1570
%
G90
G05
T1
X2.9169Y-3.328
X3.1925Y-3.328
T2
X2.6028Y-5.1318
X3.0359Y-5.1318
X3.3528Y-4.8158
X3.3528Y-5.5658
X3.7859Y-4.8158
X3.7859Y-5.5658
X4.1028Y-1.9664
X4.1028Y-2.7164
X4.1028Y-3.4664
X4.1028Y-4.2164
X4.1028Y-4.9664
X4.5359Y-1.9664
X4.5359Y-2.7164
X4.5359Y-3.4664
X4.5359Y-4.2164
X4.5359Y-4.9664
X4.8528Y-1.8719
X4.8528Y-2.6219
X4.8528Y-3.3719
X4.8528Y-4.1219
X4.8528Y-4.8719
X5.2859Y-1.8719
X5.2859Y-2.6219
X5.2859Y-3.3719
X5.2859Y-4.1219
X5.2859Y-4.8719
X5.6028Y-1.7538
X5.6028Y-2.5038
X5.6028Y-3.2538
X5.6028Y-4.0038
X5.6028Y-4.7538
X6.0359Y-1.7538
X6.0359Y-2.5038
X6.0359Y-3.2538
X6.0359Y-4.0038
X6.0359Y-4.7538
X6.3528Y-1.8139
X6.3528Y-2.5639
X6.3528Y-3.3139
X6.3528Y-4.0639
X6.7859Y-1.8139
X6.7859Y-2.5639
X6.7859Y-3.3139
X6.7859Y-4.0639
X7.1028Y-1.992
X7.1028Y-2.742
X7.1028Y-3.492
X7.1028Y-4.242
X7.5359Y-1.992
X7.5359Y-2.742
X7.5359Y-3.492
X7.5359Y-4.242
X7.8528Y-2.9336
X7.8528Y-3.6836
X7.8528Y-4.4336
X7.8538Y-2.1843
X8.2859Y-2.9336
X8.2859Y-3.6836
X8.2859Y-4.4336
X8.2869Y-2.1843
T3
X2.6194Y-5.1318
X3.0194Y-5.1318
X3.3694Y-4.8158
X3.3694Y-5.5658
X3.7694Y-4.8158
X3.7694Y-5.5658
X4.1194Y-1.9664
X4.1194Y-2.7164
X4.1194Y-3.4664
X4.1194Y-4.2164
X4.1194Y-4.9664
X4.5194Y-1.9664
X4.5194Y-2.7164
X4.5194Y-3.4664
X4.5194Y-4.2164
X4.5194Y-4.9664
X4.8694Y-1.8719
X4.8694Y-2.6219
X4.8694Y-3.3719
X4.8694Y-4.1219
X4.8694Y-4.8719
X5.2694Y-1.8719
X5.2694Y-2.6219
X5.2694Y-3.3719
X5.2694Y-4.1219
X5.2694Y-4.8719
X5.6194Y-1.7538
X5.6194Y-2.5038
X5.6194Y-3.2538
X5.6194Y-4.0038
X5.6194Y-4.7538
X6.0194Y-1.7538
X6.0194Y-2.5038
X6.0194Y-3.2538
X6.0194Y-4.0038
X6.0194Y-4.7538
X6.3694Y-1.8139
X6.3694Y-2.5639
X6.3694Y-3.3139
X6.3694Y-4.0639
X6.7694Y-1.8139
X6.7694Y-2.5639
X6.7694Y-3.3139
X6.7694Y-4.0639
X7.1194Y-1.992
X7.1194Y-2.742
X7.1194Y-3.492
X7.1194Y-4.242
X7.5194Y-1.992
X7.5194Y-2.742
X7.5194Y-3.492
X7.5194Y-4.242
X7.8694Y-2.9336
X7.8694Y-3.6836
X7.8694Y-4.4336
X7.8704Y-2.1843
X8.2694Y-2.9336
X8.2694Y-3.6836
X8.2694Y-4.4336
X8.2704Y-2.1843
T4
X2.8194Y-5.1318
X3.5694Y-4.8158
X3.5694Y-5.5658
X4.3194Y-1.9664
X4.3194Y-2.7164
X4.3194Y-3.4664
X4.3194Y-4.2164
X4.3194Y-4.9664
X5.0694Y-1.8719
X5.0694Y-2.6219
X5.0694Y-3.3719
X5.0694Y-4.1219
X5.0694Y-4.8719
X5.8194Y-1.7538
X5.8194Y-2.5038
X5.8194Y-3.2538
X5.8194Y-4.0038
X5.8194Y-4.7538
X6.5694Y-1.8139
X6.5694Y-2.5639
X6.5694Y-3.3139
X6.5694Y-4.0639
X7.3194Y-1.992
X7.3194Y-2.742
X7.3194Y-3.492
X7.3194Y-4.242
X8.0694Y-2.9336
X8.0694Y-3.6836
X8.0694Y-4.4336
X8.0704Y-2.1843
M30
