%TF.GenerationSoftware,KiCad,Pcbnew,8.0.6*%
%TF.CreationDate,2025-02-14T20:47:42-05:00*%
%TF.ProjectId,KeyBoard_2nd_half,4b657942-6f61-4726-945f-326e645f6861,rev?*%
%TF.SameCoordinates,Original*%
%TF.FileFunction,Copper,L1,Top*%
%TF.FilePolarity,Positive*%
%FSLAX46Y46*%
G04 Gerber Fmt 4.6, Leading zero omitted, Abs format (unit mm)*
G04 Created by KiCad (PCBNEW 8.0.6) date 2025-02-14 20:47:42*
%MOMM*%
%LPD*%
G01*
G04 APERTURE LIST*
%TA.AperFunction,ComponentPad*%
%ADD10C,2.300000*%
%TD*%
%TA.AperFunction,ComponentPad*%
%ADD11C,2.000000*%
%TD*%
%TA.AperFunction,ComponentPad*%
%ADD12C,1.400000*%
%TD*%
%TA.AperFunction,ComponentPad*%
%ADD13O,1.400000X1.400000*%
%TD*%
%TA.AperFunction,ComponentPad*%
%ADD14R,1.752600X1.752600*%
%TD*%
%TA.AperFunction,ComponentPad*%
%ADD15C,1.752600*%
%TD*%
%TA.AperFunction,ComponentPad*%
%ADD16R,1.600000X1.600000*%
%TD*%
%TA.AperFunction,ComponentPad*%
%ADD17O,1.600000X1.600000*%
%TD*%
%TA.AperFunction,Conductor*%
%ADD18C,0.200000*%
%TD*%
G04 APERTURE END LIST*
D10*
%TO.P,S36,1,1*%
%TO.N,R Col 1*%
X182102100Y-48056976D03*
D11*
X185912100Y-44696976D03*
D10*
%TO.P,S36,2,2*%
%TO.N,Net-(D36-A)*%
X188452100Y-45516976D03*
D11*
X190912100Y-46796976D03*
%TD*%
D10*
%TO.P,S57,1,1*%
%TO.N,R Col 5*%
X105902100Y-66456976D03*
D11*
X109712100Y-63096976D03*
D10*
%TO.P,S57,2,2*%
%TO.N,Net-(D57-A)*%
X112252100Y-63916976D03*
D11*
X114712100Y-65196976D03*
%TD*%
D10*
%TO.P,S56,1,1*%
%TO.N,R Col 5*%
X105902100Y-47406976D03*
D11*
X109712100Y-44046976D03*
D10*
%TO.P,S56,2,2*%
%TO.N,Net-(D56-A)*%
X112252100Y-44866976D03*
D11*
X114712100Y-46146976D03*
%TD*%
D10*
%TO.P,S42,1,1*%
%TO.N,R Col 2*%
X163052100Y-62581976D03*
D11*
X166862100Y-59221976D03*
D10*
%TO.P,S42,2,2*%
%TO.N,Net-(D42-A)*%
X169402100Y-60041976D03*
D11*
X171862100Y-61321976D03*
%TD*%
D10*
%TO.P,S51,1,1*%
%TO.N,R Col 4*%
X124952100Y-45006976D03*
D11*
X128762100Y-41646976D03*
D10*
%TO.P,S51,2,2*%
%TO.N,Net-(D51-A)*%
X131302100Y-42466976D03*
D11*
X133762100Y-43746976D03*
%TD*%
D10*
%TO.P,S59,1,1*%
%TO.N,R Col 5*%
X105902100Y-104556976D03*
D11*
X109712100Y-101196976D03*
D10*
%TO.P,S59,2,2*%
%TO.N,Net-(D59-A)*%
X112252100Y-102016976D03*
D11*
X114712100Y-103296976D03*
%TD*%
D10*
%TO.P,S34,1,1*%
%TO.N,R Col 0*%
X201152100Y-110072788D03*
D11*
X204962100Y-106712788D03*
D10*
%TO.P,S34,2,2*%
%TO.N,Net-(D34-A)*%
X207502100Y-107532788D03*
D11*
X209962100Y-108812788D03*
%TD*%
D10*
%TO.P,S37,1,1*%
%TO.N,R Col 1*%
X182102100Y-67106976D03*
D11*
X185912100Y-63746976D03*
D10*
%TO.P,S37,2,2*%
%TO.N,Net-(D37-A)*%
X188452100Y-64566976D03*
D11*
X190912100Y-65846976D03*
%TD*%
D10*
%TO.P,S31,1,1*%
%TO.N,R Col 0*%
X201177099Y-52941164D03*
D11*
X204987099Y-49581164D03*
D10*
%TO.P,S31,2,2*%
%TO.N,Net-(D31-A)*%
X207527099Y-50401164D03*
D11*
X209987099Y-51681164D03*
%TD*%
D10*
%TO.P,S53,1,1*%
%TO.N,R Col 4*%
X124952100Y-83106976D03*
D11*
X128762100Y-79746976D03*
D10*
%TO.P,S53,2,2*%
%TO.N,Net-(D53-A)*%
X131302100Y-80566976D03*
D11*
X133762100Y-81846976D03*
%TD*%
D12*
%TO.P,R4,1*%
%TO.N,VCC*%
X75383450Y-78276189D03*
D13*
%TO.P,R4,2*%
%TO.N,R Ring1*%
X75383450Y-73196189D03*
%TD*%
D10*
%TO.P,S55,1,1*%
%TO.N,R Col 4*%
X86852100Y-119781976D03*
D11*
X90662100Y-116421976D03*
D10*
%TO.P,S55,2,2*%
%TO.N,Net-(D55-A)*%
X93202100Y-117241976D03*
D11*
X95662100Y-118521976D03*
%TD*%
D10*
%TO.P,S48,1,1*%
%TO.N,R Col 3*%
X144002100Y-80106976D03*
D11*
X147812100Y-76746976D03*
D10*
%TO.P,S48,2,2*%
%TO.N,Net-(D48-A)*%
X150352100Y-77566976D03*
D11*
X152812100Y-78846976D03*
%TD*%
D10*
%TO.P,S52,1,1*%
%TO.N,R Col 4*%
X124952100Y-64056976D03*
D11*
X128762100Y-60696976D03*
D10*
%TO.P,S52,2,2*%
%TO.N,Net-(D52-A)*%
X131302100Y-61516976D03*
D11*
X133762100Y-62796976D03*
%TD*%
D10*
%TO.P,S35,1,1*%
%TO.N,R Col 0*%
X144002100Y-118206976D03*
D11*
X147812100Y-114846976D03*
D10*
%TO.P,S35,2,2*%
%TO.N,Net-(D35-A)*%
X150352100Y-115666976D03*
D11*
X152812100Y-116946976D03*
%TD*%
D10*
%TO.P,S41,1,1*%
%TO.N,R Col 2*%
X163052100Y-43531976D03*
D11*
X166862100Y-40171976D03*
D10*
%TO.P,S41,2,2*%
%TO.N,Net-(D41-A)*%
X169402100Y-40991976D03*
D11*
X171862100Y-42271976D03*
%TD*%
D10*
%TO.P,S58,1,1*%
%TO.N,R Col 5*%
X105902100Y-85506976D03*
D11*
X109712100Y-82146976D03*
D10*
%TO.P,S58,2,2*%
%TO.N,Net-(D58-A)*%
X112252100Y-82966976D03*
D11*
X114712100Y-84246976D03*
%TD*%
D12*
%TO.P,R3,1*%
%TO.N,VCC*%
X82393450Y-78286189D03*
D13*
%TO.P,R3,2*%
%TO.N,R Ring2*%
X82393450Y-73206189D03*
%TD*%
D10*
%TO.P,S45,1,1*%
%TO.N,R Col 2*%
X105902100Y-123606976D03*
D11*
X109712100Y-120246976D03*
D10*
%TO.P,S45,2,2*%
%TO.N,Net-(D45-A)*%
X112252100Y-121066976D03*
D11*
X114712100Y-122346976D03*
%TD*%
D10*
%TO.P,S47,1,1*%
%TO.N,R Col 3*%
X144002100Y-61056976D03*
D11*
X147812100Y-57696976D03*
D10*
%TO.P,S47,2,2*%
%TO.N,Net-(D47-A)*%
X150352100Y-58516976D03*
D11*
X152812100Y-59796976D03*
%TD*%
D10*
%TO.P,S43,1,1*%
%TO.N,R Col 2*%
X163052100Y-81631976D03*
D11*
X166862100Y-78271976D03*
D10*
%TO.P,S43,2,2*%
%TO.N,Net-(D43-A)*%
X169402100Y-79091976D03*
D11*
X171862100Y-80371976D03*
%TD*%
D10*
%TO.P,S60,1,1*%
%TO.N,R Col 5*%
X67802100Y-127806976D03*
D11*
X71612100Y-124446976D03*
D10*
%TO.P,S60,2,2*%
%TO.N,Net-(D60-A)*%
X74152100Y-125266976D03*
D11*
X76612100Y-126546976D03*
%TD*%
D14*
%TO.P,U4,1,TX0/PD3*%
%TO.N,unconnected-(U4-TX0{slash}PD3-Pad1)*%
X78417100Y-39206101D03*
D15*
%TO.P,U4,2,RX1/PD2*%
%TO.N,unconnected-(U4-RX1{slash}PD2-Pad2)*%
X78417100Y-41746101D03*
%TO.P,U4,3,GND*%
%TO.N,R GND*%
X78417100Y-44286101D03*
%TO.P,U4,4,GND*%
%TO.N,unconnected-(U4-GND-Pad4)*%
X78417100Y-46826101D03*
%TO.P,U4,5,2/PD1*%
%TO.N,R Ring2*%
X78417100Y-49366101D03*
%TO.P,U4,6,3/PD0*%
%TO.N,R Ring1*%
X78417100Y-51906101D03*
%TO.P,U4,7,4/PD4*%
%TO.N,R Col 0*%
X78417100Y-54446101D03*
%TO.P,U4,8,5/PC6*%
%TO.N,R Col 1*%
X78417100Y-56986101D03*
%TO.P,U4,9,6/PD7*%
%TO.N,R Col 2*%
X78417100Y-59526101D03*
%TO.P,U4,10,7/PE6*%
%TO.N,R Col 3*%
X78417100Y-62066101D03*
%TO.P,U4,11,8/PB4*%
%TO.N,R Col 4*%
X78417100Y-64606101D03*
%TO.P,U4,12,9/PB5*%
%TO.N,R Col 5*%
X78417100Y-67146101D03*
%TO.P,U4,13,10/PB6*%
%TO.N,unconnected-(U4-10{slash}PB6-Pad13)*%
X93657100Y-67146101D03*
%TO.P,U4,14,16/PB2*%
%TO.N,R Row 4*%
X93657100Y-64606101D03*
%TO.P,U4,15,14/PB3*%
%TO.N,R Row 3*%
X93657100Y-62066101D03*
%TO.P,U4,16,15/PB1*%
%TO.N,R Row 2*%
X93657100Y-59526101D03*
%TO.P,U4,17,A0/PF7*%
%TO.N,R Row 1*%
X93657100Y-56986101D03*
%TO.P,U4,18,A1/PF6*%
%TO.N,R Row 0*%
X93657100Y-54446101D03*
%TO.P,U4,19,A2/PF5*%
%TO.N,unconnected-(U4-A2{slash}PF5-Pad19)*%
X93657100Y-51906101D03*
%TO.P,U4,20,A3/PF4*%
%TO.N,unconnected-(U4-A3{slash}PF4-Pad20)*%
X93657100Y-49366101D03*
%TO.P,U4,21,VCC*%
%TO.N,R VCC*%
X93657100Y-46826101D03*
%TO.P,U4,22,RST*%
%TO.N,R RST*%
X93657100Y-44286101D03*
%TO.P,U4,23,GND*%
%TO.N,unconnected-(U4-GND-Pad23)*%
X93657100Y-41746101D03*
%TO.P,U4,24,RAW*%
%TO.N,unconnected-(U4-RAW-Pad24)*%
X93657100Y-39206101D03*
%TD*%
D10*
%TO.P,S54,1,1*%
%TO.N,R Col 4*%
X124952100Y-102156976D03*
D11*
X128762100Y-98796976D03*
D10*
%TO.P,S54,2,2*%
%TO.N,Net-(D54-A)*%
X131302100Y-99616976D03*
D11*
X133762100Y-100896976D03*
%TD*%
D10*
%TO.P,S49,1,1*%
%TO.N,R Col 3*%
X144002100Y-99156976D03*
D11*
X147812100Y-95796976D03*
D10*
%TO.P,S49,2,2*%
%TO.N,Net-(D49-A)*%
X150352100Y-96616976D03*
D11*
X152812100Y-97896976D03*
%TD*%
D10*
%TO.P,S44,1,1*%
%TO.N,R Col 2*%
X163052100Y-100681976D03*
D11*
X166862100Y-97321976D03*
D10*
%TO.P,S44,2,2*%
%TO.N,Net-(D44-A)*%
X169402100Y-98141976D03*
D11*
X171862100Y-99421976D03*
%TD*%
D10*
%TO.P,S38,1,1*%
%TO.N,R Col 1*%
X182102100Y-86156976D03*
D11*
X185912100Y-82796976D03*
D10*
%TO.P,S38,2,2*%
%TO.N,Net-(D38-A)*%
X188452100Y-83616976D03*
D11*
X190912100Y-84896976D03*
%TD*%
%TO.P,SW2,1,1*%
%TO.N,R GND*%
X80378450Y-92696189D03*
X80378450Y-99196189D03*
%TO.P,SW2,2,2*%
%TO.N,R RST*%
X75878450Y-92696189D03*
X75878450Y-99196189D03*
%TD*%
%TO.P,U3,1,Sleeve*%
%TO.N,R GND*%
X83538450Y-86730039D03*
%TO.P,U3,2,Tip*%
%TO.N,VCC*%
X82538450Y-82330039D03*
%TO.P,U3,3,Ring1*%
%TO.N,R Ring2*%
X78538450Y-82330039D03*
%TO.P,U3,4,Ring2*%
%TO.N,R Ring1*%
X75538450Y-82330039D03*
%TD*%
D10*
%TO.P,S32,1,1*%
%TO.N,R Col 0*%
X201152100Y-71972788D03*
D11*
X204962100Y-68612788D03*
D10*
%TO.P,S32,2,2*%
%TO.N,Net-(D32-A)*%
X207502100Y-69432788D03*
D11*
X209962100Y-70712788D03*
%TD*%
D10*
%TO.P,S39,1,1*%
%TO.N,R Col 1*%
X182102100Y-105206976D03*
D11*
X185912100Y-101846976D03*
D10*
%TO.P,S39,2,2*%
%TO.N,Net-(D39-A)*%
X188452100Y-102666976D03*
D11*
X190912100Y-103946976D03*
%TD*%
D10*
%TO.P,S40,1,1*%
%TO.N,R Col 1*%
X124952100Y-121206976D03*
D11*
X128762100Y-117846976D03*
D10*
%TO.P,S40,2,2*%
%TO.N,Net-(D40-A)*%
X131302100Y-118666976D03*
D11*
X133762100Y-119946976D03*
%TD*%
D10*
%TO.P,S46,1,1*%
%TO.N,R Col 3*%
X144002100Y-42006976D03*
D11*
X147812100Y-38646976D03*
D10*
%TO.P,S46,2,2*%
%TO.N,Net-(D46-A)*%
X150352100Y-39466976D03*
D11*
X152812100Y-40746976D03*
%TD*%
D10*
%TO.P,S33,1,1*%
%TO.N,R Col 0*%
X201152100Y-91022788D03*
D11*
X204962100Y-87662788D03*
D10*
%TO.P,S33,2,2*%
%TO.N,Net-(D33-A)*%
X207502100Y-88482788D03*
D11*
X209962100Y-89762788D03*
%TD*%
D10*
%TO.P,S50,1,1*%
%TO.N,R Col 3*%
X86852100Y-138831976D03*
D11*
X90662100Y-135471976D03*
D10*
%TO.P,S50,2,2*%
%TO.N,Net-(D50-A)*%
X93202100Y-136291976D03*
D11*
X95662100Y-137571976D03*
%TD*%
D16*
%TO.P,D56,1,K*%
%TO.N,R Row 0*%
X113712100Y-58196976D03*
D17*
%TO.P,D56,2,A*%
%TO.N,Net-(D56-A)*%
X106092100Y-58196976D03*
%TD*%
D16*
%TO.P,D43,1,K*%
%TO.N,R Row 2*%
X170862100Y-92421976D03*
D17*
%TO.P,D43,2,A*%
%TO.N,Net-(D43-A)*%
X163242100Y-92421976D03*
%TD*%
D16*
%TO.P,D38,1,K*%
%TO.N,R Row 2*%
X189912100Y-96946976D03*
D17*
%TO.P,D38,2,A*%
%TO.N,Net-(D38-A)*%
X182292100Y-96946976D03*
%TD*%
D16*
%TO.P,D33,1,K*%
%TO.N,R Row 2*%
X208962100Y-101812788D03*
D17*
%TO.P,D33,2,A*%
%TO.N,Net-(D33-A)*%
X201342100Y-101812788D03*
%TD*%
D16*
%TO.P,D41,1,K*%
%TO.N,R Row 0*%
X170862100Y-54321976D03*
D17*
%TO.P,D41,2,A*%
%TO.N,Net-(D41-A)*%
X163242100Y-54321976D03*
%TD*%
D16*
%TO.P,D55,1,K*%
%TO.N,R Row 4*%
X94662100Y-130571976D03*
D17*
%TO.P,D55,2,A*%
%TO.N,Net-(D55-A)*%
X87042100Y-130571976D03*
%TD*%
D16*
%TO.P,D50,1,K*%
%TO.N,R Row 4*%
X94662100Y-149621976D03*
D17*
%TO.P,D50,2,A*%
%TO.N,Net-(D50-A)*%
X87042100Y-149621976D03*
%TD*%
D16*
%TO.P,D58,1,K*%
%TO.N,R Row 2*%
X113712100Y-96296976D03*
D17*
%TO.P,D58,2,A*%
%TO.N,Net-(D58-A)*%
X106092100Y-96296976D03*
%TD*%
D16*
%TO.P,D54,1,K*%
%TO.N,R Row 3*%
X132762100Y-112946976D03*
D17*
%TO.P,D54,2,A*%
%TO.N,Net-(D54-A)*%
X125142100Y-112946976D03*
%TD*%
D16*
%TO.P,D39,1,K*%
%TO.N,R Row 3*%
X189912100Y-115996976D03*
D17*
%TO.P,D39,2,A*%
%TO.N,Net-(D39-A)*%
X182292100Y-115996976D03*
%TD*%
D16*
%TO.P,D36,1,K*%
%TO.N,R Row 0*%
X189912100Y-58846976D03*
D17*
%TO.P,D36,2,A*%
%TO.N,Net-(D36-A)*%
X182292100Y-58846976D03*
%TD*%
D16*
%TO.P,D46,1,K*%
%TO.N,R Row 0*%
X151812100Y-52796976D03*
D17*
%TO.P,D46,2,A*%
%TO.N,Net-(D46-A)*%
X144192100Y-52796976D03*
%TD*%
D16*
%TO.P,D59,1,K*%
%TO.N,R Row 3*%
X113712100Y-115346976D03*
D17*
%TO.P,D59,2,A*%
%TO.N,Net-(D59-A)*%
X106092100Y-115346976D03*
%TD*%
D16*
%TO.P,D35,1,K*%
%TO.N,R Row 4*%
X151812100Y-128996976D03*
D17*
%TO.P,D35,2,A*%
%TO.N,Net-(D35-A)*%
X144192100Y-128996976D03*
%TD*%
D16*
%TO.P,D48,1,K*%
%TO.N,R Row 2*%
X151812100Y-90896976D03*
D17*
%TO.P,D48,2,A*%
%TO.N,Net-(D48-A)*%
X144192100Y-90896976D03*
%TD*%
D16*
%TO.P,D42,1,K*%
%TO.N,R Row 1*%
X170862100Y-73371976D03*
D17*
%TO.P,D42,2,A*%
%TO.N,Net-(D42-A)*%
X163242100Y-73371976D03*
%TD*%
D16*
%TO.P,D37,1,K*%
%TO.N,R Row 1*%
X189912100Y-77896976D03*
D17*
%TO.P,D37,2,A*%
%TO.N,Net-(D37-A)*%
X182292100Y-77896976D03*
%TD*%
D16*
%TO.P,D45,1,K*%
%TO.N,R Row 4*%
X113712100Y-134396976D03*
D17*
%TO.P,D45,2,A*%
%TO.N,Net-(D45-A)*%
X106092100Y-134396976D03*
%TD*%
D16*
%TO.P,D52,1,K*%
%TO.N,R Row 1*%
X132762100Y-74846976D03*
D17*
%TO.P,D52,2,A*%
%TO.N,Net-(D52-A)*%
X125142100Y-74846976D03*
%TD*%
D16*
%TO.P,D32,1,K*%
%TO.N,R Row 1*%
X208962100Y-82762788D03*
D17*
%TO.P,D32,2,A*%
%TO.N,Net-(D32-A)*%
X201342100Y-82762788D03*
%TD*%
D16*
%TO.P,D53,1,K*%
%TO.N,R Row 2*%
X132762100Y-93896976D03*
D17*
%TO.P,D53,2,A*%
%TO.N,Net-(D53-A)*%
X125142100Y-93896976D03*
%TD*%
D16*
%TO.P,D40,1,K*%
%TO.N,R Row 4*%
X132762100Y-131996976D03*
D17*
%TO.P,D40,2,A*%
%TO.N,Net-(D40-A)*%
X125142100Y-131996976D03*
%TD*%
D16*
%TO.P,D31,1,K*%
%TO.N,R Row 0*%
X208987099Y-63731164D03*
D17*
%TO.P,D31,2,A*%
%TO.N,Net-(D31-A)*%
X201367099Y-63731164D03*
%TD*%
D16*
%TO.P,D34,1,K*%
%TO.N,R Row 3*%
X208962100Y-120862788D03*
D17*
%TO.P,D34,2,A*%
%TO.N,Net-(D34-A)*%
X201342100Y-120862788D03*
%TD*%
D16*
%TO.P,D51,1,K*%
%TO.N,R Row 0*%
X132762100Y-55796976D03*
D17*
%TO.P,D51,2,A*%
%TO.N,Net-(D51-A)*%
X125142100Y-55796976D03*
%TD*%
D16*
%TO.P,D44,1,K*%
%TO.N,R Row 3*%
X170862100Y-111471976D03*
D17*
%TO.P,D44,2,A*%
%TO.N,Net-(D44-A)*%
X163242100Y-111471976D03*
%TD*%
D16*
%TO.P,D47,1,K*%
%TO.N,R Row 1*%
X151812100Y-71846976D03*
D17*
%TO.P,D47,2,A*%
%TO.N,Net-(D47-A)*%
X144192100Y-71846976D03*
%TD*%
D16*
%TO.P,D57,1,K*%
%TO.N,R Row 1*%
X113712100Y-77246976D03*
D17*
%TO.P,D57,2,A*%
%TO.N,Net-(D57-A)*%
X106092100Y-77246976D03*
%TD*%
D16*
%TO.P,D60,1,K*%
%TO.N,R Row 4*%
X75612100Y-138596976D03*
D17*
%TO.P,D60,2,A*%
%TO.N,Net-(D60-A)*%
X67992100Y-138596976D03*
%TD*%
D16*
%TO.P,D49,1,K*%
%TO.N,R Row 3*%
X151812100Y-109946976D03*
D17*
%TO.P,D49,2,A*%
%TO.N,Net-(D49-A)*%
X144192100Y-109946976D03*
%TD*%
D18*
%TO.N,R Ring2*%
X73092262Y-70837377D02*
X74883450Y-69046189D01*
X82393450Y-73206189D02*
X80843450Y-74756189D01*
X73812262Y-74756189D02*
X73812262Y-74736189D01*
X80843450Y-74756189D02*
X73812262Y-74756189D01*
X74883450Y-52899751D02*
X78417100Y-49366101D01*
X83202262Y-84126189D02*
X85222262Y-82106189D01*
X73812262Y-74736189D02*
X73092262Y-74016189D01*
X74883450Y-69046189D02*
X74883450Y-52899751D01*
X80506112Y-82330039D02*
X82302262Y-84126189D01*
X73092262Y-74016189D02*
X73092262Y-70837377D01*
X82302262Y-84126189D02*
X83202262Y-84126189D01*
X78538450Y-82330039D02*
X80506112Y-82330039D01*
X85222262Y-82106189D02*
X85222262Y-76035001D01*
X85222262Y-76035001D02*
X82393450Y-73206189D01*
%TO.N,R Ring1*%
X82658551Y-85630039D02*
X82958551Y-85330039D01*
X86582262Y-83166189D02*
X86582262Y-75476189D01*
X82958551Y-85330039D02*
X84418412Y-85330039D01*
X75383450Y-54939751D02*
X78417100Y-51906101D01*
X78838450Y-85630039D02*
X82658551Y-85630039D01*
X75383450Y-73196189D02*
X75383450Y-54939751D01*
X76963450Y-71616189D02*
X75383450Y-73196189D01*
X82722262Y-71616189D02*
X76963450Y-71616189D01*
X75538450Y-82330039D02*
X78838450Y-85630039D01*
X84418412Y-85330039D02*
X86582262Y-83166189D01*
X86582262Y-75476189D02*
X82722262Y-71616189D01*
%TO.N,R Col 0*%
X195676187Y-49581164D02*
X184745684Y-38650661D01*
X201602100Y-91022788D02*
X201152100Y-91022788D01*
X124370944Y-39646976D02*
X127770944Y-36246976D01*
X100526636Y-47620563D02*
X100401636Y-47745563D01*
X98246732Y-74996189D02*
X94047792Y-74996189D01*
X100401636Y-47745563D02*
X100401634Y-47745563D01*
X108500222Y-39646976D02*
X100526636Y-47620563D01*
X204987099Y-49581164D02*
X201627099Y-52941164D01*
X184745684Y-38650661D02*
X170927791Y-38650661D01*
X201177099Y-54985939D02*
X204962100Y-58770940D01*
X144452100Y-118206976D02*
X144002100Y-118206976D01*
X200002100Y-111222788D02*
X175109798Y-111222788D01*
X147812100Y-114846976D02*
X144452100Y-118206976D01*
X204962100Y-96877563D02*
X204962100Y-106712788D01*
X201602100Y-71972788D02*
X201152100Y-71972788D01*
X201152100Y-110072788D02*
X200002100Y-111222788D01*
X170927791Y-38650661D02*
X168524106Y-36246976D01*
X204962100Y-58770940D02*
X204962100Y-68612788D01*
X173450738Y-112881848D02*
X149777228Y-112881848D01*
X100401634Y-47745563D02*
X99802262Y-48344935D01*
X204962100Y-77827563D02*
X204962100Y-87662788D01*
X84242262Y-59031988D02*
X79656375Y-54446101D01*
X175109798Y-111222788D02*
X173450738Y-112881848D01*
X99802262Y-48344935D02*
X99802262Y-73440659D01*
X108500221Y-39646976D02*
X108500222Y-39646976D01*
X100526636Y-47620563D02*
X100401635Y-47745563D01*
X94047792Y-74996189D02*
X84242262Y-65190659D01*
X201602100Y-110072788D02*
X201152100Y-110072788D01*
X204962100Y-106712788D02*
X201602100Y-110072788D01*
X201152100Y-74017563D02*
X204962100Y-77827563D01*
X84242262Y-65190659D02*
X84242262Y-59031988D01*
X201152100Y-93067563D02*
X204962100Y-96877563D01*
X204962100Y-87662788D02*
X201602100Y-91022788D01*
X201177099Y-52941164D02*
X201177099Y-54985939D01*
X79656375Y-54446101D02*
X78417100Y-54446101D01*
X127770944Y-36246976D02*
X168524106Y-36246976D01*
X149777228Y-112881848D02*
X147812100Y-114846976D01*
X201152100Y-91022788D02*
X201152100Y-93067563D01*
X204962100Y-68612788D02*
X201602100Y-71972788D01*
X108500221Y-39646976D02*
X124370944Y-39646976D01*
X99802262Y-73440659D02*
X98246732Y-74996189D01*
X204987099Y-49581164D02*
X195676187Y-49581164D01*
X201627099Y-52941164D02*
X201177099Y-52941164D01*
X201152100Y-71972788D02*
X201152100Y-74017563D01*
%TO.N,R Col 1*%
X182102100Y-48056976D02*
X182102100Y-50101751D01*
X83742262Y-65397765D02*
X83742262Y-60086189D01*
X182552100Y-48056976D02*
X182102100Y-48056976D01*
X140522887Y-107586189D02*
X130992100Y-117116976D01*
X165812662Y-107586189D02*
X140522887Y-107586189D01*
X185912100Y-92011751D02*
X185912100Y-101846976D01*
X185912100Y-44696976D02*
X176266999Y-44696976D01*
X129492100Y-117116976D02*
X128762100Y-117846976D01*
X182552100Y-105206976D02*
X182102100Y-105206976D01*
X182102100Y-50101751D02*
X185912100Y-53911751D01*
X98453838Y-75496189D02*
X93840686Y-75496189D01*
X176266999Y-44696976D02*
X168316999Y-36746976D01*
X185912100Y-82796976D02*
X182552100Y-86156976D01*
X100302262Y-73647765D02*
X98453838Y-75496189D01*
X80642174Y-56986101D02*
X78417100Y-56986101D01*
X124578050Y-40146976D02*
X108707328Y-40146976D01*
X182552100Y-67106976D02*
X182102100Y-67106976D01*
X83742262Y-60086189D02*
X80642174Y-56986101D01*
X182102100Y-88201751D02*
X185912100Y-92011751D01*
X182102100Y-86156976D02*
X182102100Y-88201751D01*
X182102100Y-105206976D02*
X168191875Y-105206976D01*
X108707328Y-40146976D02*
X100302262Y-48552042D01*
X185912100Y-53911751D02*
X185912100Y-63746976D01*
X185912100Y-72961751D02*
X185912100Y-82796976D01*
X127978050Y-36746976D02*
X124578050Y-40146976D01*
X100302262Y-48552042D02*
X100302262Y-73647765D01*
X182102100Y-69151751D02*
X185912100Y-72961751D01*
X185912100Y-101846976D02*
X182552100Y-105206976D01*
X182552100Y-86156976D02*
X182102100Y-86156976D01*
X125402100Y-121206976D02*
X124952100Y-121206976D01*
X185912100Y-63746976D02*
X182552100Y-67106976D01*
X168316999Y-36746976D02*
X127978050Y-36746976D01*
X182102100Y-67106976D02*
X182102100Y-69151751D01*
X128762100Y-117846976D02*
X125402100Y-121206976D01*
X93840686Y-75496189D02*
X83742262Y-65397765D01*
X168191875Y-105206976D02*
X165812662Y-107586189D01*
X130992100Y-117116976D02*
X129492100Y-117116976D01*
X185912100Y-44696976D02*
X182552100Y-48056976D01*
%TO.N,R Col 2*%
X166862100Y-40171976D02*
X163937100Y-37246976D01*
X163937100Y-37246976D02*
X128185156Y-37246976D01*
X166862100Y-87486751D02*
X166862100Y-97321976D01*
X111872887Y-118086189D02*
X109712100Y-120246976D01*
X151869943Y-104836189D02*
X138242262Y-104836189D01*
X163052100Y-45576751D02*
X166862100Y-49386751D01*
X166862100Y-78271976D02*
X163502100Y-81631976D01*
X128185156Y-37246976D02*
X124785156Y-40646976D01*
X124785156Y-40646976D02*
X108914435Y-40646976D01*
X166862100Y-40171976D02*
X163502100Y-43531976D01*
X109712100Y-120246976D02*
X106352100Y-123606976D01*
X156024156Y-100681976D02*
X151869943Y-104836189D01*
X124992262Y-118086189D02*
X111872887Y-118086189D01*
X108914435Y-40646976D02*
X103608742Y-45952669D01*
X163502100Y-100681976D02*
X163052100Y-100681976D01*
X103608741Y-45952669D02*
X100802262Y-48759148D01*
X163052100Y-62581976D02*
X163052100Y-64626751D01*
X83242262Y-62086189D02*
X80682174Y-59526101D01*
X163052100Y-100681976D02*
X156024156Y-100681976D01*
X166862100Y-97321976D02*
X163502100Y-100681976D01*
X166862100Y-59221976D02*
X163502100Y-62581976D01*
X163052100Y-43531976D02*
X163052100Y-45576751D01*
X138242262Y-104836189D02*
X124992262Y-118086189D01*
X166862100Y-68436751D02*
X166862100Y-78271976D01*
X163502100Y-43531976D02*
X163052100Y-43531976D01*
X100802262Y-48759148D02*
X100802262Y-73854871D01*
X163052100Y-64626751D02*
X166862100Y-68436751D01*
X163502100Y-81631976D02*
X163052100Y-81631976D01*
X103608742Y-45952669D02*
X103608741Y-45952669D01*
X166862100Y-49386751D02*
X166862100Y-59221976D01*
X93633580Y-75996189D02*
X83242262Y-65604871D01*
X163502100Y-62581976D02*
X163052100Y-62581976D01*
X98660944Y-75996189D02*
X93633580Y-75996189D01*
X163052100Y-83676751D02*
X166862100Y-87486751D01*
X163052100Y-81631976D02*
X163052100Y-83676751D01*
X106352100Y-123606976D02*
X105902100Y-123606976D01*
X100802262Y-73854871D02*
X98660944Y-75996189D01*
X83242262Y-65604871D02*
X83242262Y-62086189D01*
X80682174Y-59526101D02*
X78417100Y-59526101D01*
%TO.N,R Col 3*%
X147812100Y-38646976D02*
X127492262Y-38646976D01*
X144002100Y-44051751D02*
X147812100Y-47861751D01*
X124992262Y-41146976D02*
X109121541Y-41146976D01*
X127492262Y-38646976D02*
X124992262Y-41146976D01*
X144002100Y-80106976D02*
X144002100Y-82151751D01*
X117025299Y-113086189D02*
X113572887Y-113086189D01*
X90662100Y-135471976D02*
X87302100Y-138831976D01*
X147812100Y-47861751D02*
X147812100Y-57696976D01*
X147812100Y-57696976D02*
X144452100Y-61056976D01*
X144002100Y-61056976D02*
X144002100Y-63101751D01*
X87302100Y-138831976D02*
X86852100Y-138831976D01*
X147812100Y-85961751D02*
X147812100Y-95796976D01*
X147812100Y-66911751D02*
X147812100Y-76746976D01*
X147812100Y-76746976D02*
X144452100Y-80106976D01*
X144002100Y-99156976D02*
X137481999Y-99156976D01*
X113572887Y-113086189D02*
X103012100Y-123646976D01*
X127814512Y-102296976D02*
X117025299Y-113086189D01*
X144002100Y-82151751D02*
X147812100Y-85961751D01*
X103012100Y-125066351D02*
X93492262Y-134586189D01*
X144452100Y-42006976D02*
X144002100Y-42006976D01*
X134341999Y-102296976D02*
X127814512Y-102296976D01*
X147812100Y-95796976D02*
X144452100Y-99156976D01*
X91547887Y-134586189D02*
X90662100Y-135471976D01*
X98868050Y-76496189D02*
X93426474Y-76496189D01*
X137481999Y-99156976D02*
X134341999Y-102296976D01*
X103012100Y-123646976D02*
X103012100Y-125066351D01*
X109121541Y-41146976D02*
X101302262Y-48966255D01*
X147812100Y-38646976D02*
X144452100Y-42006976D01*
X144452100Y-61056976D02*
X144002100Y-61056976D01*
X144452100Y-80106976D02*
X144002100Y-80106976D01*
X144002100Y-63101751D02*
X147812100Y-66911751D01*
X101302262Y-74061977D02*
X98868050Y-76496189D01*
X93426474Y-76496189D02*
X78996386Y-62066101D01*
X78996386Y-62066101D02*
X78417100Y-62066101D01*
X144452100Y-99156976D02*
X144002100Y-99156976D01*
X93492262Y-134586189D02*
X91547887Y-134586189D01*
X144002100Y-42006976D02*
X144002100Y-44051751D01*
X101302262Y-48966255D02*
X101302262Y-74061977D01*
%TO.N,R Col 4*%
X90662100Y-116421976D02*
X87302100Y-119781976D01*
X124952100Y-45006976D02*
X124952100Y-47051751D01*
X128762100Y-98796976D02*
X125402100Y-102156976D01*
X117831999Y-102156976D02*
X112152786Y-107836189D01*
X124952100Y-85151751D02*
X128762100Y-88961751D01*
X101802262Y-74269083D02*
X99075156Y-76996189D01*
X124952100Y-66101751D02*
X128762100Y-69911751D01*
X128762100Y-69911751D02*
X128762100Y-79746976D01*
X128762100Y-41646976D02*
X125402100Y-45006976D01*
X128762100Y-88961751D02*
X128762100Y-98796976D01*
X128762100Y-60696976D02*
X125402100Y-64056976D01*
X128762100Y-41646976D02*
X109328648Y-41646976D01*
X99075156Y-76996189D02*
X93219368Y-76996189D01*
X128762100Y-79746976D02*
X125402100Y-83106976D01*
X87302100Y-119781976D02*
X86852100Y-119781976D01*
X93219368Y-76996189D02*
X80829280Y-64606101D01*
X125402100Y-64056976D02*
X124952100Y-64056976D01*
X96997887Y-110086189D02*
X90662100Y-116421976D01*
X112152786Y-107971065D02*
X110037662Y-110086189D01*
X80829280Y-64606101D02*
X78417100Y-64606101D01*
X110037662Y-110086189D02*
X96997887Y-110086189D01*
X124952100Y-102156976D02*
X117831999Y-102156976D01*
X125402100Y-102156976D02*
X124952100Y-102156976D01*
X125402100Y-45006976D02*
X124952100Y-45006976D01*
X124952100Y-47051751D02*
X128762100Y-50861751D01*
X112152786Y-107836189D02*
X112152786Y-107971065D01*
X109328648Y-41646976D02*
X101802262Y-49173362D01*
X124952100Y-64056976D02*
X124952100Y-66101751D01*
X128762100Y-50861751D02*
X128762100Y-60696976D01*
X125402100Y-83106976D02*
X124952100Y-83106976D01*
X124952100Y-83106976D02*
X124952100Y-85151751D01*
X101802262Y-49173362D02*
X101802262Y-74269083D01*
%TO.N,R Col 5*%
X104275755Y-47406976D02*
X102302262Y-49380469D01*
X102302262Y-49380469D02*
X102302262Y-74476189D01*
X102302262Y-74476189D02*
X99282262Y-77496189D01*
X99282262Y-77496189D02*
X93012262Y-77496189D01*
X105902100Y-66456976D02*
X105902100Y-68501751D01*
X109712100Y-91361751D02*
X109712100Y-101196976D01*
X109712100Y-63096976D02*
X106352100Y-66456976D01*
X72342100Y-123716976D02*
X71612100Y-124446976D01*
X68252100Y-127806976D02*
X67802100Y-127806976D01*
X106352100Y-47406976D02*
X105902100Y-47406976D01*
X105902100Y-49451751D02*
X109712100Y-53261751D01*
X99863421Y-104556976D02*
X80703421Y-123716976D01*
X71612100Y-124446976D02*
X68252100Y-127806976D01*
X109712100Y-72311751D02*
X109712100Y-82146976D01*
X106352100Y-104556976D02*
X105902100Y-104556976D01*
X105902100Y-47406976D02*
X105902100Y-49451751D01*
X105902100Y-68501751D02*
X109712100Y-72311751D01*
X106352100Y-85506976D02*
X105902100Y-85506976D01*
X105902100Y-87551751D02*
X109712100Y-91361751D01*
X93012262Y-77496189D02*
X82662174Y-67146101D01*
X109712100Y-82146976D02*
X106352100Y-85506976D01*
X105902100Y-104556976D02*
X99863421Y-104556976D01*
X109712100Y-53261751D02*
X109712100Y-63096976D01*
X105902100Y-47406976D02*
X104275755Y-47406976D01*
X106352100Y-66456976D02*
X105902100Y-66456976D01*
X82662174Y-67146101D02*
X78417100Y-67146101D01*
X105902100Y-85506976D02*
X105902100Y-87551751D01*
X80703421Y-123716976D02*
X72342100Y-123716976D01*
X109712100Y-101196976D02*
X106352100Y-104556976D01*
X109712100Y-44046976D02*
X106352100Y-47406976D01*
%TO.N,R GND*%
X83538450Y-86730039D02*
X74146112Y-86730039D01*
X74383450Y-68839083D02*
X74383450Y-48319751D01*
X83538450Y-86730039D02*
X83538450Y-89536189D01*
X80378450Y-92696189D02*
X80378450Y-99196189D01*
X74383450Y-48319751D02*
X78417100Y-44286101D01*
X74146112Y-86730039D02*
X72592262Y-85176189D01*
X72592262Y-85176189D02*
X72592262Y-70630271D01*
X72592262Y-70630271D02*
X74383450Y-68839083D01*
X83538450Y-89536189D02*
X80378450Y-92696189D01*
%TO.N,VCC*%
X75383450Y-78276189D02*
X82383450Y-78276189D01*
X82393450Y-78286189D02*
X82393450Y-82185039D01*
X82393450Y-82185039D02*
X82538450Y-82330039D01*
X82383450Y-78276189D02*
X82393450Y-78286189D01*
%TD*%
M02*
