%TF.GenerationSoftware,KiCad,Pcbnew,8.0.6*%
%TF.CreationDate,2025-02-14T20:47:42-05:00*%
%TF.ProjectId,KeyBoard_2nd_half,4b657942-6f61-4726-945f-326e645f6861,rev?*%
%TF.SameCoordinates,Original*%
%TF.FileFunction,Soldermask,Top*%
%TF.FilePolarity,Negative*%
%FSLAX46Y46*%
G04 Gerber Fmt 4.6, Leading zero omitted, Abs format (unit mm)*
G04 Created by KiCad (PCBNEW 8.0.6) date 2025-02-14 20:47:42*
%MOMM*%
%LPD*%
G01*
G04 APERTURE LIST*
%ADD10C,1.700000*%
%ADD11C,1.750000*%
%ADD12C,3.987800*%
%ADD13C,1.400000*%
%ADD14O,1.400000X1.400000*%
%ADD15R,1.752600X1.752600*%
%ADD16C,1.752600*%
%ADD17C,2.000000*%
%ADD18R,1.600000X1.600000*%
%ADD19O,1.600000X1.600000*%
G04 APERTURE END LIST*
D10*
%TO.C,S36*%
X180412100Y-50596976D03*
D11*
X180832100Y-50596976D03*
D12*
X185912100Y-50596976D03*
D11*
X190992100Y-50596976D03*
D10*
X191412100Y-50596976D03*
%TD*%
%TO.C,S57*%
X104212100Y-68996976D03*
D11*
X104632100Y-68996976D03*
D12*
X109712100Y-68996976D03*
D11*
X114792100Y-68996976D03*
D10*
X115212100Y-68996976D03*
%TD*%
%TO.C,S56*%
X104212100Y-49946976D03*
D11*
X104632100Y-49946976D03*
D12*
X109712100Y-49946976D03*
D11*
X114792100Y-49946976D03*
D10*
X115212100Y-49946976D03*
%TD*%
%TO.C,S42*%
X161362100Y-65121976D03*
D11*
X161782100Y-65121976D03*
D12*
X166862100Y-65121976D03*
D11*
X171942100Y-65121976D03*
D10*
X172362100Y-65121976D03*
%TD*%
%TO.C,S51*%
X123262100Y-47546976D03*
D11*
X123682100Y-47546976D03*
D12*
X128762100Y-47546976D03*
D11*
X133842100Y-47546976D03*
D10*
X134262100Y-47546976D03*
%TD*%
%TO.C,S59*%
X104212100Y-107096976D03*
D11*
X104632100Y-107096976D03*
D12*
X109712100Y-107096976D03*
D11*
X114792100Y-107096976D03*
D10*
X115212100Y-107096976D03*
%TD*%
%TO.C,S34*%
X199462100Y-112612788D03*
D11*
X199882100Y-112612788D03*
D12*
X204962100Y-112612788D03*
D11*
X210042100Y-112612788D03*
D10*
X210462100Y-112612788D03*
%TD*%
%TO.C,S37*%
X180412100Y-69646976D03*
D11*
X180832100Y-69646976D03*
D12*
X185912100Y-69646976D03*
D11*
X190992100Y-69646976D03*
D10*
X191412100Y-69646976D03*
%TD*%
%TO.C,S31*%
X199487099Y-55481164D03*
D11*
X199907099Y-55481164D03*
D12*
X204987099Y-55481164D03*
D11*
X210067099Y-55481164D03*
D10*
X210487099Y-55481164D03*
%TD*%
%TO.C,S53*%
X123262100Y-85646976D03*
D11*
X123682100Y-85646976D03*
D12*
X128762100Y-85646976D03*
D11*
X133842100Y-85646976D03*
D10*
X134262100Y-85646976D03*
%TD*%
D13*
%TO.C,R4*%
X75383450Y-78276189D03*
D14*
X75383450Y-73196189D03*
%TD*%
D10*
%TO.C,S55*%
X85162100Y-122321976D03*
D11*
X85582100Y-122321976D03*
D12*
X90662100Y-122321976D03*
D11*
X95742100Y-122321976D03*
D10*
X96162100Y-122321976D03*
%TD*%
%TO.C,S48*%
X142312100Y-82646976D03*
D11*
X142732100Y-82646976D03*
D12*
X147812100Y-82646976D03*
D11*
X152892100Y-82646976D03*
D10*
X153312100Y-82646976D03*
%TD*%
%TO.C,S52*%
X123262100Y-66596976D03*
D11*
X123682100Y-66596976D03*
D12*
X128762100Y-66596976D03*
D11*
X133842100Y-66596976D03*
D10*
X134262100Y-66596976D03*
%TD*%
%TO.C,S35*%
X142312100Y-120746976D03*
D11*
X142732100Y-120746976D03*
D12*
X147812100Y-120746976D03*
D11*
X152892100Y-120746976D03*
D10*
X153312100Y-120746976D03*
%TD*%
%TO.C,S41*%
X161362100Y-46071976D03*
D11*
X161782100Y-46071976D03*
D12*
X166862100Y-46071976D03*
D11*
X171942100Y-46071976D03*
D10*
X172362100Y-46071976D03*
%TD*%
%TO.C,S58*%
X104212100Y-88046976D03*
D11*
X104632100Y-88046976D03*
D12*
X109712100Y-88046976D03*
D11*
X114792100Y-88046976D03*
D10*
X115212100Y-88046976D03*
%TD*%
D13*
%TO.C,R3*%
X82393450Y-78286189D03*
D14*
X82393450Y-73206189D03*
%TD*%
D10*
%TO.C,S45*%
X104212100Y-126146976D03*
D11*
X104632100Y-126146976D03*
D12*
X109712100Y-126146976D03*
D11*
X114792100Y-126146976D03*
D10*
X115212100Y-126146976D03*
%TD*%
%TO.C,S47*%
X142312100Y-63596976D03*
D11*
X142732100Y-63596976D03*
D12*
X147812100Y-63596976D03*
D11*
X152892100Y-63596976D03*
D10*
X153312100Y-63596976D03*
%TD*%
%TO.C,S43*%
X161362100Y-84171976D03*
D11*
X161782100Y-84171976D03*
D12*
X166862100Y-84171976D03*
D11*
X171942100Y-84171976D03*
D10*
X172362100Y-84171976D03*
%TD*%
%TO.C,S60*%
X66112100Y-130346976D03*
D11*
X66532100Y-130346976D03*
D12*
X71612100Y-130346976D03*
D11*
X76692100Y-130346976D03*
D10*
X77112100Y-130346976D03*
%TD*%
D15*
%TO.C,U4*%
X78417100Y-39206101D03*
D16*
X78417100Y-41746101D03*
X78417100Y-44286101D03*
X78417100Y-46826101D03*
X78417100Y-49366101D03*
X78417100Y-51906101D03*
X78417100Y-54446101D03*
X78417100Y-56986101D03*
X78417100Y-59526101D03*
X78417100Y-62066101D03*
X78417100Y-64606101D03*
X78417100Y-67146101D03*
X93657100Y-67146101D03*
X93657100Y-64606101D03*
X93657100Y-62066101D03*
X93657100Y-59526101D03*
X93657100Y-56986101D03*
X93657100Y-54446101D03*
X93657100Y-51906101D03*
X93657100Y-49366101D03*
X93657100Y-46826101D03*
X93657100Y-44286101D03*
X93657100Y-41746101D03*
X93657100Y-39206101D03*
%TD*%
D10*
%TO.C,S54*%
X123262100Y-104696976D03*
D11*
X123682100Y-104696976D03*
D12*
X128762100Y-104696976D03*
D11*
X133842100Y-104696976D03*
D10*
X134262100Y-104696976D03*
%TD*%
%TO.C,S49*%
X142312100Y-101696976D03*
D11*
X142732100Y-101696976D03*
D12*
X147812100Y-101696976D03*
D11*
X152892100Y-101696976D03*
D10*
X153312100Y-101696976D03*
%TD*%
%TO.C,S44*%
X161362100Y-103221976D03*
D11*
X161782100Y-103221976D03*
D12*
X166862100Y-103221976D03*
D11*
X171942100Y-103221976D03*
D10*
X172362100Y-103221976D03*
%TD*%
%TO.C,S38*%
X180412100Y-88696976D03*
D11*
X180832100Y-88696976D03*
D12*
X185912100Y-88696976D03*
D11*
X190992100Y-88696976D03*
D10*
X191412100Y-88696976D03*
%TD*%
D17*
%TO.C,SW2*%
X80378450Y-92696189D03*
X80378450Y-99196189D03*
X75878450Y-92696189D03*
X75878450Y-99196189D03*
%TD*%
%TO.C,U3*%
X83538450Y-86730039D03*
X82538450Y-82330039D03*
X78538450Y-82330039D03*
X75538450Y-82330039D03*
%TD*%
D10*
%TO.C,S32*%
X199462100Y-74512788D03*
D11*
X199882100Y-74512788D03*
D12*
X204962100Y-74512788D03*
D11*
X210042100Y-74512788D03*
D10*
X210462100Y-74512788D03*
%TD*%
%TO.C,S39*%
X180412100Y-107746976D03*
D11*
X180832100Y-107746976D03*
D12*
X185912100Y-107746976D03*
D11*
X190992100Y-107746976D03*
D10*
X191412100Y-107746976D03*
%TD*%
%TO.C,S40*%
X123262100Y-123746976D03*
D11*
X123682100Y-123746976D03*
D12*
X128762100Y-123746976D03*
D11*
X133842100Y-123746976D03*
D10*
X134262100Y-123746976D03*
%TD*%
%TO.C,S46*%
X142312100Y-44546976D03*
D11*
X142732100Y-44546976D03*
D12*
X147812100Y-44546976D03*
D11*
X152892100Y-44546976D03*
D10*
X153312100Y-44546976D03*
%TD*%
%TO.C,S33*%
X199462100Y-93562788D03*
D11*
X199882100Y-93562788D03*
D12*
X204962100Y-93562788D03*
D11*
X210042100Y-93562788D03*
D10*
X210462100Y-93562788D03*
%TD*%
%TO.C,S50*%
X85162100Y-141371976D03*
D11*
X85582100Y-141371976D03*
D12*
X90662100Y-141371976D03*
D11*
X95742100Y-141371976D03*
D10*
X96162100Y-141371976D03*
%TD*%
D18*
%TO.C,D56*%
X113712100Y-58196976D03*
D19*
X106092100Y-58196976D03*
%TD*%
D18*
%TO.C,D43*%
X170862100Y-92421976D03*
D19*
X163242100Y-92421976D03*
%TD*%
D18*
%TO.C,D38*%
X189912100Y-96946976D03*
D19*
X182292100Y-96946976D03*
%TD*%
D18*
%TO.C,D33*%
X208962100Y-101812788D03*
D19*
X201342100Y-101812788D03*
%TD*%
D18*
%TO.C,D41*%
X170862100Y-54321976D03*
D19*
X163242100Y-54321976D03*
%TD*%
D18*
%TO.C,D55*%
X94662100Y-130571976D03*
D19*
X87042100Y-130571976D03*
%TD*%
D18*
%TO.C,D50*%
X94662100Y-149621976D03*
D19*
X87042100Y-149621976D03*
%TD*%
D18*
%TO.C,D58*%
X113712100Y-96296976D03*
D19*
X106092100Y-96296976D03*
%TD*%
D18*
%TO.C,D54*%
X132762100Y-112946976D03*
D19*
X125142100Y-112946976D03*
%TD*%
D18*
%TO.C,D39*%
X189912100Y-115996976D03*
D19*
X182292100Y-115996976D03*
%TD*%
D18*
%TO.C,D36*%
X189912100Y-58846976D03*
D19*
X182292100Y-58846976D03*
%TD*%
D18*
%TO.C,D46*%
X151812100Y-52796976D03*
D19*
X144192100Y-52796976D03*
%TD*%
D18*
%TO.C,D59*%
X113712100Y-115346976D03*
D19*
X106092100Y-115346976D03*
%TD*%
D18*
%TO.C,D35*%
X151812100Y-128996976D03*
D19*
X144192100Y-128996976D03*
%TD*%
D18*
%TO.C,D48*%
X151812100Y-90896976D03*
D19*
X144192100Y-90896976D03*
%TD*%
D18*
%TO.C,D42*%
X170862100Y-73371976D03*
D19*
X163242100Y-73371976D03*
%TD*%
D18*
%TO.C,D37*%
X189912100Y-77896976D03*
D19*
X182292100Y-77896976D03*
%TD*%
D18*
%TO.C,D45*%
X113712100Y-134396976D03*
D19*
X106092100Y-134396976D03*
%TD*%
D18*
%TO.C,D52*%
X132762100Y-74846976D03*
D19*
X125142100Y-74846976D03*
%TD*%
D18*
%TO.C,D32*%
X208962100Y-82762788D03*
D19*
X201342100Y-82762788D03*
%TD*%
D18*
%TO.C,D53*%
X132762100Y-93896976D03*
D19*
X125142100Y-93896976D03*
%TD*%
D18*
%TO.C,D40*%
X132762100Y-131996976D03*
D19*
X125142100Y-131996976D03*
%TD*%
D18*
%TO.C,D31*%
X208987099Y-63731164D03*
D19*
X201367099Y-63731164D03*
%TD*%
D18*
%TO.C,D34*%
X208962100Y-120862788D03*
D19*
X201342100Y-120862788D03*
%TD*%
D18*
%TO.C,D51*%
X132762100Y-55796976D03*
D19*
X125142100Y-55796976D03*
%TD*%
D18*
%TO.C,D44*%
X170862100Y-111471976D03*
D19*
X163242100Y-111471976D03*
%TD*%
D18*
%TO.C,D47*%
X151812100Y-71846976D03*
D19*
X144192100Y-71846976D03*
%TD*%
D18*
%TO.C,D57*%
X113712100Y-77246976D03*
D19*
X106092100Y-77246976D03*
%TD*%
D18*
%TO.C,D60*%
X75612100Y-138596976D03*
D19*
X67992100Y-138596976D03*
%TD*%
D18*
%TO.C,D49*%
X151812100Y-109946976D03*
D19*
X144192100Y-109946976D03*
%TD*%
M02*
